NotoAmalgamated-DisplaySemiBoldCondensed.ufo
<glyph name="exclam" format="2">
  <advance width="251"/>
  <unicode hex="0021"/>
  <outline>
    <contour>
      <point x="181" y="232" type="line"/>
      <point x="201" y="714" type="line"/>
      <point x="49" y="714" type="line"/>
      <point x="70" y="232" type="line"/>
    </contour>
    <contour>
      <point x="48" y="71" type="curve" smooth="yes"/>
      <point x="48" y="18"/>
      <point x="77" y="-11"/>
      <point x="126" y="-11" type="curve" smooth="yes"/>
      <point x="172" y="-11"/>
      <point x="202" y="18"/>
      <point x="202" y="71" type="curve" smooth="yes"/>
      <point x="202" y="125"/>
      <point x="174" y="153"/>
      <point x="126" y="153" type="curve" smooth="yes"/>
      <point x="74" y="153"/>
      <point x="48" y="124"/>
    </contour>
  </outline>
</glyph>
<glyph name="exclam.serif" format="2">
  <advance width="316"/>
  <unicode hex="0021"/>
  <outline>
    <contour>
      <point x="149" y="221" type="line"/>
      <point x="165" y="221" type="line"/>
      <point x="228" y="714" type="line"/>
      <point x="84" y="714" type="line"/>
    </contour>
    <contour>
      <point x="157" y="-7" type="curve" smooth="yes"/>
      <point x="187" y="-7"/>
      <point x="214" y="10"/>
      <point x="214" y="64" type="curve" smooth="yes"/>
      <point x="214" y="119"/>
      <point x="187" y="136"/>
      <point x="157" y="136" type="curve" smooth="yes"/>
      <point x="125" y="136"/>
      <point x="100" y="119"/>
      <point x="100" y="64" type="curve" smooth="yes"/>
      <point x="100" y="10"/>
      <point x="125" y="-7"/>
    </contour>
  </outline>
</glyph>
<glyph name="quotedbl" format="2">
  <advance width="436"/>
  <unicode hex="0022"/>
  <outline>
    <contour>
      <point x="187" y="714" type="line"/>
      <point x="44" y="714" type="line"/>
      <point x="63" y="456" type="line"/>
      <point x="169" y="456" type="line"/>
    </contour>
    <contour>
      <point x="392" y="714" type="line"/>
      <point x="249" y="714" type="line"/>
      <point x="268" y="456" type="line"/>
      <point x="374" y="456" type="line"/>
    </contour>
  </outline>
</glyph>
<glyph name="numbersign" format="2">
  <advance width="502"/>
  <unicode hex="0023"/>
  <outline>
    <contour>
      <point x="393" y="423" type="line"/>
      <point x="488" y="423" type="line"/>
      <point x="488" y="520" type="line"/>
      <point x="405" y="520" type="line"/>
      <point x="431" y="714" type="line"/>
      <point x="336" y="714" type="line"/>
      <point x="311" y="520" type="line"/>
      <point x="238" y="520" type="line"/>
      <point x="264" y="714" type="line"/>
      <point x="169" y="714" type="line"/>
      <point x="143" y="520" type="line"/>
      <point x="42" y="520" type="line"/>
      <point x="42" y="423" type="line"/>
      <point x="130" y="423" type="line"/>
      <point x="114" y="296" type="line"/>
      <point x="20" y="296" type="line"/>
      <point x="20" y="201" type="line"/>
      <point x="101" y="201" type="line"/>
      <point x="75" y="0" type="line"/>
      <point x="170" y="0" type="line"/>
      <point x="196" y="201" type="line"/>
      <point x="269" y="201" type="line"/>
      <point x="241" y="0" type="line"/>
      <point x="338" y="0" type="line"/>
      <point x="365" y="201" type="line"/>
      <point x="464" y="201" type="line"/>
      <point x="464" y="296" type="line"/>
      <point x="377" y="296" type="line"/>
    </contour>
    <contour>
      <point x="210" y="296" type="line"/>
      <point x="226" y="423" type="line"/>
      <point x="298" y="423" type="line"/>
      <point x="281" y="296" type="line"/>
    </contour>
  </outline>
</glyph>
<glyph name="dollar" format="2">
  <advance width="459"/>
  <unicode hex="0024"/>
  <outline>
    <contour>
      <point x="201" y="41" type="curve"/>
      <point x="201" y="-58" type="line"/>
      <point x="264" y="-58" type="line"/>
      <point x="264" y="44" type="line"/>
      <point x="362" y="63"/>
      <point x="418" y="134"/>
      <point x="418" y="229" type="curve" smooth="yes"/>
      <point x="418" y="322"/>
      <point x="369" y="368"/>
      <point x="264" y="410" type="curve"/>
      <point x="264" y="581" type="line"/>
      <point x="301" y="577"/>
      <point x="340" y="565"/>
      <point x="375" y="545" type="curve"/>
      <point x="405" y="644" type="line"/>
      <point x="360" y="669"/>
      <point x="311" y="683"/>
      <point x="264" y="686" type="curve"/>
      <point x="264" y="759" type="line"/>
      <point x="201" y="759" type="line"/>
      <point x="201" y="685" type="line"/>
      <point x="108" y="673"/>
      <point x="42" y="613"/>
      <point x="42" y="511" type="curve" smooth="yes"/>
      <point x="42" y="416"/>
      <point x="93" y="364"/>
      <point x="201" y="320" type="curve"/>
      <point x="201" y="141" type="line"/>
      <point x="149" y="143"/>
      <point x="90" y="169"/>
      <point x="46" y="198" type="curve"/>
      <point x="46" y="79" type="line"/>
      <point x="92" y="57"/>
      <point x="148" y="43"/>
    </contour>
    <contour>
      <point x="264" y="149" type="curve"/>
      <point x="264" y="293" type="line"/>
      <point x="297" y="275"/>
      <point x="314" y="254"/>
      <point x="314" y="220" type="curve" smooth="yes"/>
      <point x="314" y="187"/>
      <point x="298" y="160"/>
    </contour>
    <contour>
      <point x="201" y="580" type="curve"/>
      <point x="201" y="437" type="line"/>
      <point x="164" y="457"/>
      <point x="149" y="475"/>
      <point x="149" y="509" type="curve"/>
      <point x="149" y="546"/>
      <point x="164" y="572"/>
    </contour>
  </outline>
</glyph>
<glyph name="dollar.serif" format="2">
  <advance width="454"/>
  <unicode hex="0024"/>
  <outline>
    <contour>
      <point x="228" y="41" type="curve"/>
      <point x="228" y="-79" type="line"/>
      <point x="238" y="-79" type="line"/>
      <point x="238" y="41" type="line"/>
      <point x="353" y="46"/>
      <point x="417" y="120"/>
      <point x="417" y="226" type="curve" smooth="yes"/>
      <point x="417" y="332"/>
      <point x="331" y="380"/>
      <point x="238" y="432" type="curve"/>
      <point x="238" y="673" type="line"/>
      <point x="298" y="668"/>
      <point x="313" y="619"/>
      <point x="313" y="516" type="curve"/>
      <point x="374" y="516"/>
      <point x="395" y="546"/>
      <point x="395" y="584" type="curve" smooth="yes"/>
      <point x="395" y="639"/>
      <point x="347" y="684"/>
      <point x="238" y="685" type="curve"/>
      <point x="238" y="760" type="line"/>
      <point x="228" y="760" type="line"/>
      <point x="228" y="685" type="line"/>
      <point x="122" y="680"/>
      <point x="57" y="614"/>
      <point x="57" y="517" type="curve" smooth="yes"/>
      <point x="57" y="395"/>
      <point x="145" y="356"/>
      <point x="228" y="311" type="curve"/>
      <point x="228" y="51" type="line"/>
      <point x="146" y="53"/>
      <point x="116" y="103"/>
      <point x="116" y="255" type="curve"/>
      <point x="81" y="255"/>
      <point x="40" y="233"/>
      <point x="40" y="180" type="curve" smooth="yes"/>
      <point x="40" y="123"/>
      <point x="78" y="42"/>
    </contour>
    <contour>
      <point x="238" y="51" type="curve"/>
      <point x="238" y="305" type="line"/>
      <point x="298" y="273"/>
      <point x="337" y="235"/>
      <point x="337" y="165" type="curve" smooth="yes"/>
      <point x="337" y="94"/>
      <point x="303" y="54"/>
    </contour>
    <contour>
      <point x="228" y="674" type="curve"/>
      <point x="228" y="438" type="line"/>
      <point x="173" y="470"/>
      <point x="135" y="503"/>
      <point x="135" y="566" type="curve" smooth="yes"/>
      <point x="135" y="633"/>
      <point x="164" y="672"/>
    </contour>
  </outline>
</glyph>
<glyph name="percent" format="2">
  <advance width="757"/>
  <unicode hex="0025"/>
  <outline>
    <contour>
      <point x="167" y="724" type="curve" smooth="yes"/>
      <point x="78" y="724"/>
      <point x="28" y="644"/>
      <point x="28" y="501" type="curve" smooth="yes"/>
      <point x="28" y="362"/>
      <point x="80" y="276"/>
      <point x="167" y="276" type="curve" smooth="yes"/>
      <point x="257" y="276"/>
      <point x="308" y="358"/>
      <point x="308" y="501" type="curve" smooth="yes"/>
      <point x="308" y="640"/>
      <point x="254" y="724"/>
    </contour>
    <contour>
      <point x="168" y="632" type="curve" smooth="yes"/>
      <point x="194" y="632"/>
      <point x="206" y="590"/>
      <point x="206" y="500" type="curve" smooth="yes"/>
      <point x="206" y="408"/>
      <point x="195" y="367"/>
      <point x="169" y="367" type="curve" smooth="yes"/>
      <point x="143" y="367"/>
      <point x="130" y="409"/>
      <point x="130" y="500" type="curve" smooth="yes"/>
      <point x="130" y="589"/>
      <point x="143" y="632"/>
    </contour>
    <contour>
      <point x="562" y="714" type="line"/>
      <point x="463" y="714" type="line"/>
      <point x="193" y="0" type="line"/>
      <point x="292" y="0" type="line"/>
    </contour>
    <contour>
      <point x="588" y="439" type="curve" smooth="yes"/>
      <point x="500" y="439"/>
      <point x="449" y="361"/>
      <point x="449" y="216" type="curve" smooth="yes"/>
      <point x="449" y="78"/>
      <point x="501" y="-9"/>
      <point x="588" y="-9" type="curve" smooth="yes"/>
      <point x="678" y="-9"/>
      <point x="729" y="73"/>
      <point x="729" y="216" type="curve" smooth="yes"/>
      <point x="729" y="355"/>
      <point x="675" y="439"/>
    </contour>
    <contour>
      <point x="588" y="348" type="curve" smooth="yes"/>
      <point x="616" y="348"/>
      <point x="626" y="298"/>
      <point x="626" y="215" type="curve" smooth="yes"/>
      <point x="626" y="132"/>
      <point x="617" y="83"/>
      <point x="589" y="83" type="curve" smooth="yes"/>
      <point x="563" y="83"/>
      <point x="551" y="125"/>
      <point x="551" y="215" type="curve" smooth="yes"/>
      <point x="551" y="304"/>
      <point x="563" y="348"/>
    </contour>
  </outline>
</glyph>
<glyph name="percent.serif" format="2">
  <advance width="739"/>
  <unicode hex="0025"/>
  <outline>
    <contour>
      <point x="222" y="0" type="line"/>
      <point x="232" y="0" type="line"/>
      <point x="514" y="714" type="line"/>
      <point x="503" y="714" type="line"/>
    </contour>
    <contour>
      <point x="175" y="280" type="curve" smooth="yes"/>
      <point x="276" y="280"/>
      <point x="324" y="367"/>
      <point x="324" y="503" type="curve" smooth="yes"/>
      <point x="324" y="640"/>
      <point x="276" y="724"/>
      <point x="176" y="724" type="curve" smooth="yes"/>
      <point x="70" y="724"/>
      <point x="26" y="639"/>
      <point x="26" y="503" type="curve" smooth="yes"/>
      <point x="26" y="365"/>
      <point x="71" y="280"/>
    </contour>
    <contour>
      <point x="175" y="290" type="curve" smooth="yes"/>
      <point x="129" y="290"/>
      <point x="115" y="338"/>
      <point x="115" y="503" type="curve" smooth="yes"/>
      <point x="115" y="666"/>
      <point x="129" y="714"/>
      <point x="175" y="714" type="curve" smooth="yes"/>
      <point x="220" y="714"/>
      <point x="234" y="666"/>
      <point x="234" y="503" type="curve" smooth="yes"/>
      <point x="234" y="338"/>
      <point x="220" y="290"/>
    </contour>
    <contour>
      <point x="563" y="-10" type="curve" smooth="yes"/>
      <point x="665" y="-10"/>
      <point x="713" y="77"/>
      <point x="713" y="213" type="curve" smooth="yes"/>
      <point x="713" y="350"/>
      <point x="665" y="434"/>
      <point x="564" y="434" type="curve" smooth="yes"/>
      <point x="459" y="434"/>
      <point x="415" y="349"/>
      <point x="415" y="213" type="curve" smooth="yes"/>
      <point x="415" y="75"/>
      <point x="460" y="-10"/>
    </contour>
    <contour>
      <point x="564" y="0" type="curve" smooth="yes"/>
      <point x="518" y="0"/>
      <point x="504" y="48"/>
      <point x="504" y="213" type="curve" smooth="yes"/>
      <point x="504" y="376"/>
      <point x="518" y="424"/>
      <point x="564" y="424" type="curve" smooth="yes"/>
      <point x="609" y="424"/>
      <point x="623" y="376"/>
      <point x="623" y="213" type="curve" smooth="yes"/>
      <point x="623" y="48"/>
      <point x="609" y="0"/>
    </contour>
  </outline>
</glyph>
<glyph name="ampersand" format="2">
  <advance width="570"/>
  <unicode hex="0026"/>
  <outline>
    <contour>
      <point x="245" y="723" type="curve" smooth="yes"/>
      <point x="145" y="723"/>
      <point x="81" y="659"/>
      <point x="81" y="562" type="curve" smooth="yes"/>
      <point x="81" y="495"/>
      <point x="99" y="447"/>
      <point x="138" y="391" type="curve"/>
      <point x="60" y="341"/>
      <point x="24" y="277"/>
      <point x="24" y="191" type="curve" smooth="yes"/>
      <point x="24" y="71"/>
      <point x="84" y="-10"/>
      <point x="205" y="-10" type="curve" smooth="yes"/>
      <point x="277" y="-10"/>
      <point x="328" y="13"/>
      <point x="375" y="54" type="curve"/>
      <point x="408" y="0" type="line"/>
      <point x="574" y="0" type="line"/>
      <point x="469" y="144" type="line"/>
      <point x="510" y="213"/>
      <point x="537" y="299"/>
      <point x="547" y="377" type="curve"/>
      <point x="409" y="377" type="line"/>
      <point x="403" y="328"/>
      <point x="394" y="288"/>
      <point x="381" y="258" type="curve"/>
      <point x="305" y="376" type="line"/>
      <point x="368" y="427"/>
      <point x="404" y="486"/>
      <point x="404" y="561" type="curve" smooth="yes"/>
      <point x="404" y="662"/>
      <point x="347" y="723"/>
    </contour>
    <contour>
      <point x="201" y="309" type="curve"/>
      <point x="303" y="151" type="line"/>
      <point x="281" y="122"/>
      <point x="258" y="107"/>
      <point x="226" y="107" type="curve" smooth="yes"/>
      <point x="184" y="107"/>
      <point x="159" y="147"/>
      <point x="159" y="199" type="curve" smooth="yes"/>
      <point x="159" y="247"/>
      <point x="171" y="280"/>
    </contour>
    <contour>
      <point x="244" y="626" type="curve" smooth="yes"/>
      <point x="268" y="626"/>
      <point x="283" y="606"/>
      <point x="283" y="566" type="curve" smooth="yes"/>
      <point x="283" y="525"/>
      <point x="269" y="485"/>
      <point x="240" y="458" type="curve"/>
      <point x="217" y="490"/>
      <point x="204" y="530"/>
      <point x="204" y="562" type="curve" smooth="yes"/>
      <point x="204" y="605"/>
      <point x="221" y="626"/>
    </contour>
  </outline>
</glyph>
<glyph name="ampersand.serif" format="2">
  <advance width="658"/>
  <unicode hex="0026"/>
  <outline>
    <contour>
      <point x="242" y="-10" type="curve" smooth="yes"/>
      <point x="323" y="-10"/>
      <point x="383" y="22"/>
      <point x="427" y="76" type="curve"/>
      <point x="486" y="0" type="line"/>
      <point x="648" y="0" type="line"/>
      <point x="648" y="10" type="line"/>
      <point x="644" y="10" type="line" smooth="yes"/>
      <point x="628" y="10"/>
      <point x="618" y="15"/>
      <point x="575" y="69" type="curve" smooth="yes"/>
      <point x="489" y="178" type="line"/>
      <point x="504" y="218"/>
      <point x="512" y="255"/>
      <point x="525" y="320" type="curve" smooth="yes"/>
      <point x="540" y="392"/>
      <point x="549" y="415"/>
      <point x="613" y="415" type="curve" smooth="yes"/>
      <point x="625" y="415" type="line"/>
      <point x="625" y="425" type="line"/>
      <point x="449" y="425" type="line"/>
      <point x="449" y="377" type="line" smooth="yes"/>
      <point x="449" y="329"/>
      <point x="445" y="283"/>
      <point x="438" y="242" type="curve"/>
      <point x="303" y="417" type="line"/>
      <point x="413" y="453"/>
      <point x="441" y="523"/>
      <point x="441" y="586" type="curve" smooth="yes"/>
      <point x="441" y="665"/>
      <point x="390" y="724"/>
      <point x="285" y="724" type="curve" smooth="yes"/>
      <point x="177" y="724"/>
      <point x="117" y="665"/>
      <point x="117" y="566" type="curve" smooth="yes"/>
      <point x="117" y="503"/>
      <point x="139" y="451"/>
      <point x="192" y="383" type="curve"/>
      <point x="75" y="348"/>
      <point x="35" y="281"/>
      <point x="35" y="191" type="curve" smooth="yes"/>
      <point x="35" y="65"/>
      <point x="114" y="-10"/>
    </contour>
    <contour>
      <point x="275" y="5" type="curve" smooth="yes"/>
      <point x="206" y="5"/>
      <point x="152" y="47"/>
      <point x="152" y="199" type="curve" smooth="yes"/>
      <point x="152" y="285"/>
      <point x="175" y="343"/>
      <point x="199" y="373" type="curve"/>
      <point x="407" y="104" type="line"/>
      <point x="376" y="35"/>
      <point x="332" y="5"/>
    </contour>
    <contour>
      <point x="297" y="425" type="curve"/>
      <point x="239" y="500"/>
      <point x="216" y="548"/>
      <point x="216" y="611" type="curve" smooth="yes"/>
      <point x="216" y="675"/>
      <point x="239" y="714"/>
      <point x="287" y="714" type="curve" smooth="yes"/>
      <point x="336" y="714"/>
      <point x="360" y="670"/>
      <point x="360" y="587" type="curve" smooth="yes"/>
      <point x="360" y="493"/>
      <point x="329" y="447"/>
    </contour>
  </outline>
</glyph>
<glyph name="parenleft" format="2">
  <advance width="304"/>
  <unicode hex="0028"/>
  <outline>
    <contour>
      <point x="43" y="281" type="curve" smooth="yes"/>
      <point x="43" y="102"/>
      <point x="94" y="-43"/>
      <point x="174" y="-158" type="curve"/>
      <point x="293" y="-158" type="line"/>
      <point x="214" y="-24"/>
      <point x="169" y="119"/>
      <point x="169" y="282" type="curve" smooth="yes"/>
      <point x="169" y="450"/>
      <point x="210" y="598"/>
      <point x="294" y="728" type="curve"/>
      <point x="174" y="728" type="line"/>
      <point x="97" y="615"/>
      <point x="43" y="462"/>
    </contour>
  </outline>
</glyph>
<glyph name="parenleft.serif" format="2">
  <advance width="331"/>
  <unicode hex="0028"/>
  <outline>
    <contour>
      <point x="306" y="-135" type="curve"/>
      <point x="306" y="-125" type="line"/>
      <point x="216" y="-56"/>
      <point x="181" y="95"/>
      <point x="181" y="317" type="curve" smooth="yes"/>
      <point x="181" y="538"/>
      <point x="216" y="687"/>
      <point x="306" y="758" type="curve"/>
      <point x="306" y="768" type="line"/>
      <point x="124" y="687"/>
      <point x="46" y="536"/>
      <point x="46" y="317" type="curve" smooth="yes"/>
      <point x="46" y="97"/>
      <point x="124" y="-54"/>
    </contour>
  </outline>
</glyph>
<glyph name="parenright" format="2">
  <advance width="305"/>
  <unicode hex="0029"/>
  <outline>
    <contour>
      <point x="262" y="281" type="curve" smooth="yes"/>
      <point x="262" y="461"/>
      <point x="208" y="615"/>
      <point x="129" y="728" type="curve"/>
      <point x="11" y="728" type="line"/>
      <point x="94" y="598"/>
      <point x="135" y="451"/>
      <point x="135" y="282" type="curve" smooth="yes"/>
      <point x="135" y="119"/>
      <point x="90" y="-23"/>
      <point x="11" y="-158" type="curve"/>
      <point x="129" y="-158" type="line"/>
      <point x="211" y="-44"/>
      <point x="262" y="103"/>
    </contour>
  </outline>
</glyph>
<glyph name="parenright.serif" format="2">
  <advance width="331"/>
  <unicode hex="0029"/>
  <outline>
    <contour>
      <point x="25" y="-125" type="curve"/>
      <point x="25" y="-135" type="line"/>
      <point x="206" y="-54"/>
      <point x="285" y="97"/>
      <point x="285" y="317" type="curve" smooth="yes"/>
      <point x="285" y="536"/>
      <point x="206" y="687"/>
      <point x="25" y="768" type="curve"/>
      <point x="25" y="758" type="line"/>
      <point x="115" y="687"/>
      <point x="150" y="538"/>
      <point x="150" y="317" type="curve" smooth="yes"/>
      <point x="150" y="95"/>
      <point x="115" y="-56"/>
    </contour>
  </outline>
</glyph>
<glyph name="asterisk" format="2">
  <advance width="436"/>
  <unicode hex="002A"/>
  <outline>
    <contour>
      <point x="279" y="762" type="line"/>
      <point x="157" y="762" type="line"/>
      <point x="173" y="620" type="line"/>
      <point x="46" y="667" type="line"/>
      <point x="19" y="551" type="line"/>
      <point x="146" y="537" type="line"/>
      <point x="52" y="427" type="line"/>
      <point x="151" y="358" type="line"/>
      <point x="217" y="487" type="line"/>
      <point x="283" y="359" type="line"/>
      <point x="383" y="427" type="line"/>
      <point x="288" y="537" type="line"/>
      <point x="416" y="552" type="line"/>
      <point x="388" y="667" type="line"/>
      <point x="262" y="620" type="line"/>
    </contour>
  </outline>
</glyph>
<glyph name="asterisk.serif" format="2">
  <advance width="400"/>
  <unicode hex="002A"/>
  <outline>
    <contour>
      <point x="158" y="368" type="line"/>
      <point x="246" y="368" type="line"/>
      <point x="209" y="550" type="line"/>
      <point x="338" y="437" type="line"/>
      <point x="375" y="521" type="line"/>
      <point x="215" y="564" type="line"/>
      <point x="375" y="607" type="line"/>
      <point x="338" y="692" type="line"/>
      <point x="209" y="578" type="line"/>
      <point x="247" y="760" type="line"/>
      <point x="158" y="760" type="line"/>
      <point x="194" y="579" type="line"/>
      <point x="65" y="694" type="line"/>
      <point x="28" y="608" type="line"/>
      <point x="187" y="564" type="line"/>
      <point x="28" y="520" type="line"/>
      <point x="65" y="435" type="line"/>
      <point x="194" y="550" type="line"/>
    </contour>
  </outline>
</glyph>
<glyph name="plus" format="2">
  <advance width="462"/>
  <unicode hex="002B"/>
  <outline>
    <contour>
      <point x="286" y="406" type="line"/>
      <point x="286" y="594" type="line"/>
      <point x="177" y="594" type="line"/>
      <point x="177" y="406" type="line"/>
      <point x="32" y="406" type="line"/>
      <point x="32" y="300" type="line"/>
      <point x="177" y="300" type="line"/>
      <point x="177" y="114" type="line"/>
      <point x="286" y="114" type="line"/>
      <point x="286" y="300" type="line"/>
      <point x="430" y="300" type="line"/>
      <point x="430" y="406" type="line"/>
    </contour>
  </outline>
</glyph>
<glyph name="comma" format="2">
  <advance width="251"/>
  <unicode hex="002C"/>
  <outline>
    <contour>
      <point x="205" y="122" type="curve"/>
      <point x="200" y="133" type="line"/>
      <point x="70" y="133" type="line"/>
      <point x="66" y="60"/>
      <point x="48" y="-58"/>
      <point x="32" y="-136" type="curve"/>
      <point x="139" y="-136" type="line"/>
      <point x="168" y="-63"/>
      <point x="189" y="22"/>
    </contour>
  </outline>
</glyph>
<glyph name="comma.serif" format="2">
  <advance width="244"/>
  <unicode hex="002C"/>
  <outline>
    <contour>
      <point x="40" y="-145" type="curve"/>
      <point x="40" y="-156" type="line"/>
      <point x="145" y="-122"/>
      <point x="184" y="-48"/>
      <point x="184" y="30" type="curve" smooth="yes"/>
      <point x="184" y="97"/>
      <point x="155" y="136"/>
      <point x="110" y="136" type="curve" smooth="yes"/>
      <point x="77" y="136"/>
      <point x="52" y="117"/>
      <point x="52" y="71" type="curve" smooth="yes"/>
      <point x="52" y="-12"/>
      <point x="134" y="14"/>
      <point x="134" y="-49" type="curve" smooth="yes"/>
      <point x="134" y="-100"/>
      <point x="80" y="-132"/>
    </contour>
  </outline>
</glyph>
<glyph name="hyphen" format="2">
  <advance width="298"/>
  <unicode hex="002D"/>
  <outline>
    <contour>
      <point x="27" y="206" type="line"/>
      <point x="271" y="206" type="line"/>
      <point x="271" y="331" type="line"/>
      <point x="27" y="331" type="line"/>
    </contour>
  </outline>
</glyph>
<glyph name="period" format="2">
  <advance width="251"/>
  <unicode hex="002E"/>
  <outline>
    <contour>
      <point x="49" y="71" type="curve" smooth="yes"/>
      <point x="49" y="18"/>
      <point x="79" y="-11"/>
      <point x="127" y="-11" type="curve" smooth="yes"/>
      <point x="174" y="-11"/>
      <point x="203" y="18"/>
      <point x="203" y="71" type="curve" smooth="yes"/>
      <point x="203" y="125"/>
      <point x="175" y="153"/>
      <point x="127" y="153" type="curve" smooth="yes"/>
      <point x="76" y="153"/>
      <point x="49" y="124"/>
    </contour>
  </outline>
</glyph>
<glyph name="period.serif" format="2">
  <advance width="244"/>
  <unicode hex="002E"/>
  <outline>
    <contour>
      <point x="120" y="-8" type="curve" smooth="yes"/>
      <point x="151" y="-8"/>
      <point x="177" y="11"/>
      <point x="177" y="64" type="curve" smooth="yes"/>
      <point x="177" y="118"/>
      <point x="151" y="135"/>
      <point x="120" y="135" type="curve" smooth="yes"/>
      <point x="87" y="135"/>
      <point x="63" y="118"/>
      <point x="63" y="64" type="curve" smooth="yes"/>
      <point x="63" y="11"/>
      <point x="87" y="-8"/>
    </contour>
  </outline>
</glyph>
<glyph name="slash" format="2">
  <advance width="395"/>
  <unicode hex="002F"/>
  <outline>
    <contour>
      <point x="389" y="721" type="line"/>
      <point x="274" y="721" type="line"/>
      <point x="8" y="-7" type="line"/>
      <point x="124" y="-7" type="line"/>
    </contour>
  </outline>
</glyph>
<glyph name="zero" format="2">
  <advance width="459"/>
  <unicode hex="0030"/>
  <outline>
    <contour>
      <point x="423" y="357" type="curve" smooth="yes"/>
      <point x="423" y="601"/>
      <point x="358" y="724"/>
      <point x="229" y="724" type="curve" smooth="yes"/>
      <point x="99" y="724"/>
      <point x="36" y="608"/>
      <point x="36" y="357" type="curve" smooth="yes"/>
      <point x="36" y="97"/>
      <point x="102" y="-10"/>
      <point x="229" y="-10" type="curve" smooth="yes"/>
      <point x="379" y="-10"/>
      <point x="423" y="141"/>
    </contour>
    <contour>
      <point x="172" y="357" type="curve" smooth="yes"/>
      <point x="172" y="523"/>
      <point x="185" y="605"/>
      <point x="229" y="605" type="curve" smooth="yes"/>
      <point x="275" y="605"/>
      <point x="287" y="522"/>
      <point x="287" y="357" type="curve" smooth="yes"/>
      <point x="287" y="187"/>
      <point x="275" y="109"/>
      <point x="229" y="109" type="curve" smooth="yes"/>
      <point x="184" y="109"/>
      <point x="172" y="187"/>
    </contour>
  </outline>
</glyph>
<glyph name="zero.serif" format="2">
  <advance width="456"/>
  <unicode hex="0030"/>
  <outline>
    <contour>
      <point x="228" y="-10" type="curve" smooth="yes"/>
      <point x="373" y="-10"/>
      <point x="428" y="126"/>
      <point x="428" y="358" type="curve" smooth="yes"/>
      <point x="428" y="588"/>
      <point x="374" y="724"/>
      <point x="229" y="724" type="curve" smooth="yes"/>
      <point x="75" y="724"/>
      <point x="26" y="584"/>
      <point x="26" y="359" type="curve" smooth="yes"/>
      <point x="26" y="128"/>
      <point x="76" y="-10"/>
    </contour>
    <contour>
      <point x="228" y="0" type="curve" smooth="yes"/>
      <point x="174" y="0"/>
      <point x="155" y="66"/>
      <point x="155" y="358" type="curve" smooth="yes"/>
      <point x="155" y="650"/>
      <point x="174" y="714"/>
      <point x="229" y="714" type="curve" smooth="yes"/>
      <point x="281" y="714"/>
      <point x="300" y="650"/>
      <point x="300" y="358" type="curve" smooth="yes"/>
      <point x="300" y="66"/>
      <point x="281" y="0"/>
    </contour>
  </outline>
</glyph>
<glyph name="one" format="2">
  <advance width="459"/>
  <unicode hex="0031"/>
  <outline>
    <contour>
      <point x="353" y="0" type="line"/>
      <point x="353" y="714" type="line"/>
      <point x="233" y="714" type="line"/>
      <point x="44" y="514" type="line"/>
      <point x="125" y="435" type="line"/>
      <point x="184" y="499" type="line" smooth="yes"/>
      <point x="201" y="518"/>
      <point x="212" y="533"/>
      <point x="221" y="546" type="curve"/>
      <point x="219" y="505"/>
      <point x="218" y="462"/>
      <point x="218" y="417" type="curve" smooth="yes"/>
      <point x="218" y="0" type="line"/>
    </contour>
  </outline>
</glyph>
<glyph name="one.serif" format="2">
  <advance width="456"/>
  <unicode hex="0031"/>
  <outline>
    <contour>
      <point x="71" y="0" type="line"/>
      <point x="410" y="0" type="line"/>
      <point x="410" y="10" type="line"/>
      <point x="357" y="10" type="line" smooth="yes"/>
      <point x="316" y="10"/>
      <point x="308" y="30"/>
      <point x="308" y="80" type="curve" smooth="yes"/>
      <point x="308" y="718" type="line"/>
      <point x="240" y="718" type="line"/>
      <point x="209" y="682" type="line" smooth="yes"/>
      <point x="143" y="605"/>
      <point x="110" y="587"/>
      <point x="32" y="582" type="curve"/>
      <point x="32" y="546"/>
      <point x="52" y="529"/>
      <point x="78" y="529" type="curve" smooth="yes"/>
      <point x="110" y="529"/>
      <point x="135" y="558"/>
      <point x="185" y="638" type="curve"/>
      <point x="185" y="80" type="line" smooth="yes"/>
      <point x="185" y="24"/>
      <point x="173" y="10"/>
      <point x="138" y="10" type="curve" smooth="yes"/>
      <point x="71" y="10" type="line"/>
    </contour>
  </outline>
</glyph>
<glyph name="two" format="2">
  <advance width="459"/>
  <unicode hex="0032"/>
  <outline>
    <contour>
      <point x="409" y="0" type="line"/>
      <point x="409" y="118" type="line"/>
      <point x="189" y="118" type="line"/>
      <point x="189" y="123" type="line"/>
      <point x="279" y="248" type="line" smooth="yes"/>
      <point x="366" y="369"/>
      <point x="398" y="437"/>
      <point x="398" y="532" type="curve" smooth="yes"/>
      <point x="398" y="647"/>
      <point x="322" y="724"/>
      <point x="212" y="724" type="curve" smooth="yes"/>
      <point x="137" y="724"/>
      <point x="83" y="698"/>
      <point x="25" y="628" type="curve"/>
      <point x="91" y="539" type="line"/>
      <point x="131" y="589"/>
      <point x="161" y="606"/>
      <point x="196" y="606" type="curve" smooth="yes"/>
      <point x="240" y="606"/>
      <point x="263" y="574"/>
      <point x="263" y="524" type="curve" smooth="yes"/>
      <point x="263" y="459"/>
      <point x="245" y="410"/>
      <point x="160" y="288" type="curve" smooth="yes"/>
      <point x="28" y="97" type="line"/>
      <point x="28" y="0" type="line"/>
    </contour>
  </outline>
</glyph>
<glyph name="two.serif" format="2">
  <advance width="456"/>
  <unicode hex="0032"/>
  <outline>
    <contour>
      <point x="29" y="0" type="line"/>
      <point x="417" y="0" type="line"/>
      <point x="424" y="198" type="line"/>
      <point x="414" y="198" type="line"/>
      <point x="411" y="163" type="line" smooth="yes"/>
      <point x="408" y="112"/>
      <point x="391" y="96"/>
      <point x="345" y="96" type="curve" smooth="yes"/>
      <point x="53" y="96" type="line"/>
      <point x="174" y="214" type="line" smooth="yes"/>
      <point x="368" y="402"/>
      <point x="405" y="462"/>
      <point x="405" y="552" type="curve" smooth="yes"/>
      <point x="405" y="654"/>
      <point x="342" y="724"/>
      <point x="214" y="724" type="curve" smooth="yes"/>
      <point x="92" y="724"/>
      <point x="35" y="651"/>
      <point x="35" y="587" type="curve" smooth="yes"/>
      <point x="35" y="524"/>
      <point x="84" y="506"/>
      <point x="137" y="506" type="curve"/>
      <point x="137" y="659"/>
      <point x="154" y="714"/>
      <point x="210" y="714" type="curve" smooth="yes"/>
      <point x="262" y="714"/>
      <point x="280" y="667"/>
      <point x="280" y="550" type="curve" smooth="yes"/>
      <point x="280" y="453"/>
      <point x="269" y="369"/>
      <point x="154" y="233" type="curve" smooth="yes"/>
      <point x="29" y="83" type="line"/>
    </contour>
  </outline>
</glyph>
<glyph name="three" format="2">
  <advance width="459"/>
  <unicode hex="0033"/>
  <outline>
    <contour>
      <point x="403" y="543" type="curve" smooth="yes"/>
      <point x="403" y="660"/>
      <point x="333" y="724"/>
      <point x="221" y="724" type="curve" smooth="yes"/>
      <point x="145" y="724"/>
      <point x="90" y="706"/>
      <point x="32" y="658" type="curve"/>
      <point x="85" y="560" type="line"/>
      <point x="123" y="592"/>
      <point x="157" y="608"/>
      <point x="194" y="608" type="curve" smooth="yes"/>
      <point x="244" y="608"/>
      <point x="270" y="580"/>
      <point x="270" y="528" type="curve" smooth="yes"/>
      <point x="270" y="462"/>
      <point x="228" y="423"/>
      <point x="148" y="423" type="curve" smooth="yes"/>
      <point x="112" y="423" type="line"/>
      <point x="112" y="310" type="line"/>
      <point x="147" y="310" type="line" smooth="yes"/>
      <point x="237" y="310"/>
      <point x="275" y="278"/>
      <point x="275" y="207" type="curve" smooth="yes"/>
      <point x="275" y="143"/>
      <point x="243" y="106"/>
      <point x="173" y="106" type="curve" smooth="yes"/>
      <point x="130" y="106"/>
      <point x="80" y="121"/>
      <point x="32" y="150" type="curve"/>
      <point x="32" y="24" type="line"/>
      <point x="88" y="-2"/>
      <point x="133" y="-10"/>
      <point x="194" y="-10" type="curve" smooth="yes"/>
      <point x="333" y="-10"/>
      <point x="417" y="72"/>
      <point x="417" y="201" type="curve" smooth="yes"/>
      <point x="417" y="294"/>
      <point x="372" y="353"/>
      <point x="285" y="372" type="curve"/>
      <point x="285" y="375" type="line"/>
      <point x="362" y="404"/>
      <point x="403" y="466"/>
    </contour>
  </outline>
</glyph>
<glyph name="three.serif" format="2">
  <advance width="456"/>
  <unicode hex="0033"/>
  <outline>
    <contour>
      <point x="202" y="-10" type="curve"/>
      <point x="316" y="-10"/>
      <point x="425" y="44"/>
      <point x="425" y="191" type="curve" smooth="yes"/>
      <point x="425" y="316"/>
      <point x="347" y="370"/>
      <point x="223" y="373" type="curve"/>
      <point x="356" y="389"/>
      <point x="404" y="471"/>
      <point x="404" y="558" type="curve" smooth="yes"/>
      <point x="404" y="665"/>
      <point x="333" y="724"/>
      <point x="217" y="724" type="curve" smooth="yes"/>
      <point x="99" y="724"/>
      <point x="36" y="667"/>
      <point x="36" y="597" type="curve" smooth="yes"/>
      <point x="36" y="542"/>
      <point x="72" y="519"/>
      <point x="135" y="519" type="curve"/>
      <point x="135" y="662"/>
      <point x="154" y="714"/>
      <point x="209" y="714" type="curve" smooth="yes"/>
      <point x="261" y="714"/>
      <point x="278" y="671"/>
      <point x="278" y="553" type="curve" smooth="yes"/>
      <point x="278" y="423"/>
      <point x="245" y="375"/>
      <point x="170" y="375" type="curve"/>
      <point x="123" y="375" type="line"/>
      <point x="123" y="365" type="line"/>
      <point x="171" y="365" type="line" smooth="yes"/>
      <point x="264" y="365"/>
      <point x="298" y="318"/>
      <point x="298" y="191" type="curve" smooth="yes"/>
      <point x="298" y="54"/>
      <point x="264" y="0"/>
      <point x="193" y="0" type="curve" smooth="yes"/>
      <point x="122" y="0"/>
      <point x="96" y="55"/>
      <point x="96" y="175" type="curve"/>
      <point x="55" y="175"/>
      <point x="26" y="152"/>
      <point x="26" y="107" type="curve" smooth="yes"/>
      <point x="26" y="46"/>
      <point x="81" y="-10"/>
    </contour>
  </outline>
</glyph>
<glyph name="four" format="2">
  <advance width="459"/>
  <unicode hex="0034"/>
  <outline>
    <contour>
      <point x="447" y="145" type="line"/>
      <point x="447" y="256" type="line"/>
      <point x="377" y="256" type="line"/>
      <point x="377" y="716" type="line"/>
      <point x="244" y="716" type="line"/>
      <point x="16" y="253" type="line"/>
      <point x="16" y="145" type="line"/>
      <point x="244" y="145" type="line"/>
      <point x="244" y="0" type="line"/>
      <point x="377" y="0" type="line"/>
      <point x="377" y="145" type="line"/>
    </contour>
    <contour>
      <point x="244" y="421" type="curve" smooth="yes"/>
      <point x="244" y="256" type="line"/>
      <point x="125" y="256" type="line"/>
      <point x="213" y="452" type="line" smooth="yes"/>
      <point x="223" y="475"/>
      <point x="234" y="500"/>
      <point x="243" y="529" type="curve"/>
      <point x="246" y="529" type="line"/>
      <point x="245" y="516"/>
      <point x="244" y="441"/>
    </contour>
  </outline>
</glyph>
<glyph name="four.serif" format="2">
  <advance width="456"/>
  <unicode hex="0034"/>
  <outline>
    <contour>
      <point x="144.007" y="0" type="line"/>
      <point x="435" y="0" type="line"/>
      <point x="435" y="10" type="line"/>
      <point x="430" y="10" type="line" smooth="yes"/>
      <point x="386" y="10"/>
      <point x="357" y="19"/>
      <point x="357" y="84" type="curve" smooth="yes"/>
      <point x="357" y="191" type="line"/>
      <point x="439" y="191" type="line"/>
      <point x="439" y="247" type="line"/>
      <point x="357" y="247" type="line"/>
      <point x="357" y="714" type="line"/>
      <point x="240" y="714" type="line"/>
      <point x="11" y="241" type="line"/>
      <point x="11" y="191" type="line"/>
      <point x="235" y="191" type="line"/>
      <point x="235" y="84" type="line" smooth="yes"/>
      <point x="235" y="19"/>
      <point x="205" y="10"/>
      <point x="158" y="10" type="curve" smooth="yes"/>
      <point x="144.007" y="10" type="line"/>
    </contour>
    <contour>
      <point x="25" y="247" type="line"/>
      <point x="167" y="541" type="line" smooth="yes"/>
      <point x="185" y="577"/>
      <point x="222" y="655"/>
      <point x="237" y="688" type="curve"/>
      <point x="235" y="630"/>
      <point x="235" y="546"/>
      <point x="235" y="466" type="curve" smooth="yes"/>
      <point x="235" y="247" type="line"/>
    </contour>
  </outline>
</glyph>
<glyph name="five" format="2">
  <advance width="459"/>
  <unicode hex="0035"/>
  <outline>
    <contour>
      <point x="249" y="457" type="curve" smooth="yes"/>
      <point x="231" y="457"/>
      <point x="209" y="455"/>
      <point x="181" y="448" type="curve"/>
      <point x="190" y="595" type="line"/>
      <point x="381" y="595" type="line"/>
      <point x="381" y="714" type="line"/>
      <point x="76" y="714" type="line"/>
      <point x="56" y="360" type="line"/>
      <point x="101" y="326" type="line"/>
      <point x="129" y="337"/>
      <point x="155" y="343"/>
      <point x="180" y="343" type="curve" smooth="yes"/>
      <point x="245" y="343"/>
      <point x="279" y="303"/>
      <point x="279" y="230" type="curve" smooth="yes"/>
      <point x="279" y="156"/>
      <point x="246" y="106"/>
      <point x="183" y="106" type="curve" smooth="yes"/>
      <point x="139" y="106"/>
      <point x="89" y="124"/>
      <point x="48" y="149" type="curve"/>
      <point x="48" y="24" type="line"/>
      <point x="87" y="1"/>
      <point x="135" y="-10"/>
      <point x="192" y="-10" type="curve" smooth="yes"/>
      <point x="342" y="-10"/>
      <point x="417" y="81"/>
      <point x="417" y="235" type="curve" smooth="yes"/>
      <point x="417" y="366"/>
      <point x="348" y="457"/>
    </contour>
  </outline>
</glyph>
<glyph name="five.serif" format="2">
  <advance width="456"/>
  <unicode hex="0035"/>
  <outline>
    <contour>
      <point x="197" y="-10" type="curve" smooth="yes"/>
      <point x="312" y="-10"/>
      <point x="414" y="51"/>
      <point x="414" y="217" type="curve" smooth="yes"/>
      <point x="414" y="354"/>
      <point x="335" y="431"/>
      <point x="211" y="431" type="curve" smooth="yes"/>
      <point x="150" y="431"/>
      <point x="104" y="410"/>
      <point x="75" y="372" type="curve"/>
      <point x="94" y="618" type="line"/>
      <point x="319" y="618" type="line" smooth="yes"/>
      <point x="363" y="618"/>
      <point x="376" y="606"/>
      <point x="378" y="560" type="curve" smooth="yes"/>
      <point x="379" y="544" type="line"/>
      <point x="389" y="544" type="line"/>
      <point x="383" y="714" type="line"/>
      <point x="91" y="714" type="line"/>
      <point x="62" y="359" type="line"/>
      <point x="73" y="355" type="line"/>
      <point x="101" y="392"/>
      <point x="139" y="415"/>
      <point x="178" y="415" type="curve" smooth="yes"/>
      <point x="254" y="415"/>
      <point x="288" y="359"/>
      <point x="288" y="217" type="curve" smooth="yes"/>
      <point x="288" y="62"/>
      <point x="257" y="0"/>
      <point x="188" y="0" type="curve" smooth="yes"/>
      <point x="122" y="0"/>
      <point x="96" y="68"/>
      <point x="96" y="174" type="curve"/>
      <point x="60" y="174"/>
      <point x="31" y="153"/>
      <point x="31" y="106" type="curve" smooth="yes"/>
      <point x="31" y="51"/>
      <point x="82" y="-10"/>
    </contour>
  </outline>
</glyph>
<glyph name="six" format="2">
  <advance width="459"/>
  <unicode hex="0036"/>
  <outline>
    <contour>
      <point x="35" y="303" type="curve" smooth="yes"/>
      <point x="35" y="105"/>
      <point x="110" y="-10"/>
      <point x="236" y="-10" type="curve" smooth="yes"/>
      <point x="358" y="-10"/>
      <point x="426" y="90"/>
      <point x="426" y="237" type="curve" smooth="yes"/>
      <point x="426" y="375"/>
      <point x="371" y="467"/>
      <point x="274" y="467" type="curve" smooth="yes"/>
      <point x="224" y="467"/>
      <point x="187" y="438"/>
      <point x="165" y="385" type="curve"/>
      <point x="161" y="385" type="line"/>
      <point x="166" y="539"/>
      <point x="215" y="610"/>
      <point x="313" y="610" type="curve" smooth="yes"/>
      <point x="341" y="610"/>
      <point x="368" y="606"/>
      <point x="392" y="600" type="curve"/>
      <point x="392" y="715" type="line"/>
      <point x="363" y="721"/>
      <point x="333" y="724"/>
      <point x="302" y="724" type="curve" smooth="yes"/>
      <point x="93" y="724"/>
      <point x="35" y="537"/>
    </contour>
    <contour>
      <point x="233" y="107" type="curve" smooth="yes"/>
      <point x="192" y="107"/>
      <point x="172" y="180"/>
      <point x="172" y="253" type="curve" smooth="yes"/>
      <point x="172" y="307"/>
      <point x="195" y="352"/>
      <point x="234" y="352" type="curve" smooth="yes"/>
      <point x="273" y="352"/>
      <point x="292" y="312"/>
      <point x="292" y="234" type="curve" smooth="yes"/>
      <point x="292" y="148"/>
      <point x="269" y="107"/>
    </contour>
  </outline>
</glyph>
<glyph name="six.serif" format="2">
  <advance width="456"/>
  <unicode hex="0036"/>
  <outline>
    <contour>
      <point x="239" y="-10" type="curve" smooth="yes"/>
      <point x="359" y="-10"/>
      <point x="429" y="77"/>
      <point x="429" y="226" type="curve" smooth="yes"/>
      <point x="429" y="360"/>
      <point x="364" y="436"/>
      <point x="262" y="436" type="curve" smooth="yes"/>
      <point x="215" y="436"/>
      <point x="175" y="407"/>
      <point x="153" y="379" type="curve"/>
      <point x="155" y="628"/>
      <point x="186" y="713"/>
      <point x="257" y="713" type="curve" smooth="yes"/>
      <point x="304" y="713"/>
      <point x="320" y="667"/>
      <point x="320" y="544" type="curve"/>
      <point x="381" y="544"/>
      <point x="413" y="573"/>
      <point x="413" y="615" type="curve" smooth="yes"/>
      <point x="413" y="669"/>
      <point x="367" y="724"/>
      <point x="271" y="724" type="curve" smooth="yes"/>
      <point x="108" y="724"/>
      <point x="35" y="572"/>
      <point x="35" y="335" type="curve" smooth="yes"/>
      <point x="35" y="96"/>
      <point x="115" y="-10"/>
    </contour>
    <contour>
      <point x="242" y="0" type="curve" smooth="yes"/>
      <point x="178" y="0"/>
      <point x="154" y="92"/>
      <point x="153" y="363" type="curve"/>
      <point x="174" y="393"/>
      <point x="202" y="417"/>
      <point x="236" y="417" type="curve" smooth="yes"/>
      <point x="290" y="417"/>
      <point x="310" y="367"/>
      <point x="310" y="220" type="curve" smooth="yes"/>
      <point x="310" y="55"/>
      <point x="289" y="0"/>
    </contour>
  </outline>
</glyph>
<glyph name="seven" format="2">
  <advance width="459"/>
  <unicode hex="0037"/>
  <outline>
    <contour>
      <point x="84" y="0" type="line"/>
      <point x="227" y="0" type="line"/>
      <point x="423" y="621" type="line"/>
      <point x="423" y="714" type="line"/>
      <point x="33" y="714" type="line"/>
      <point x="33" y="595" type="line"/>
      <point x="286" y="595" type="line"/>
    </contour>
  </outline>
</glyph>
<glyph name="seven.serif" format="2">
  <advance width="456"/>
  <unicode hex="0037"/>
  <outline>
    <contour>
      <point x="125" y="0" type="line"/>
      <point x="202" y="0" type="line"/>
      <point x="421" y="667" type="line"/>
      <point x="421" y="714" type="line"/>
      <point x="43" y="714" type="line"/>
      <point x="37" y="514" type="line"/>
      <point x="47" y="514" type="line"/>
      <point x="49" y="544" type="line" smooth="yes"/>
      <point x="55" y="603"/>
      <point x="71" y="618"/>
      <point x="121" y="618" type="curve" smooth="yes"/>
      <point x="394" y="618" type="line"/>
    </contour>
  </outline>
</glyph>
<glyph name="eight" format="2">
  <advance width="459"/>
  <unicode hex="0038"/>
  <outline>
    <contour>
      <point x="230" y="724" type="curve" smooth="yes"/>
      <point x="117" y="724"/>
      <point x="47" y="660"/>
      <point x="47" y="553" type="curve" smooth="yes"/>
      <point x="47" y="483"/>
      <point x="75" y="424"/>
      <point x="137" y="373" type="curve"/>
      <point x="63" y="324"/>
      <point x="30" y="262"/>
      <point x="30" y="183" type="curve" smooth="yes"/>
      <point x="30" y="62"/>
      <point x="101" y="-10"/>
      <point x="230" y="-10" type="curve" smooth="yes"/>
      <point x="353" y="-10"/>
      <point x="428" y="65"/>
      <point x="428" y="186" type="curve" smooth="yes"/>
      <point x="428" y="263"/>
      <point x="392" y="318"/>
      <point x="312" y="375" type="curve"/>
      <point x="381" y="418"/>
      <point x="411" y="476"/>
      <point x="411" y="553" type="curve" smooth="yes"/>
      <point x="411" y="660"/>
      <point x="346" y="724"/>
    </contour>
    <contour>
      <point x="159" y="185" type="curve" smooth="yes"/>
      <point x="159" y="235"/>
      <point x="177" y="271"/>
      <point x="225" y="308" type="curve"/>
      <point x="238" y="297" type="line" smooth="yes"/>
      <point x="285" y="257"/>
      <point x="299" y="223"/>
      <point x="299" y="185" type="curve" smooth="yes"/>
      <point x="299" y="131"/>
      <point x="276" y="98"/>
      <point x="228" y="98" type="curve" smooth="yes"/>
      <point x="183" y="98"/>
      <point x="159" y="133"/>
    </contour>
    <contour>
      <point x="230" y="616" type="curve" smooth="yes"/>
      <point x="262" y="616"/>
      <point x="285" y="588"/>
      <point x="285" y="543" type="curve" smooth="yes"/>
      <point x="285" y="503"/>
      <point x="271" y="474"/>
      <point x="229" y="441" type="curve"/>
      <point x="193" y="470"/>
      <point x="176" y="501"/>
      <point x="176" y="543" type="curve" smooth="yes"/>
      <point x="176" y="588"/>
      <point x="197" y="616"/>
    </contour>
  </outline>
</glyph>
<glyph name="eight.serif" format="2">
  <advance width="456"/>
  <unicode hex="0038"/>
  <outline>
    <contour>
      <point x="226" y="-10" type="curve" smooth="yes"/>
      <point x="356" y="-10"/>
      <point x="433" y="61"/>
      <point x="433" y="184" type="curve" smooth="yes"/>
      <point x="433" y="304"/>
      <point x="361" y="354"/>
      <point x="281" y="405" type="curve"/>
      <point x="367" y="433"/>
      <point x="408" y="479"/>
      <point x="408" y="558" type="curve" smooth="yes"/>
      <point x="408" y="650"/>
      <point x="352" y="724"/>
      <point x="230" y="724" type="curve" smooth="yes"/>
      <point x="98" y="724"/>
      <point x="44" y="638"/>
      <point x="44" y="542" type="curve" smooth="yes"/>
      <point x="44" y="450"/>
      <point x="98" y="398"/>
      <point x="167" y="354" type="curve"/>
      <point x="66" y="320"/>
      <point x="24" y="261"/>
      <point x="24" y="176" type="curve" smooth="yes"/>
      <point x="24" y="67"/>
      <point x="91" y="-10"/>
    </contour>
    <contour>
      <point x="232" y="0" type="curve" smooth="yes"/>
      <point x="157" y="0"/>
      <point x="128" y="57"/>
      <point x="128" y="172" type="curve" smooth="yes"/>
      <point x="128" y="252"/>
      <point x="144" y="313"/>
      <point x="181" y="345" type="curve"/>
      <point x="264" y="293"/>
      <point x="332" y="240"/>
      <point x="332" y="126" type="curve" smooth="yes"/>
      <point x="332" y="42"/>
      <point x="296" y="0"/>
    </contour>
    <contour>
      <point x="270" y="412" type="curve"/>
      <point x="197" y="458"/>
      <point x="145" y="504"/>
      <point x="145" y="599" type="curve" smooth="yes"/>
      <point x="145" y="670"/>
      <point x="173" y="714"/>
      <point x="228" y="714" type="curve" smooth="yes"/>
      <point x="288" y="714"/>
      <point x="310" y="661"/>
      <point x="310" y="564" type="curve" smooth="yes"/>
      <point x="310" y="506"/>
      <point x="303" y="445"/>
    </contour>
  </outline>
</glyph>
<glyph name="nine" format="2">
  <advance width="459"/>
  <unicode hex="0039"/>
  <outline>
    <contour>
      <point x="423" y="415" type="curve" smooth="yes"/>
      <point x="423" y="610"/>
      <point x="349" y="724"/>
      <point x="223" y="724" type="curve" smooth="yes"/>
      <point x="100" y="724"/>
      <point x="32" y="624"/>
      <point x="32" y="477" type="curve" smooth="yes"/>
      <point x="32" y="340"/>
      <point x="85" y="247"/>
      <point x="184" y="247" type="curve" smooth="yes"/>
      <point x="234" y="247"/>
      <point x="270" y="276"/>
      <point x="293" y="329" type="curve"/>
      <point x="298" y="329" type="line"/>
      <point x="293" y="191"/>
      <point x="248" y="104"/>
      <point x="144" y="104" type="curve" smooth="yes"/>
      <point x="116" y="104"/>
      <point x="89" y="108"/>
      <point x="65" y="115" type="curve"/>
      <point x="65" y="0" type="line"/>
      <point x="92" y="-6"/>
      <point x="125" y="-10"/>
      <point x="156" y="-10" type="curve" smooth="yes"/>
      <point x="355" y="-10"/>
      <point x="423" y="172"/>
    </contour>
    <contour>
      <point x="225" y="607" type="curve" smooth="yes"/>
      <point x="278" y="607"/>
      <point x="286" y="510"/>
      <point x="286" y="464" type="curve" smooth="yes"/>
      <point x="286" y="419"/>
      <point x="269" y="362"/>
      <point x="224" y="362" type="curve" smooth="yes"/>
      <point x="185" y="362"/>
      <point x="166" y="402"/>
      <point x="166" y="480" type="curve" smooth="yes"/>
      <point x="166" y="566"/>
      <point x="190" y="607"/>
    </contour>
  </outline>
</glyph>
<glyph name="nine.serif" format="2">
  <advance width="456"/>
  <unicode hex="0039"/>
  <outline>
    <contour>
      <point x="185" y="-11" type="curve" smooth="yes"/>
      <point x="348" y="-11"/>
      <point x="421" y="146"/>
      <point x="421" y="380" type="curve" smooth="yes"/>
      <point x="421" y="622"/>
      <point x="339" y="724"/>
      <point x="217" y="724" type="curve" smooth="yes"/>
      <point x="91" y="724"/>
      <point x="27" y="629"/>
      <point x="27" y="486" type="curve" smooth="yes"/>
      <point x="27" y="352"/>
      <point x="92" y="278"/>
      <point x="195" y="278" type="curve" smooth="yes"/>
      <point x="246" y="278"/>
      <point x="282" y="306"/>
      <point x="303" y="333" type="curve"/>
      <point x="299" y="91"/>
      <point x="269" y="0"/>
      <point x="194" y="0" type="curve" smooth="yes"/>
      <point x="136" y="0"/>
      <point x="114" y="45"/>
      <point x="112" y="158" type="curve"/>
      <point x="69" y="155"/>
      <point x="44" y="130"/>
      <point x="44" y="93" type="curve" smooth="yes"/>
      <point x="44" y="42"/>
      <point x="91" y="-11"/>
    </contour>
    <contour>
      <point x="220" y="297" type="curve" smooth="yes"/>
      <point x="165" y="297"/>
      <point x="145" y="346"/>
      <point x="145" y="493" type="curve" smooth="yes"/>
      <point x="145" y="654"/>
      <point x="163" y="714"/>
      <point x="213" y="714" type="curve" smooth="yes"/>
      <point x="277" y="714"/>
      <point x="303" y="619"/>
      <point x="303" y="350" type="curve"/>
      <point x="284" y="322"/>
      <point x="256" y="297"/>
    </contour>
  </outline>
</glyph>
<glyph name="colon" format="2">
  <advance width="251"/>
  <unicode hex="003A"/>
  <outline>
    <contour>
      <point x="51" y="71" type="curve" smooth="yes"/>
      <point x="51" y="18"/>
      <point x="80" y="-11"/>
      <point x="129" y="-11" type="curve" smooth="yes"/>
      <point x="175" y="-11"/>
      <point x="204" y="18"/>
      <point x="204" y="71" type="curve" smooth="yes"/>
      <point x="204" y="125"/>
      <point x="177" y="153"/>
      <point x="129" y="153" type="curve" smooth="yes"/>
      <point x="78" y="153"/>
      <point x="51" y="124"/>
    </contour>
    <contour>
      <point x="51" y="470" type="curve" smooth="yes"/>
      <point x="51" y="418"/>
      <point x="80" y="388"/>
      <point x="129" y="388" type="curve" smooth="yes"/>
      <point x="175" y="388"/>
      <point x="204" y="417"/>
      <point x="204" y="470" type="curve" smooth="yes"/>
      <point x="204" y="523"/>
      <point x="178" y="553"/>
      <point x="129" y="553" type="curve" smooth="yes"/>
      <point x="78" y="553"/>
      <point x="51" y="523"/>
    </contour>
  </outline>
</glyph>
<glyph name="colon.serif" format="2">
  <advance width="246"/>
  <unicode hex="003A"/>
  <outline>
    <contour>
      <point x="120" y="393" type="curve" smooth="yes"/>
      <point x="151" y="393"/>
      <point x="177" y="411"/>
      <point x="177" y="465" type="curve" smooth="yes"/>
      <point x="177" y="518"/>
      <point x="151" y="536"/>
      <point x="120" y="536" type="curve" smooth="yes"/>
      <point x="87" y="536"/>
      <point x="63" y="518"/>
      <point x="63" y="465" type="curve" smooth="yes"/>
      <point x="63" y="411"/>
      <point x="87" y="393"/>
    </contour>
    <contour>
      <point x="120" y="-7" type="curve" smooth="yes"/>
      <point x="151" y="-7"/>
      <point x="177" y="11"/>
      <point x="177" y="64" type="curve" smooth="yes"/>
      <point x="177" y="118"/>
      <point x="151" y="136"/>
      <point x="120" y="136" type="curve" smooth="yes"/>
      <point x="87" y="136"/>
      <point x="63" y="118"/>
      <point x="63" y="64" type="curve" smooth="yes"/>
      <point x="63" y="11"/>
      <point x="87" y="-7"/>
    </contour>
  </outline>
</glyph>
<glyph name="semicolon" format="2">
  <advance width="251"/>
  <unicode hex="003B"/>
  <outline>
    <contour>
      <point x="205" y="122" type="curve"/>
      <point x="200" y="133" type="line"/>
      <point x="69" y="133" type="line"/>
      <point x="64" y="58"/>
      <point x="48" y="-56"/>
      <point x="31" y="-136" type="curve"/>
      <point x="139" y="-136" type="line"/>
      <point x="167" y="-63"/>
      <point x="189" y="22"/>
    </contour>
    <contour>
      <point x="51" y="470" type="curve" smooth="yes"/>
      <point x="51" y="418"/>
      <point x="80" y="388"/>
      <point x="129" y="388" type="curve" smooth="yes"/>
      <point x="175" y="388"/>
      <point x="204" y="417"/>
      <point x="204" y="470" type="curve" smooth="yes"/>
      <point x="204" y="523"/>
      <point x="178" y="553"/>
      <point x="129" y="553" type="curve" smooth="yes"/>
      <point x="78" y="553"/>
      <point x="51" y="523"/>
    </contour>
  </outline>
</glyph>
<glyph name="semicolon.serif" format="2">
  <advance width="246"/>
  <unicode hex="003B"/>
  <outline>
    <contour>
      <point x="45" y="-145" type="curve"/>
      <point x="45" y="-156" type="line"/>
      <point x="149" y="-122"/>
      <point x="189" y="-48"/>
      <point x="189" y="30" type="curve" smooth="yes"/>
      <point x="189" y="97"/>
      <point x="160" y="136"/>
      <point x="115" y="136" type="curve" smooth="yes"/>
      <point x="82" y="136"/>
      <point x="57" y="117"/>
      <point x="57" y="71" type="curve" smooth="yes"/>
      <point x="57" y="-12"/>
      <point x="139" y="14"/>
      <point x="139" y="-49" type="curve" smooth="yes"/>
      <point x="139" y="-100"/>
      <point x="85" y="-132"/>
    </contour>
    <contour>
      <point x="123" y="392" type="curve" smooth="yes"/>
      <point x="153" y="392"/>
      <point x="180" y="410"/>
      <point x="180" y="464" type="curve" smooth="yes"/>
      <point x="180" y="518"/>
      <point x="153" y="535"/>
      <point x="123" y="535" type="curve" smooth="yes"/>
      <point x="91" y="535"/>
      <point x="66" y="518"/>
      <point x="66" y="464" type="curve" smooth="yes"/>
      <point x="66" y="410"/>
      <point x="91" y="392"/>
    </contour>
  </outline>
</glyph>
<glyph name="less" format="2">
  <advance width="462"/>
  <unicode hex="003C"/>
  <outline>
    <contour>
      <point x="430" y="120" type="line"/>
      <point x="430" y="238" type="line"/>
      <point x="181" y="359" type="line"/>
      <point x="430" y="478" type="line"/>
      <point x="430" y="597" type="line"/>
      <point x="28" y="394" type="line"/>
      <point x="28" y="324" type="line"/>
    </contour>
  </outline>
</glyph>
<glyph name="greater" format="2">
  <advance width="462"/>
  <unicode hex="003E"/>
  <outline>
    <contour>
      <point x="31" y="238" type="line"/>
      <point x="31" y="120" type="line"/>
      <point x="433" y="324" type="line"/>
      <point x="433" y="394" type="line"/>
      <point x="31" y="597" type="line"/>
      <point x="31" y="478" type="line"/>
      <point x="280" y="359" type="line"/>
    </contour>
  </outline>
</glyph>
<glyph name="question" format="2">
  <advance width="362"/>
  <unicode hex="003F"/>
  <outline>
    <contour>
      <point x="100" y="269" type="curve" smooth="yes"/>
      <point x="100" y="232" type="line"/>
      <point x="211" y="232" type="line"/>
      <point x="211" y="255" type="line" smooth="yes"/>
      <point x="211" y="294"/>
      <point x="216" y="313"/>
      <point x="260" y="360" type="curve" smooth="yes"/>
      <point x="317" y="420"/>
      <point x="347" y="466"/>
      <point x="347" y="552" type="curve" smooth="yes"/>
      <point x="347" y="659"/>
      <point x="285" y="724"/>
      <point x="169" y="724" type="curve" smooth="yes"/>
      <point x="113" y="724"/>
      <point x="59" y="704"/>
      <point x="4" y="664" type="curve"/>
      <point x="48" y="562" type="line"/>
      <point x="88" y="591"/>
      <point x="123" y="607"/>
      <point x="158" y="607" type="curve" smooth="yes"/>
      <point x="198" y="607"/>
      <point x="219" y="584"/>
      <point x="219" y="540" type="curve" smooth="yes"/>
      <point x="219" y="495"/>
      <point x="203" y="468"/>
      <point x="162" y="423" type="curve" smooth="yes"/>
      <point x="117" y="374"/>
      <point x="100" y="335"/>
    </contour>
    <contour>
      <point x="78" y="71" type="curve" smooth="yes"/>
      <point x="78" y="18"/>
      <point x="108" y="-11"/>
      <point x="157" y="-11" type="curve" smooth="yes"/>
      <point x="204" y="-11"/>
      <point x="232" y="18"/>
      <point x="232" y="71" type="curve" smooth="yes"/>
      <point x="232" y="125"/>
      <point x="205" y="153"/>
      <point x="157" y="153" type="curve" smooth="yes"/>
      <point x="105" y="153"/>
      <point x="78" y="124"/>
    </contour>
  </outline>
</glyph>
<glyph name="question.serif" format="2">
  <advance width="456"/>
  <unicode hex="003F"/>
  <outline>
    <contour>
      <point x="160" y="345" type="curve"/>
      <point x="197" y="221" type="line"/>
      <point x="212" y="221" type="line"/>
      <point x="242" y="346" type="line"/>
      <point x="356" y="378"/>
      <point x="409" y="439"/>
      <point x="409" y="544" type="curve" smooth="yes"/>
      <point x="409" y="661"/>
      <point x="330" y="724"/>
      <point x="207" y="724" type="curve" smooth="yes"/>
      <point x="84" y="724"/>
      <point x="30" y="664"/>
      <point x="30" y="606" type="curve" smooth="yes"/>
      <point x="30" y="553"/>
      <point x="72" y="537"/>
      <point x="142" y="537" type="curve"/>
      <point x="142" y="673"/>
      <point x="157" y="714"/>
      <point x="208" y="714" type="curve" smooth="yes"/>
      <point x="256" y="714"/>
      <point x="274" y="678"/>
      <point x="274" y="552" type="curve" smooth="yes"/>
      <point x="274" y="413"/>
      <point x="245" y="367"/>
    </contour>
    <contour>
      <point x="203" y="-7" type="curve" smooth="yes"/>
      <point x="234" y="-7"/>
      <point x="260" y="10"/>
      <point x="260" y="64" type="curve" smooth="yes"/>
      <point x="260" y="119"/>
      <point x="234" y="136"/>
      <point x="203" y="136" type="curve" smooth="yes"/>
      <point x="171" y="136"/>
      <point x="146" y="119"/>
      <point x="146" y="64" type="curve" smooth="yes"/>
      <point x="146" y="10"/>
      <point x="171" y="-7"/>
    </contour>
  </outline>
</glyph>
<glyph name="at" format="2">
  <advance width="707"/>
  <unicode hex="0040"/>
  <outline>
    <contour>
      <point x="670" y="366" type="curve" smooth="yes"/>
      <point x="670" y="574"/>
      <point x="551" y="722"/>
      <point x="367" y="722" type="curve" smooth="yes"/>
      <point x="172" y="722"/>
      <point x="38" y="556"/>
      <point x="38" y="294" type="curve" smooth="yes"/>
      <point x="38" y="59"/>
      <point x="154" y="-79"/>
      <point x="359" y="-79" type="curve" smooth="yes"/>
      <point x="427" y="-79"/>
      <point x="484" y="-66"/>
      <point x="538" y="-41" type="curve"/>
      <point x="538" y="46" type="line"/>
      <point x="482" y="20"/>
      <point x="415" y="3"/>
      <point x="358" y="3" type="curve" smooth="yes"/>
      <point x="207" y="3"/>
      <point x="133" y="122"/>
      <point x="133" y="299" type="curve" smooth="yes"/>
      <point x="133" y="485"/>
      <point x="211" y="641"/>
      <point x="367" y="641" type="curve" smooth="yes"/>
      <point x="502" y="641"/>
      <point x="575" y="528"/>
      <point x="575" y="368" type="curve" smooth="yes"/>
      <point x="575" y="242"/>
      <point x="554" y="195"/>
      <point x="521" y="195" type="curve" smooth="yes"/>
      <point x="501" y="195"/>
      <point x="490" y="212"/>
      <point x="490" y="247" type="curve" smooth="yes"/>
      <point x="490" y="264"/>
      <point x="491" y="285"/>
      <point x="492" y="304" type="curve" smooth="yes"/>
      <point x="500" y="511" type="line"/>
      <point x="462" y="527"/>
      <point x="415" y="537"/>
      <point x="377" y="537" type="curve" smooth="yes"/>
      <point x="268" y="537"/>
      <point x="202" y="446"/>
      <point x="202" y="305" type="curve" smooth="yes"/>
      <point x="202" y="184"/>
      <point x="249" y="114"/>
      <point x="332" y="114" type="curve" smooth="yes"/>
      <point x="372" y="114"/>
      <point x="402" y="138"/>
      <point x="425" y="191" type="curve"/>
      <point x="431" y="191" type="line"/>
      <point x="443" y="141"/>
      <point x="475" y="114"/>
      <point x="526" y="114" type="curve" smooth="yes"/>
      <point x="610" y="114"/>
      <point x="670" y="214"/>
    </contour>
    <contour>
      <point x="302" y="304" type="curve" smooth="yes"/>
      <point x="302" y="401"/>
      <point x="330" y="457"/>
      <point x="374" y="457" type="curve" smooth="yes"/>
      <point x="383" y="457"/>
      <point x="390" y="456"/>
      <point x="399" y="453" type="curve"/>
      <point x="394" y="351" type="line" smooth="yes"/>
      <point x="388" y="236"/>
      <point x="375" y="195"/>
      <point x="345" y="195" type="curve" smooth="yes"/>
      <point x="318" y="195"/>
      <point x="302" y="229"/>
    </contour>
  </outline>
</glyph>
<glyph name="at.serif" format="2">
  <advance width="750"/>
  <unicode hex="0040"/>
  <outline>
    <contour>
      <point x="347" y="-142" type="curve" smooth="yes"/>
      <point x="437" y="-142"/>
      <point x="514" y="-106"/>
      <point x="584" y="-43" type="curve"/>
      <point x="579" y="-34" type="line"/>
      <point x="507" y="-98"/>
      <point x="433" y="-131"/>
      <point x="352" y="-131" type="curve" smooth="yes"/>
      <point x="199" y="-131"/>
      <point x="116" y="-25"/>
      <point x="116" y="202" type="curve" smooth="yes"/>
      <point x="116" y="495"/>
      <point x="253" y="704"/>
      <point x="447" y="704" type="curve" smooth="yes"/>
      <point x="587" y="704"/>
      <point x="656" y="602"/>
      <point x="656" y="400" type="curve" smooth="yes"/>
      <point x="656" y="231"/>
      <point x="608.007" y="87"/>
      <point x="543" y="87" type="curve" smooth="yes"/>
      <point x="517" y="87"/>
      <point x="506" y="107"/>
      <point x="506" y="159" type="curve" smooth="yes"/>
      <point x="506" y="197"/>
      <point x="513" y="243"/>
      <point x="518" y="271" type="curve" smooth="yes"/>
      <point x="560" y="520" type="line"/>
      <point x="550" y="520" type="line"/>
      <point x="485" y="487" type="line"/>
      <point x="472" y="510"/>
      <point x="453" y="529"/>
      <point x="411" y="529" type="curve" smooth="yes"/>
      <point x="275" y="529"/>
      <point x="211" y="358"/>
      <point x="211" y="237" type="curve" smooth="yes"/>
      <point x="211" y="131"/>
      <point x="259" y="77"/>
      <point x="321" y="77" type="curve" smooth="yes"/>
      <point x="376" y="77"/>
      <point x="416" y="118"/>
      <point x="440" y="206" type="curve"/>
      <point x="441" y="206" type="line"/>
      <point x="443" y="109"/>
      <point x="493" y="77"/>
      <point x="540" y="77" type="curve" smooth="yes"/>
      <point x="628" y="77"/>
      <point x="714" y="204"/>
      <point x="714" y="387" type="curve" smooth="yes"/>
      <point x="714" y="577"/>
      <point x="620" y="714"/>
      <point x="437" y="714" type="curve" smooth="yes"/>
      <point x="212" y="714"/>
      <point x="47" y="499"/>
      <point x="47" y="215" type="curve" smooth="yes"/>
      <point x="47" y="-26"/>
      <point x="173" y="-142"/>
    </contour>
    <contour>
      <point x="346" y="96" type="curve" smooth="yes"/>
      <point x="315" y="96"/>
      <point x="296" y="132"/>
      <point x="296" y="214" type="curve" smooth="yes"/>
      <point x="296" y="327"/>
      <point x="337" y="518"/>
      <point x="421" y="518" type="curve" smooth="yes"/>
      <point x="449" y="518"/>
      <point x="469" y="496"/>
      <point x="475" y="476" type="curve"/>
      <point x="438" y="250" type="line" smooth="yes"/>
      <point x="423" y="159"/>
      <point x="383" y="96"/>
    </contour>
  </outline>
</glyph>
<glyph name="A" format="2">
  <advance width="517"/>
  <unicode hex="0041"/>
  <anchor x="257" y="0" name="bottom"/>
  <anchor x="259" y="714" name="top"/>
  <anchor x="461" y="714" name="topright"/>
  <outline>
    <contour>
      <point x="370" y="0" type="line"/>
      <point x="517" y="0" type="line"/>
      <point x="346" y="714" type="line"/>
      <point x="168" y="714" type="line"/>
      <point x="0" y="0" type="line"/>
      <point x="148" y="0" type="line"/>
      <point x="182" y="172" type="line"/>
      <point x="336" y="172" type="line"/>
    </contour>
    <contour>
      <point x="278" y="480" type="curve" smooth="yes"/>
      <point x="315" y="291" type="line"/>
      <point x="203" y="291" type="line"/>
      <point x="239" y="482" type="line" smooth="yes"/>
      <point x="248" y="528"/>
      <point x="256" y="573"/>
      <point x="259" y="608" type="curve"/>
      <point x="264" y="572"/>
      <point x="269" y="527"/>
    </contour>
  </outline>
</glyph>
<glyph name="A.serif" format="2">
  <advance width="618"/>
  <unicode hex="0041"/>
  <anchor x="490" y="0" name="bottom"/>
  <anchor x="310" y="714" name="top"/>
  <anchor x="511" y="714" name="topright"/>
  <outline>
    <contour>
      <point x="4" y="0" type="line"/>
      <point x="196" y="0" type="line"/>
      <point x="196" y="10" type="line"/>
      <point x="144" y="10" type="line" smooth="yes"/>
      <point x="116" y="10"/>
      <point x="106" y="19"/>
      <point x="106" y="41" type="curve" smooth="yes"/>
      <point x="106" y="56"/>
      <point x="112" y="83"/>
      <point x="120" y="112" type="curve" smooth="yes"/>
      <point x="159" y="261" type="line"/>
      <point x="372" y="261" type="line"/>
      <point x="413" y="96" type="line" smooth="yes"/>
      <point x="418" y="77"/>
      <point x="424" y="56"/>
      <point x="424" y="43" type="curve" smooth="yes"/>
      <point x="424" y="22"/>
      <point x="416" y="10"/>
      <point x="385" y="10" type="curve" smooth="yes"/>
      <point x="347" y="10" type="line"/>
      <point x="347" y="0" type="line"/>
      <point x="618" y="0" type="line"/>
      <point x="618" y="10" type="line"/>
      <point x="610" y="10" type="line" smooth="yes"/>
      <point x="580" y="10"/>
      <point x="568" y="23"/>
      <point x="556" y="65" type="curve" smooth="yes"/>
      <point x="372" y="714" type="line"/>
      <point x="269" y="714" type="line"/>
      <point x="102" y="85" type="line" smooth="yes"/>
      <point x="86" y="26"/>
      <point x="72" y="10"/>
      <point x="35" y="10" type="curve" smooth="yes"/>
      <point x="4" y="10" type="line"/>
    </contour>
    <contour>
      <point x="162" y="271" type="line"/>
      <point x="241" y="567" type="line" smooth="yes"/>
      <point x="252" y="607"/>
      <point x="260" y="639"/>
      <point x="268" y="680" type="curve"/>
      <point x="277" y="635"/>
      <point x="287" y="599"/>
      <point x="299" y="550" type="curve" smooth="yes"/>
      <point x="369" y="271" type="line"/>
    </contour>
  </outline>
</glyph>
<glyph name="B" format="2">
  <advance width="516"/>
  <unicode hex="0042"/>
  <anchor x="263" y="0" name="bottom"/>
  <anchor x="262" y="714" name="top"/>
  <anchor x="496" y="714" name="topright"/>
  <outline>
    <contour>
      <point x="246" y="714" type="curve" smooth="yes"/>
      <point x="61" y="714" type="line"/>
      <point x="61" y="0" type="line"/>
      <point x="267" y="0" type="line" smooth="yes"/>
      <point x="397" y="0"/>
      <point x="475" y="80"/>
      <point x="475" y="207" type="curve" smooth="yes"/>
      <point x="475" y="298"/>
      <point x="443" y="353"/>
      <point x="369" y="374" type="curve"/>
      <point x="369" y="379" type="line"/>
      <point x="427" y="395"/>
      <point x="462" y="454"/>
      <point x="462" y="538" type="curve" smooth="yes"/>
      <point x="462" y="657"/>
      <point x="391" y="714"/>
    </contour>
    <contour>
      <point x="246" y="425" type="curve" smooth="yes"/>
      <point x="199" y="425" type="line"/>
      <point x="199" y="602" type="line"/>
      <point x="244" y="602" type="line" smooth="yes"/>
      <point x="297" y="602"/>
      <point x="323" y="573"/>
      <point x="323" y="519" type="curve" smooth="yes"/>
      <point x="323" y="457"/>
      <point x="298" y="425"/>
    </contour>
    <contour>
      <point x="199" y="316" type="line"/>
      <point x="252" y="316" type="line"/>
      <point x="305" y="316"/>
      <point x="334" y="281"/>
      <point x="334" y="218" type="curve" smooth="yes"/>
      <point x="334" y="149"/>
      <point x="308" y="115"/>
      <point x="256" y="115" type="curve" smooth="yes"/>
      <point x="199" y="115" type="line"/>
    </contour>
  </outline>
</glyph>
<glyph name="B.serif" format="2">
  <advance width="569"/>
  <unicode hex="0042"/>
  <anchor x="284" y="0" name="bottom"/>
  <anchor x="284" y="714" name="top"/>
  <anchor x="549" y="714" name="topright"/>
  <outline>
    <contour>
      <point x="22" y="0" type="line"/>
      <point x="298" y="0" type="line" smooth="yes"/>
      <point x="458" y="0"/>
      <point x="535" y="64"/>
      <point x="535" y="195" type="curve" smooth="yes"/>
      <point x="535" y="307"/>
      <point x="476" y="365"/>
      <point x="337" y="376" type="curve"/>
      <point x="337" y="378" type="line"/>
      <point x="456" y="390"/>
      <point x="512" y="446"/>
      <point x="512" y="541" type="curve" smooth="yes"/>
      <point x="512" y="663"/>
      <point x="429" y="714"/>
      <point x="274" y="714" type="curve" smooth="yes"/>
      <point x="22" y="714" type="line"/>
      <point x="22" y="704" type="line"/>
      <point x="57" y="704" type="line" smooth="yes"/>
      <point x="81" y="704"/>
      <point x="98" y="693"/>
      <point x="98" y="639" type="curve" smooth="yes"/>
      <point x="98" y="77" type="line" smooth="yes"/>
      <point x="98" y="27"/>
      <point x="89" y="10"/>
      <point x="58" y="10" type="curve" smooth="yes"/>
      <point x="22" y="10" type="line"/>
    </contour>
    <contour>
      <point x="287" y="10" type="curve" smooth="yes"/>
      <point x="230" y="10" type="line"/>
      <point x="230" y="370" type="line"/>
      <point x="289" y="370" type="line" smooth="yes"/>
      <point x="367" y="370"/>
      <point x="395" y="315"/>
      <point x="395" y="187" type="curve" smooth="yes"/>
      <point x="395" y="60"/>
      <point x="366" y="10"/>
    </contour>
    <contour>
      <point x="267" y="380" type="curve" smooth="yes"/>
      <point x="230" y="380" type="line"/>
      <point x="230" y="704" type="line"/>
      <point x="268" y="704" type="line" smooth="yes"/>
      <point x="345" y="704"/>
      <point x="374" y="657"/>
      <point x="374" y="545" type="curve" smooth="yes"/>
      <point x="374" y="430"/>
      <point x="346" y="380"/>
    </contour>
  </outline>
</glyph>
<glyph name="C" format="2">
  <advance width="472"/>
  <unicode hex="0043"/>
  <anchor x="269" y="0" name="bottom"/>
  <anchor x="279" y="714" name="top"/>
  <anchor x="452" y="714" name="topright"/>
  <outline>
    <contour>
      <point x="301" y="606" type="curve" smooth="yes"/>
      <point x="341" y="606"/>
      <point x="376" y="591"/>
      <point x="410" y="567" type="curve"/>
      <point x="449" y="680" type="line"/>
      <point x="399" y="710"/>
      <point x="347" y="724"/>
      <point x="291" y="724" type="curve" smooth="yes"/>
      <point x="132" y="724"/>
      <point x="41" y="569"/>
      <point x="41" y="356" type="curve"/>
      <point x="41" y="122"/>
      <point x="130" y="-10"/>
      <point x="288" y="-10" type="curve"/>
      <point x="341" y="-10"/>
      <point x="387" y="2"/>
      <point x="428" y="25" type="curve"/>
      <point x="428" y="147" type="line"/>
      <point x="389" y="126"/>
      <point x="351" y="109"/>
      <point x="308" y="109" type="curve" smooth="yes"/>
      <point x="228" y="109"/>
      <point x="184" y="196"/>
      <point x="184" y="355" type="curve"/>
      <point x="184" y="500"/>
      <point x="222" y="606"/>
    </contour>
  </outline>
</glyph>
<glyph name="C.serif" format="2">
  <advance width="551"/>
  <unicode hex="0043"/>
  <anchor x="332" y="-10" name="bottom"/>
  <anchor x="316" y="714" name="top"/>
  <anchor x="531" y="714" name="topright"/>
  <outline>
    <contour>
      <point x="326" y="-10" type="curve" smooth="yes"/>
      <point x="473" y="-10"/>
      <point x="517" y="65"/>
      <point x="517" y="118" type="curve" smooth="yes"/>
      <point x="517" y="132"/>
      <point x="512" y="157"/>
      <point x="487" y="165" type="curve"/>
      <point x="478" y="62"/>
      <point x="433" y="2"/>
      <point x="348" y="2" type="curve" smooth="yes"/>
      <point x="229" y="2"/>
      <point x="184" y="108"/>
      <point x="184" y="358" type="curve" smooth="yes"/>
      <point x="184" y="608"/>
      <point x="221" y="714"/>
      <point x="320" y="714" type="curve" smooth="yes"/>
      <point x="389" y="714"/>
      <point x="414" y="662"/>
      <point x="414" y="528" type="curve"/>
      <point x="483" y="528"/>
      <point x="517" y="562"/>
      <point x="517" y="607" type="curve" smooth="yes"/>
      <point x="517" y="671"/>
      <point x="452" y="724"/>
      <point x="326" y="724" type="curve" smooth="yes"/>
      <point x="141" y="724"/>
      <point x="45" y="577"/>
      <point x="45" y="358" type="curve" smooth="yes"/>
      <point x="45" y="137"/>
      <point x="139" y="-10"/>
    </contour>
  </outline>
</glyph>
<glyph name="D" format="2">
  <advance width="546"/>
  <unicode hex="0044"/>
  <anchor x="254" y="0" name="bottom"/>
  <anchor x="270" y="360" name="center"/>
  <anchor x="269" y="714" name="top"/>
  <anchor x="527" y="714" name="topright"/>
  <outline>
    <contour>
      <point x="505" y="370" type="curve" smooth="yes"/>
      <point x="505" y="593"/>
      <point x="409" y="714"/>
      <point x="236" y="714" type="curve" smooth="yes"/>
      <point x="61" y="714" type="line"/>
      <point x="61" y="0" type="line"/>
      <point x="226" y="0" type="line" smooth="yes"/>
      <point x="405" y="0"/>
      <point x="505" y="131"/>
    </contour>
    <contour>
      <point x="363" y="364" type="curve" smooth="yes"/>
      <point x="363" y="199"/>
      <point x="320" y="120"/>
      <point x="225" y="120" type="curve" smooth="yes"/>
      <point x="199" y="120" type="line"/>
      <point x="199" y="595" type="line"/>
      <point x="234" y="595" type="line" smooth="yes"/>
      <point x="319" y="595"/>
      <point x="363" y="524"/>
    </contour>
  </outline>
</glyph>
<glyph name="D.serif" format="2">
  <advance width="629"/>
  <unicode hex="0044"/>
  <anchor x="315" y="0" name="bottom"/>
  <anchor x="315" y="357" name="center"/>
  <anchor x="315" y="714" name="top"/>
  <anchor x="609" y="714" name="topright"/>
  <outline>
    <contour>
      <point x="22" y="0" type="line"/>
      <point x="290" y="0" type="line" smooth="yes"/>
      <point x="485" y="0"/>
      <point x="585" y="147"/>
      <point x="585" y="366" type="curve" smooth="yes"/>
      <point x="585" y="594"/>
      <point x="475" y="714"/>
      <point x="290" y="714" type="curve" smooth="yes"/>
      <point x="22" y="714" type="line"/>
      <point x="22" y="704" type="line"/>
      <point x="54" y="704" type="line" smooth="yes"/>
      <point x="85" y="704"/>
      <point x="98" y="691"/>
      <point x="98" y="640" type="curve" smooth="yes"/>
      <point x="98" y="76" type="line" smooth="yes"/>
      <point x="98" y="28"/>
      <point x="87" y="10"/>
      <point x="59" y="10" type="curve" smooth="yes"/>
      <point x="22" y="10" type="line"/>
    </contour>
    <contour>
      <point x="275" y="10" type="curve" smooth="yes"/>
      <point x="231" y="10" type="line"/>
      <point x="231" y="704" type="line"/>
      <point x="275" y="704" type="line" smooth="yes"/>
      <point x="395" y="704"/>
      <point x="444" y="602"/>
      <point x="444" y="368" type="curve" smooth="yes"/>
      <point x="444" y="112"/>
      <point x="395" y="10"/>
    </contour>
  </outline>
</glyph>
<glyph name="E" format="2">
  <advance width="416"/>
  <unicode hex="0045"/>
  <anchor x="222" y="0" name="bottom"/>
  <anchor x="218" y="714" name="top"/>
  <anchor x="397" y="714" name="topright"/>
  <outline>
    <contour>
      <point x="376" y="0" type="line"/>
      <point x="376" y="119" type="line"/>
      <point x="199" y="119" type="line"/>
      <point x="199" y="312" type="line"/>
      <point x="363" y="312" type="line"/>
      <point x="363" y="429" type="line"/>
      <point x="199" y="429" type="line"/>
      <point x="199" y="597" type="line"/>
      <point x="376" y="597" type="line"/>
      <point x="376" y="714" type="line"/>
      <point x="61" y="714" type="line"/>
      <point x="61" y="0" type="line"/>
    </contour>
  </outline>
</glyph>
<glyph name="E.serif" format="2">
  <advance width="535"/>
  <unicode hex="0045"/>
  <anchor x="268" y="0" name="bottom"/>
  <anchor x="268" y="714" name="top"/>
  <anchor x="515" y="714" name="topright"/>
  <outline>
    <contour>
      <point x="22" y="0" type="line"/>
      <point x="504" y="0" type="line"/>
      <point x="510" y="179" type="line"/>
      <point x="500" y="179" type="line"/>
      <point x="497" y="133" type="line" smooth="yes"/>
      <point x="489" y="41"/>
      <point x="455" y="10"/>
      <point x="359" y="10" type="curve" smooth="yes"/>
      <point x="230" y="10" type="line"/>
      <point x="230" y="368" type="line"/>
      <point x="440" y="368" type="line"/>
      <point x="440" y="378" type="line"/>
      <point x="230" y="378" type="line"/>
      <point x="230" y="704" type="line"/>
      <point x="331" y="704" type="line" smooth="yes"/>
      <point x="428" y="704"/>
      <point x="463" y="673"/>
      <point x="470" y="577" type="curve" smooth="yes"/>
      <point x="473" y="535" type="line"/>
      <point x="483" y="535" type="line"/>
      <point x="477" y="714" type="line"/>
      <point x="22" y="714" type="line"/>
      <point x="22" y="704" type="line"/>
      <point x="45" y="704" type="line" smooth="yes"/>
      <point x="80" y="704"/>
      <point x="98" y="695"/>
      <point x="98" y="633" type="curve" smooth="yes"/>
      <point x="98" y="77" type="line" smooth="yes"/>
      <point x="98" y="18"/>
      <point x="79" y="10"/>
      <point x="45" y="10" type="curve" smooth="yes"/>
      <point x="22" y="10" type="line"/>
    </contour>
  </outline>
</glyph>
<glyph name="F" format="2">
  <advance width="405"/>
  <unicode hex="0046"/>
  <anchor x="202" y="0" name="bottom"/>
  <anchor x="220" y="714" name="top"/>
  <anchor x="385" y="714" name="topright"/>
  <outline>
    <contour>
      <point x="199" y="0" type="line"/>
      <point x="199" y="286" type="line"/>
      <point x="362" y="286" type="line"/>
      <point x="362" y="403" type="line"/>
      <point x="199" y="403" type="line"/>
      <point x="199" y="597" type="line"/>
      <point x="374" y="597" type="line"/>
      <point x="374" y="714" type="line"/>
      <point x="61" y="714" type="line"/>
      <point x="61" y="0" type="line"/>
    </contour>
  </outline>
</glyph>
<glyph name="F.serif" format="2">
  <advance width="510"/>
  <unicode hex="0046"/>
  <anchor x="164" y="0" name="bottom"/>
  <anchor x="255" y="714" name="top"/>
  <anchor x="490" y="714" name="topright"/>
  <outline>
    <contour>
      <point x="22" y="0" type="line"/>
      <point x="324" y="0" type="line"/>
      <point x="324" y="10" type="line"/>
      <point x="278" y="10" type="line" smooth="yes"/>
      <point x="240" y="10"/>
      <point x="230" y="26"/>
      <point x="230" y="72" type="curve" smooth="yes"/>
      <point x="230" y="346" type="line"/>
      <point x="425" y="346" type="line"/>
      <point x="425" y="356" type="line"/>
      <point x="230" y="356" type="line"/>
      <point x="230" y="704" type="line"/>
      <point x="344" y="704" type="line" smooth="yes"/>
      <point x="437" y="704"/>
      <point x="466" y="672"/>
      <point x="471" y="566" type="curve" smooth="yes"/>
      <point x="473" y="533" type="line"/>
      <point x="483" y="533" type="line"/>
      <point x="477" y="714" type="line"/>
      <point x="22" y="714" type="line"/>
      <point x="22" y="704" type="line"/>
      <point x="58" y="704" type="line" smooth="yes"/>
      <point x="85" y="704"/>
      <point x="98" y="691"/>
      <point x="98" y="642" type="curve" smooth="yes"/>
      <point x="98" y="71" type="line" smooth="yes"/>
      <point x="98" y="23"/>
      <point x="87" y="10"/>
      <point x="48" y="10" type="curve" smooth="yes"/>
      <point x="22" y="10" type="line"/>
    </contour>
  </outline>
</glyph>
<glyph name="G" format="2">
  <advance width="559"/>
  <unicode hex="0047"/>
  <anchor x="310" y="0" name="bottom"/>
  <anchor x="312" y="714" name="top"/>
  <anchor x="540" y="714" name="topright"/>
  <outline>
    <contour>
      <point x="290" y="402" type="line"/>
      <point x="290" y="286" type="line"/>
      <point x="375" y="286" type="line"/>
      <point x="375" y="120" type="line"/>
      <point x="356" y="113"/>
      <point x="333" y="109"/>
      <point x="310" y="109" type="curve" smooth="yes"/>
      <point x="224" y="109"/>
      <point x="184" y="205"/>
      <point x="184" y="355" type="curve" smooth="yes"/>
      <point x="184" y="517"/>
      <point x="234" y="606"/>
      <point x="332" y="606" type="curve" smooth="yes"/>
      <point x="378" y="606"/>
      <point x="421" y="592"/>
      <point x="461" y="566" type="curve"/>
      <point x="500" y="679" type="line"/>
      <point x="455" y="706"/>
      <point x="395" y="724"/>
      <point x="327" y="724" type="curve" smooth="yes"/>
      <point x="143" y="724"/>
      <point x="41" y="582"/>
      <point x="41" y="359" type="curve" smooth="yes"/>
      <point x="41" y="133"/>
      <point x="130" y="-10"/>
      <point x="301" y="-10" type="curve" smooth="yes"/>
      <point x="374" y="-10"/>
      <point x="443" y="3"/>
      <point x="510" y="30" type="curve"/>
      <point x="510" y="402" type="line"/>
    </contour>
  </outline>
</glyph>
<glyph name="G.serif" format="2">
  <advance width="632"/>
  <unicode hex="0047"/>
  <anchor x="353" y="-10" name="bottom"/>
  <anchor x="346" y="714" name="top"/>
  <anchor x="612" y="714" name="topright"/>
  <outline>
    <contour>
      <point x="348" y="-10" type="curve" smooth="yes"/>
      <point x="422" y="-10"/>
      <point x="486" y="7"/>
      <point x="550" y="41" type="curve"/>
      <point x="550" y="248" type="line" smooth="yes"/>
      <point x="550" y="307"/>
      <point x="557" y="324"/>
      <point x="595" y="324" type="curve" smooth="yes"/>
      <point x="602" y="324" type="line"/>
      <point x="602" y="334" type="line"/>
      <point x="348" y="334" type="line"/>
      <point x="348" y="324" type="line"/>
      <point x="362" y="324" type="line" smooth="yes"/>
      <point x="406" y="324"/>
      <point x="417" y="307"/>
      <point x="417" y="251" type="curve" smooth="yes"/>
      <point x="417" y="11" type="line"/>
      <point x="399" y="3"/>
      <point x="377" y="0"/>
      <point x="357" y="0" type="curve" smooth="yes"/>
      <point x="227" y="0"/>
      <point x="184" y="95"/>
      <point x="184" y="358" type="curve" smooth="yes"/>
      <point x="184" y="615"/>
      <point x="232" y="714"/>
      <point x="349" y="714" type="curve" smooth="yes"/>
      <point x="428" y="714"/>
      <point x="453" y="662"/>
      <point x="453" y="530" type="curve"/>
      <point x="524" y="530"/>
      <point x="557" y="564"/>
      <point x="557" y="607" type="curve" smooth="yes"/>
      <point x="557" y="669"/>
      <point x="490" y="724"/>
      <point x="350" y="724" type="curve" smooth="yes"/>
      <point x="152" y="724"/>
      <point x="45" y="583"/>
      <point x="45" y="358" type="curve" smooth="yes"/>
      <point x="45" y="133"/>
      <point x="143" y="-10"/>
    </contour>
  </outline>
</glyph>
<glyph name="H" format="2">
  <advance width="565"/>
  <unicode hex="0048"/>
  <anchor x="282" y="0" name="bottom"/>
  <anchor x="282" y="357" name="center"/>
  <anchor x="283" y="714" name="top"/>
  <anchor x="546" y="714" name="topright"/>
  <outline>
    <contour>
      <point x="504" y="0" type="line"/>
      <point x="504" y="714" type="line"/>
      <point x="367" y="714" type="line"/>
      <point x="367" y="431" type="line"/>
      <point x="199" y="431" type="line"/>
      <point x="199" y="714" type="line"/>
      <point x="61" y="714" type="line"/>
      <point x="61" y="0" type="line"/>
      <point x="199" y="0" type="line"/>
      <point x="199" y="312" type="line"/>
      <point x="367" y="312" type="line"/>
      <point x="367" y="0" type="line"/>
    </contour>
  </outline>
</glyph>
<glyph name="I" format="2">
  <advance width="321"/>
  <unicode hex="0049"/>
  <anchor x="161" y="0" name="bottom"/>
  <anchor x="161" y="714" name="top"/>
  <anchor x="301" y="714" name="topright"/>
  <outline>
    <contour>
      <point x="294" y="0" type="line"/>
      <point x="294" y="74" type="line"/>
      <point x="230" y="102" type="line"/>
      <point x="230" y="612" type="line"/>
      <point x="294" y="640" type="line"/>
      <point x="294" y="714" type="line"/>
      <point x="28" y="714" type="line"/>
      <point x="28" y="640" type="line"/>
      <point x="92" y="612" type="line"/>
      <point x="92" y="102" type="line"/>
      <point x="28" y="74" type="line"/>
      <point x="28" y="0" type="line"/>
    </contour>
  </outline>
</glyph>
<glyph name="I.serif" format="2">
  <advance width="330"/>
  <unicode hex="0049"/>
  <anchor x="165" y="0" name="bottom"/>
  <anchor x="165" y="714" name="top"/>
  <anchor x="310" y="714" name="topright"/>
  <outline>
    <contour>
      <point x="22" y="0" type="line"/>
      <point x="309" y="0" type="line"/>
      <point x="309" y="10" type="line"/>
      <point x="269" y="10" type="line" smooth="yes"/>
      <point x="239" y="10"/>
      <point x="231" y="23"/>
      <point x="231" y="72" type="curve" smooth="yes"/>
      <point x="231" y="639" type="line" smooth="yes"/>
      <point x="231" y="691"/>
      <point x="239" y="704"/>
      <point x="269" y="704" type="curve" smooth="yes"/>
      <point x="309" y="704" type="line"/>
      <point x="309" y="714" type="line"/>
      <point x="22" y="714" type="line"/>
      <point x="22" y="704" type="line"/>
      <point x="61" y="704" type="line" smooth="yes"/>
      <point x="91" y="704"/>
      <point x="98" y="691"/>
      <point x="98" y="639" type="curve" smooth="yes"/>
      <point x="98" y="72" type="line" smooth="yes"/>
      <point x="98" y="23"/>
      <point x="91" y="10"/>
      <point x="61" y="10" type="curve" smooth="yes"/>
      <point x="22" y="10" type="line"/>
    </contour>
  </outline>
</glyph>
<glyph name="J" format="2">
  <advance width="260"/>
  <unicode hex="004A"/>
  <anchor x="20" y="-212" name="bottom"/>
  <anchor x="131" y="714" name="top"/>
  <anchor x="241" y="714" name="topright"/>
  <outline>
    <contour>
      <point x="20" y="-212" type="curve" smooth="yes"/>
      <point x="135" y="-212"/>
      <point x="199" y="-153"/>
      <point x="199" y="33" type="curve" smooth="yes"/>
      <point x="199" y="714" type="line"/>
      <point x="63" y="714" type="line"/>
      <point x="63" y="31" type="line" smooth="yes"/>
      <point x="63" y="-64"/>
      <point x="46" y="-94"/>
      <point x="-2" y="-94" type="curve" smooth="yes"/>
      <point x="-22" y="-94"/>
      <point x="-39" y="-90"/>
      <point x="-55" y="-84" type="curve"/>
      <point x="-55" y="-201" type="line"/>
      <point x="-32" y="-209"/>
      <point x="-7" y="-212"/>
    </contour>
  </outline>
</glyph>
<glyph name="J.serif" format="2">
  <advance width="332"/>
  <unicode hex="004A"/>
  <anchor x="109" y="-240" name="bottom"/>
  <anchor x="171" y="714" name="top"/>
  <anchor x="301" y="714" name="topright"/>
  <outline>
    <contour>
      <point x="-14" y="-240" type="line"/>
      <point x="18" y="-240" type="line" smooth="yes"/>
      <point x="130" y="-240"/>
      <point x="238" y="-184"/>
      <point x="238" y="-4" type="curve" smooth="yes"/>
      <point x="238" y="639" type="line" smooth="yes"/>
      <point x="238" y="691"/>
      <point x="245" y="704"/>
      <point x="276" y="704" type="curve" smooth="yes"/>
      <point x="314" y="704" type="line"/>
      <point x="314" y="714" type="line"/>
      <point x="28" y="714" type="line"/>
      <point x="28" y="704" type="line"/>
      <point x="67" y="704" type="line" smooth="yes"/>
      <point x="97" y="704"/>
      <point x="105" y="691"/>
      <point x="105" y="641" type="curve" smooth="yes"/>
      <point x="105" y="-44" type="line" smooth="yes"/>
      <point x="105" y="-167"/>
      <point x="69" y="-230"/>
      <point x="1" y="-230" type="curve" smooth="yes"/>
      <point x="-14" y="-230" type="line"/>
    </contour>
  </outline>
</glyph>
<glyph name="K" format="2">
  <advance width="501"/>
  <unicode hex="004B"/>
  <anchor x="274" y="0" name="bottom"/>
  <anchor x="276" y="714" name="top"/>
  <anchor x="482" y="714" name="topright"/>
  <outline>
    <contour>
      <point x="508" y="0" type="line"/>
      <point x="339" y="396" type="line"/>
      <point x="507" y="714" type="line"/>
      <point x="359" y="714" type="line"/>
      <point x="240" y="481" type="line" smooth="yes"/>
      <point x="219" y="441"/>
      <point x="205" y="410"/>
      <point x="199" y="385" type="curve"/>
      <point x="199" y="714" type="line"/>
      <point x="61" y="714" type="line"/>
      <point x="61" y="0" type="line"/>
      <point x="199" y="0" type="line"/>
      <point x="199" y="251" type="line"/>
      <point x="241" y="291" type="line"/>
      <point x="356" y="0" type="line"/>
    </contour>
  </outline>
</glyph>
<glyph name="K.serif" format="2">
  <advance width="615"/>
  <unicode hex="004B"/>
  <anchor x="328" y="0" name="bottom"/>
  <anchor x="337" y="714" name="top"/>
  <anchor x="595" y="714" name="topright"/>
  <outline>
    <contour>
      <point x="22" y="0" type="line"/>
      <point x="297" y="0" type="line"/>
      <point x="297" y="10" type="line"/>
      <point x="275" y="10" type="line" smooth="yes"/>
      <point x="246" y="10"/>
      <point x="231" y="24"/>
      <point x="231" y="73" type="curve" smooth="yes"/>
      <point x="231" y="290" type="line"/>
      <point x="266" y="339" type="line"/>
      <point x="378" y="118" type="line" smooth="yes"/>
      <point x="425" y="23"/>
      <point x="456" y="0"/>
      <point x="557" y="0" type="curve" smooth="yes"/>
      <point x="619" y="0" type="line"/>
      <point x="619" y="10" type="line"/>
      <point x="617" y="10" type="line" smooth="yes"/>
      <point x="600" y="10"/>
      <point x="579" y="36"/>
      <point x="530" y="122" type="curve" smooth="yes"/>
      <point x="344" y="445" type="line"/>
      <point x="466" y="613" type="line" smooth="yes"/>
      <point x="525" y="695"/>
      <point x="542" y="704"/>
      <point x="589" y="704" type="curve"/>
      <point x="589" y="714" type="line"/>
      <point x="385" y="714" type="line"/>
      <point x="385" y="704" type="line"/>
      <point x="475" y="704"/>
      <point x="486" y="698"/>
      <point x="486" y="675" type="curve" smooth="yes"/>
      <point x="486" y="664"/>
      <point x="479" y="649"/>
      <point x="459" y="621" type="curve" smooth="yes"/>
      <point x="231" y="306" type="line"/>
      <point x="231" y="643" type="line" smooth="yes"/>
      <point x="231" y="690"/>
      <point x="242" y="704"/>
      <point x="269" y="704" type="curve" smooth="yes"/>
      <point x="297" y="704" type="line"/>
      <point x="297" y="714" type="line"/>
      <point x="22" y="714" type="line"/>
      <point x="22" y="704" type="line"/>
      <point x="57" y="704" type="line" smooth="yes"/>
      <point x="85" y="704"/>
      <point x="98" y="690"/>
      <point x="98" y="643" type="curve" smooth="yes"/>
      <point x="98" y="72" type="line" smooth="yes"/>
      <point x="98" y="23"/>
      <point x="83" y="10"/>
      <point x="53" y="10" type="curve" smooth="yes"/>
      <point x="22" y="10" type="line"/>
    </contour>
  </outline>
</glyph>
<glyph name="L" format="2">
  <advance width="396"/>
  <unicode hex="004C"/>
  <anchor x="223" y="0" name="bottom"/>
  <anchor x="198" y="357" name="center"/>
  <anchor x="131" y="714" name="top"/>
  <anchor x="269" y="714" name="topright"/>
  <outline>
    <contour>
      <point x="61" y="0" type="line"/>
      <point x="382" y="0" type="line"/>
      <point x="382" y="119" type="line"/>
      <point x="199" y="119" type="line"/>
      <point x="199" y="714" type="line"/>
      <point x="61" y="714" type="line"/>
    </contour>
  </outline>
</glyph>
<glyph name="L.serif" format="2">
  <advance width="535"/>
  <unicode hex="004C"/>
  <anchor x="268" y="0" name="bottom"/>
  <anchor x="163" y="357" name="center"/>
  <anchor x="163" y="714" name="top"/>
  <anchor x="515" y="714" name="topright"/>
  <outline>
    <contour>
      <point x="22" y="0" type="line"/>
      <point x="503" y="0" type="line"/>
      <point x="510" y="219" type="line"/>
      <point x="500" y="219" type="line"/>
      <point x="496" y="148" type="line" smooth="yes"/>
      <point x="490" y="47"/>
      <point x="450" y="10"/>
      <point x="346" y="10" type="curve" smooth="yes"/>
      <point x="231" y="10" type="line"/>
      <point x="231" y="636" type="line" smooth="yes"/>
      <point x="231" y="695"/>
      <point x="250" y="704"/>
      <point x="284" y="704" type="curve" smooth="yes"/>
      <point x="309" y="704" type="line"/>
      <point x="309" y="714" type="line"/>
      <point x="22" y="714" type="line"/>
      <point x="22" y="704" type="line"/>
      <point x="46" y="704" type="line" smooth="yes"/>
      <point x="80" y="704"/>
      <point x="98" y="695"/>
      <point x="98" y="633" type="curve" smooth="yes"/>
      <point x="98" y="81" type="line" smooth="yes"/>
      <point x="98" y="19"/>
      <point x="80" y="10"/>
      <point x="46" y="10" type="curve" smooth="yes"/>
      <point x="22" y="10" type="line"/>
    </contour>
  </outline>
</glyph>
<glyph name="M" format="2">
  <advance width="753"/>
  <unicode hex="004D"/>
  <anchor x="377" y="0" name="bottom"/>
  <anchor x="378" y="714" name="top"/>
  <anchor x="734" y="714" name="topright"/>
  <outline>
    <contour>
      <point x="321" y="0" type="line"/>
      <point x="427" y="0" type="line"/>
      <point x="563" y="526" type="line"/>
      <point x="566" y="526" type="line"/>
      <point x="563" y="463"/>
      <point x="561" y="413"/>
      <point x="561" y="369" type="curve" smooth="yes"/>
      <point x="561" y="0" type="line"/>
      <point x="692" y="0" type="line"/>
      <point x="692" y="714" type="line"/>
      <point x="504" y="714" type="line"/>
      <point x="379" y="225" type="line"/>
      <point x="376" y="225" type="line"/>
      <point x="251" y="714" type="line"/>
      <point x="61" y="714" type="line"/>
      <point x="61" y="0" type="line"/>
      <point x="190" y="0" type="line"/>
      <point x="190" y="368" type="line" smooth="yes"/>
      <point x="190" y="407"/>
      <point x="188" y="461"/>
      <point x="183" y="527" type="curve"/>
      <point x="187" y="527" type="line"/>
    </contour>
  </outline>
</glyph>
<glyph name="M.serif" format="2">
  <advance width="777"/>
  <unicode hex="004D"/>
  <anchor x="384" y="0" name="bottom"/>
  <anchor x="389" y="714" name="top"/>
  <anchor x="757" y="714" name="topright"/>
  <outline>
    <contour>
      <point x="22" y="0" type="line"/>
      <point x="228" y="0" type="line"/>
      <point x="228" y="10" type="line"/>
      <point x="189" y="10" type="line" smooth="yes"/>
      <point x="147" y="10"/>
      <point x="128" y="18"/>
      <point x="128" y="79" type="curve" smooth="yes"/>
      <point x="128" y="672" type="line"/>
      <point x="304" y="0" type="line"/>
      <point x="378" y="0" type="line"/>
      <point x="549" y="684" type="line"/>
      <point x="549" y="80" type="line" smooth="yes"/>
      <point x="549" y="24"/>
      <point x="539" y="10"/>
      <point x="500" y="10" type="curve" smooth="yes"/>
      <point x="486" y="10" type="line"/>
      <point x="486" y="0" type="line"/>
      <point x="755" y="0" type="line"/>
      <point x="755" y="10" type="line"/>
      <point x="725" y="10" type="line" smooth="yes"/>
      <point x="691" y="10"/>
      <point x="681" y="24"/>
      <point x="681" y="72" type="curve" smooth="yes"/>
      <point x="681" y="642" type="line" smooth="yes"/>
      <point x="681" y="690"/>
      <point x="695" y="704"/>
      <point x="718" y="704" type="curve" smooth="yes"/>
      <point x="755" y="704" type="line"/>
      <point x="755" y="714" type="line"/>
      <point x="546" y="714" type="line"/>
      <point x="393" y="108" type="line"/>
      <point x="241" y="714" type="line"/>
      <point x="22" y="714" type="line"/>
      <point x="22" y="704" type="line"/>
      <point x="77" y="704" type="line" smooth="yes"/>
      <point x="103" y="704"/>
      <point x="118" y="690"/>
      <point x="118" y="639" type="curve" smooth="yes"/>
      <point x="118" y="75" type="line" smooth="yes"/>
      <point x="118" y="23"/>
      <point x="103" y="10"/>
      <point x="67" y="10" type="curve" smooth="yes"/>
      <point x="22" y="10" type="line"/>
    </contour>
  </outline>
</glyph>
<glyph name="N" format="2">
  <advance width="608"/>
  <unicode hex="004E"/>
  <anchor x="304" y="0" name="bottom"/>
  <anchor x="304" y="714" name="top"/>
  <anchor x="589" y="714" name="topright"/>
  <outline>
    <contour>
      <point x="547" y="0" type="line"/>
      <point x="547" y="714" type="line"/>
      <point x="417" y="714" type="line"/>
      <point x="417" y="389" type="line" smooth="yes"/>
      <point x="417" y="348"/>
      <point x="420" y="294"/>
      <point x="424" y="227" type="curve"/>
      <point x="420" y="227" type="line"/>
      <point x="222" y="714" type="line"/>
      <point x="61" y="714" type="line"/>
      <point x="61" y="0" type="line"/>
      <point x="190" y="0" type="line"/>
      <point x="190" y="331" type="line" smooth="yes"/>
      <point x="190" y="372"/>
      <point x="188" y="428"/>
      <point x="182" y="498" type="curve"/>
      <point x="186" y="498" type="line"/>
      <point x="385" y="0" type="line"/>
    </contour>
  </outline>
</glyph>
<glyph name="N.serif" format="2">
  <advance width="644"/>
  <unicode hex="004E"/>
  <anchor x="322" y="0" name="bottom"/>
  <anchor x="322" y="714" name="top"/>
  <anchor x="624" y="714" name="topright"/>
  <outline>
    <contour>
      <point x="22" y="0" type="line"/>
      <point x="224" y="0" type="line"/>
      <point x="224" y="10" type="line"/>
      <point x="167" y="10" type="line" smooth="yes"/>
      <point x="132" y="10"/>
      <point x="123" y="24"/>
      <point x="123" y="79" type="curve" smooth="yes"/>
      <point x="123" y="667" type="line"/>
      <point x="460" y="0" type="line"/>
      <point x="533" y="0" type="line"/>
      <point x="533" y="635" type="line" smooth="yes"/>
      <point x="533" y="690"/>
      <point x="542" y="704"/>
      <point x="578" y="704" type="curve" smooth="yes"/>
      <point x="632" y="704" type="line"/>
      <point x="632" y="714" type="line"/>
      <point x="423" y="714" type="line"/>
      <point x="423" y="704" type="line"/>
      <point x="479" y="704" type="line" smooth="yes"/>
      <point x="514" y="704"/>
      <point x="523" y="691"/>
      <point x="523" y="638" type="curve" smooth="yes"/>
      <point x="523" y="138" type="line"/>
      <point x="232" y="714" type="line"/>
      <point x="22" y="714" type="line"/>
      <point x="22" y="704" type="line"/>
      <point x="68" y="704" type="line" smooth="yes"/>
      <point x="104" y="704"/>
      <point x="113" y="691"/>
      <point x="113" y="638" type="curve" smooth="yes"/>
      <point x="113" y="79" type="line" smooth="yes"/>
      <point x="113" y="24"/>
      <point x="102" y="10"/>
      <point x="62" y="10" type="curve" smooth="yes"/>
      <point x="22" y="10" type="line"/>
    </contour>
  </outline>
</glyph>
<glyph name="O" format="2">
  <advance width="579"/>
  <unicode hex="004F"/>
  <anchor x="290" y="0" name="bottom"/>
  <anchor x="290" y="357" name="center"/>
  <anchor x="290" y="725" name="top"/>
  <anchor x="560" y="725" name="topright"/>
  <outline>
    <contour>
      <point x="538" y="358" type="curve" smooth="yes"/>
      <point x="538" y="585"/>
      <point x="458" y="725"/>
      <point x="290" y="725" type="curve" smooth="yes"/>
      <point x="127" y="725"/>
      <point x="41" y="599"/>
      <point x="41" y="359" type="curve" smooth="yes"/>
      <point x="41" y="133"/>
      <point x="123" y="-10"/>
      <point x="290" y="-10" type="curve" smooth="yes"/>
      <point x="457" y="-10"/>
      <point x="538" y="131"/>
    </contour>
    <contour>
      <point x="184" y="358" type="curve" smooth="yes"/>
      <point x="184" y="522"/>
      <point x="220" y="606"/>
      <point x="290" y="606" type="curve" smooth="yes"/>
      <point x="360" y="606"/>
      <point x="395" y="525"/>
      <point x="395" y="358" type="curve" smooth="yes"/>
      <point x="395" y="190"/>
      <point x="360" y="111"/>
      <point x="290" y="111" type="curve" smooth="yes"/>
      <point x="220" y="111"/>
      <point x="184" y="194"/>
    </contour>
  </outline>
</glyph>
<glyph name="O.serif" format="2">
  <advance width="646"/>
  <unicode hex="004F"/>
  <anchor x="323" y="0" name="bottom"/>
  <anchor x="323" y="357" name="center"/>
  <anchor x="323" y="714" name="top"/>
  <anchor x="626" y="714" name="topright"/>
  <outline>
    <contour>
      <point x="324" y="-10" type="curve" smooth="yes"/>
      <point x="501" y="-10"/>
      <point x="601" y="134"/>
      <point x="601" y="358" type="curve" smooth="yes"/>
      <point x="601" y="587"/>
      <point x="504" y="725"/>
      <point x="325" y="725" type="curve" smooth="yes"/>
      <point x="136" y="725"/>
      <point x="45" y="584"/>
      <point x="45" y="359" type="curve" smooth="yes"/>
      <point x="45" y="137"/>
      <point x="136" y="-10"/>
    </contour>
    <contour>
      <point x="324" y="0" type="curve" smooth="yes"/>
      <point x="222" y="0"/>
      <point x="184" y="91"/>
      <point x="184" y="358" type="curve" smooth="yes"/>
      <point x="184" y="627"/>
      <point x="221" y="715"/>
      <point x="325" y="715" type="curve" smooth="yes"/>
      <point x="428" y="715"/>
      <point x="462" y="627"/>
      <point x="462" y="358" type="curve" smooth="yes"/>
      <point x="462" y="90"/>
      <point x="424" y="0"/>
    </contour>
  </outline>
</glyph>
<glyph name="P" format="2">
  <advance width="480"/>
  <unicode hex="0050"/>
  <anchor x="239" y="0" name="bottom"/>
  <anchor x="255" y="714" name="top"/>
  <anchor x="460" y="714" name="topright"/>
  <outline>
    <contour>
      <point x="241" y="714" type="curve" smooth="yes"/>
      <point x="61" y="714" type="line"/>
      <point x="61" y="0" type="line"/>
      <point x="199" y="0" type="line"/>
      <point x="199" y="253" type="line"/>
      <point x="235" y="253" type="line" smooth="yes"/>
      <point x="381" y="253"/>
      <point x="451" y="349"/>
      <point x="451" y="493" type="curve" smooth="yes"/>
      <point x="451" y="637"/>
      <point x="382" y="714"/>
    </contour>
    <contour>
      <point x="231" y="597" type="line"/>
      <point x="287" y="597"/>
      <point x="314" y="565"/>
      <point x="314" y="492" type="curve" smooth="yes"/>
      <point x="314" y="404"/>
      <point x="281" y="370"/>
      <point x="221" y="370" type="curve" smooth="yes"/>
      <point x="199" y="370" type="line"/>
      <point x="199" y="597" type="line"/>
    </contour>
  </outline>
</glyph>
<glyph name="P.serif" format="2">
  <advance width="523"/>
  <unicode hex="0050"/>
  <anchor x="164" y="0" name="bottom"/>
  <anchor x="262" y="714" name="top"/>
  <anchor x="542" y="714" name="topright"/>
  <outline>
    <contour>
      <point x="22" y="0" type="line"/>
      <point x="323" y="0" type="line"/>
      <point x="323" y="10" type="line"/>
      <point x="274" y="10" type="line" smooth="yes"/>
      <point x="239" y="10"/>
      <point x="231" y="23"/>
      <point x="231" y="75" type="curve" smooth="yes"/>
      <point x="231" y="274" type="line"/>
      <point x="262" y="274" type="line" smooth="yes"/>
      <point x="445" y="274"/>
      <point x="512" y="378"/>
      <point x="512" y="503" type="curve" smooth="yes"/>
      <point x="512" y="643"/>
      <point x="439" y="714"/>
      <point x="278" y="714" type="curve" smooth="yes"/>
      <point x="22" y="714" type="line"/>
      <point x="22" y="704" type="line"/>
      <point x="55" y="704" type="line" smooth="yes"/>
      <point x="89" y="704"/>
      <point x="98" y="691"/>
      <point x="98" y="638" type="curve" smooth="yes"/>
      <point x="98" y="79" type="line" smooth="yes"/>
      <point x="98" y="24"/>
      <point x="89" y="10"/>
      <point x="51" y="10" type="curve" smooth="yes"/>
      <point x="22" y="10" type="line"/>
    </contour>
    <contour>
      <point x="257" y="284" type="curve" smooth="yes"/>
      <point x="231" y="284" type="line"/>
      <point x="231" y="704" type="line"/>
      <point x="268" y="704" type="line" smooth="yes"/>
      <point x="348" y="704"/>
      <point x="375" y="652"/>
      <point x="375" y="501" type="curve" smooth="yes"/>
      <point x="375" y="351"/>
      <point x="348" y="284"/>
    </contour>
  </outline>
</glyph>
<glyph name="Q" format="2">
  <advance width="579"/>
  <unicode hex="0051"/>
  <anchor x="290" y="-170" name="bottom"/>
  <anchor x="290" y="725" name="top"/>
  <anchor x="560" y="725" name="topright"/>
  <outline>
    <contour>
      <point x="538" y="358" type="curve" smooth="yes"/>
      <point x="538" y="599"/>
      <point x="452" y="725"/>
      <point x="290" y="725" type="curve" smooth="yes"/>
      <point x="127" y="725"/>
      <point x="41" y="599"/>
      <point x="41" y="359" type="curve" smooth="yes"/>
      <point x="41" y="146"/>
      <point x="118" y="-9"/>
      <point x="278" y="-9" type="curve"/>
      <point x="281" y="-9"/>
      <point x="286" y="-9"/>
      <point x="289" y="-9" type="curve"/>
      <point x="373" y="-170" type="line"/>
      <point x="529" y="-170" type="line"/>
      <point x="415" y="23" type="line"/>
      <point x="495" y="74"/>
      <point x="538" y="188"/>
    </contour>
    <contour>
      <point x="184" y="358" type="curve" smooth="yes"/>
      <point x="184" y="522"/>
      <point x="220" y="606"/>
      <point x="290" y="606" type="curve" smooth="yes"/>
      <point x="360" y="606"/>
      <point x="395" y="525"/>
      <point x="395" y="358" type="curve" smooth="yes"/>
      <point x="395" y="190"/>
      <point x="360" y="111"/>
      <point x="290" y="111" type="curve" smooth="yes"/>
      <point x="220" y="111"/>
      <point x="184" y="194"/>
    </contour>
  </outline>
</glyph>
<glyph name="Q.serif" format="2">
  <advance width="646"/>
  <unicode hex="0051"/>
  <anchor x="323" y="-233" name="bottom"/>
  <anchor x="323" y="714" name="top"/>
  <anchor x="626" y="714" name="topright"/>
  <outline>
    <contour>
      <point x="472" y="-233" type="curve" smooth="yes"/>
      <point x="534" y="-233" type="line"/>
      <point x="534" y="-223" type="line"/>
      <point x="521" y="-223" type="line" smooth="yes"/>
      <point x="470" y="-223"/>
      <point x="409" y="-194"/>
      <point x="402" y="1" type="curve"/>
      <point x="530" y="36"/>
      <point x="601" y="167"/>
      <point x="601" y="358" type="curve" smooth="yes"/>
      <point x="601" y="587"/>
      <point x="504" y="725"/>
      <point x="325" y="725" type="curve" smooth="yes"/>
      <point x="136" y="725"/>
      <point x="45" y="584"/>
      <point x="45" y="359" type="curve" smooth="yes"/>
      <point x="45" y="161"/>
      <point x="116" y="23"/>
      <point x="263" y="-3" type="curve"/>
      <point x="274" y="-174"/>
      <point x="372" y="-233"/>
    </contour>
    <contour>
      <point x="324" y="0" type="curve" smooth="yes"/>
      <point x="222" y="0"/>
      <point x="184" y="91"/>
      <point x="184" y="358" type="curve" smooth="yes"/>
      <point x="184" y="627"/>
      <point x="221" y="715"/>
      <point x="325" y="715" type="curve" smooth="yes"/>
      <point x="428" y="715"/>
      <point x="462" y="627"/>
      <point x="462" y="358" type="curve" smooth="yes"/>
      <point x="462" y="90"/>
      <point x="424" y="0"/>
    </contour>
  </outline>
</glyph>
<glyph name="R" format="2">
  <advance width="501"/>
  <unicode hex="0052"/>
  <anchor x="261" y="0" name="bottom"/>
  <anchor x="256" y="714" name="top"/>
  <anchor x="482" y="714" name="topright"/>
  <outline>
    <contour>
      <point x="226" y="714" type="curve" smooth="yes"/>
      <point x="61" y="714" type="line"/>
      <point x="61" y="0" type="line"/>
      <point x="199" y="0" type="line"/>
      <point x="199" y="280" type="line"/>
      <point x="236" y="280" type="line"/>
      <point x="348" y="0" type="line"/>
      <point x="500" y="0" type="line"/>
      <point x="357" y="314" type="line"/>
      <point x="424" y="356"/>
      <point x="455" y="419"/>
      <point x="455" y="507" type="curve" smooth="yes"/>
      <point x="455" y="645"/>
      <point x="380" y="714"/>
    </contour>
    <contour>
      <point x="225" y="598" type="line"/>
      <point x="285" y="598"/>
      <point x="315" y="567"/>
      <point x="315" y="500" type="curve" smooth="yes"/>
      <point x="315" y="425"/>
      <point x="285" y="388"/>
      <point x="227" y="388" type="curve" smooth="yes"/>
      <point x="199" y="388" type="line"/>
      <point x="199" y="598" type="line"/>
    </contour>
  </outline>
</glyph>
<glyph name="R.serif" format="2">
  <advance width="586"/>
  <unicode hex="0052"/>
  <anchor x="324" y="0" name="bottom"/>
  <anchor x="293" y="714" name="top"/>
  <anchor x="566" y="714" name="topright"/>
  <outline>
    <contour>
      <point x="22" y="0" type="line"/>
      <point x="297" y="0" type="line"/>
      <point x="297" y="10" type="line"/>
      <point x="275" y="10" type="line" smooth="yes"/>
      <point x="240" y="10"/>
      <point x="231" y="23"/>
      <point x="231" y="75" type="curve" smooth="yes"/>
      <point x="231" y="330" type="line"/>
      <point x="267" y="330" type="line"/>
      <point x="377" y="95" type="line" smooth="yes"/>
      <point x="412" y="22"/>
      <point x="453" y="0"/>
      <point x="557" y="0" type="curve" smooth="yes"/>
      <point x="588" y="0" type="line"/>
      <point x="588" y="10" type="line"/>
      <point x="585" y="10" type="line" smooth="yes"/>
      <point x="569" y="10"/>
      <point x="561" y="15"/>
      <point x="500" y="132" type="curve" smooth="yes"/>
      <point x="392" y="337" type="line"/>
      <point x="473" y="359"/>
      <point x="523" y="413"/>
      <point x="523" y="526" type="curve" smooth="yes"/>
      <point x="523" y="644"/>
      <point x="462" y="714"/>
      <point x="290" y="714" type="curve" smooth="yes"/>
      <point x="22" y="714" type="line"/>
      <point x="22" y="704" type="line"/>
      <point x="51" y="704" type="line" smooth="yes"/>
      <point x="88" y="704"/>
      <point x="98" y="691"/>
      <point x="98" y="638" type="curve" smooth="yes"/>
      <point x="98" y="75" type="line" smooth="yes"/>
      <point x="98" y="23"/>
      <point x="88" y="10"/>
      <point x="51" y="10" type="curve" smooth="yes"/>
      <point x="22" y="10" type="line"/>
    </contour>
    <contour>
      <point x="275" y="340" type="curve" smooth="yes"/>
      <point x="231" y="340" type="line"/>
      <point x="231" y="704" type="line"/>
      <point x="275" y="704" type="line" smooth="yes"/>
      <point x="352" y="704"/>
      <point x="382" y="652"/>
      <point x="382" y="530" type="curve" smooth="yes"/>
      <point x="382" y="395"/>
      <point x="353" y="340"/>
    </contour>
  </outline>
</glyph>
<glyph name="S" format="2">
  <advance width="426"/>
  <unicode hex="0053"/>
  <anchor x="200" y="0" name="bottom"/>
  <anchor x="226" y="714" name="top"/>
  <anchor x="407" y="714" name="topright"/>
  <outline>
    <contour>
      <point x="398" y="209" type="curve" smooth="yes"/>
      <point x="398" y="303"/>
      <point x="356" y="362"/>
      <point x="269" y="412" type="curve" smooth="yes"/>
      <point x="189" y="458"/>
      <point x="173" y="479"/>
      <point x="173" y="530" type="curve" smooth="yes"/>
      <point x="173" y="570"/>
      <point x="195" y="599"/>
      <point x="239" y="599" type="curve" smooth="yes"/>
      <point x="274" y="599"/>
      <point x="314" y="586"/>
      <point x="359" y="558" type="curve"/>
      <point x="397" y="679" type="line"/>
      <point x="345" y="708"/>
      <point x="290" y="724"/>
      <point x="234" y="724" type="curve"/>
      <point x="108" y="724"/>
      <point x="35" y="644"/>
      <point x="35" y="523" type="curve" smooth="yes"/>
      <point x="35" y="410"/>
      <point x="86" y="363"/>
      <point x="167" y="313" type="curve" smooth="yes"/>
      <point x="244" y="266"/>
      <point x="259" y="241"/>
      <point x="259" y="195" type="curve" smooth="yes"/>
      <point x="259" y="151"/>
      <point x="234" y="117"/>
      <point x="185" y="117" type="curve" smooth="yes"/>
      <point x="139" y="117"/>
      <point x="81" y="135"/>
      <point x="30" y="169" type="curve"/>
      <point x="30" y="29" type="line"/>
      <point x="83" y="0"/>
      <point x="134" y="-10"/>
      <point x="193" y="-10" type="curve" smooth="yes"/>
      <point x="318" y="-10"/>
      <point x="398" y="80"/>
    </contour>
  </outline>
</glyph>
<glyph name="S.serif" format="2">
  <advance width="474"/>
  <unicode hex="0053"/>
  <anchor x="232" y="-10" name="bottom"/>
  <anchor x="237" y="714" name="top"/>
  <anchor x="454" y="714" name="topright"/>
  <outline>
    <contour>
      <point x="226" y="-10" type="curve" smooth="yes"/>
      <point x="361" y="-10"/>
      <point x="446" y="72"/>
      <point x="446" y="204" type="curve" smooth="yes"/>
      <point x="446" y="299"/>
      <point x="404" y="359"/>
      <point x="289" y="416" type="curve" smooth="yes"/>
      <point x="177" y="471"/>
      <point x="135" y="510"/>
      <point x="135" y="593" type="curve" smooth="yes"/>
      <point x="135" y="677"/>
      <point x="184" y="714"/>
      <point x="234" y="714" type="curve" smooth="yes"/>
      <point x="297" y="714"/>
      <point x="327" y="657"/>
      <point x="327" y="532" type="curve"/>
      <point x="398" y="532"/>
      <point x="424" y="561"/>
      <point x="424" y="601" type="curve" smooth="yes"/>
      <point x="424" y="662"/>
      <point x="370" y="724"/>
      <point x="248" y="724" type="curve" smooth="yes"/>
      <point x="131" y="724"/>
      <point x="44" y="651"/>
      <point x="44" y="526" type="curve" smooth="yes"/>
      <point x="44" y="437"/>
      <point x="84" y="371"/>
      <point x="196" y="315" type="curve" smooth="yes"/>
      <point x="287" y="267"/>
      <point x="353" y="234"/>
      <point x="353" y="128" type="curve" smooth="yes"/>
      <point x="353" y="44"/>
      <point x="314" y="1"/>
      <point x="244" y="1" type="curve" smooth="yes"/>
      <point x="154" y="1"/>
      <point x="116" y="74"/>
      <point x="116" y="214" type="curve"/>
      <point x="69" y="214"/>
      <point x="27" y="189"/>
      <point x="27" y="129" type="curve" smooth="yes"/>
      <point x="27" y="69"/>
      <point x="65" y="-10"/>
    </contour>
  </outline>
</glyph>
<glyph name="T" format="2">
  <advance width="421"/>
  <unicode hex="0054"/>
  <anchor x="211" y="0" name="bottom"/>
  <anchor x="211" y="357" name="center"/>
  <anchor x="211" y="714" name="top"/>
  <anchor x="401" y="714" name="topright"/>
  <outline>
    <contour>
      <point x="278" y="0" type="line"/>
      <point x="278" y="595" type="line"/>
      <point x="406" y="595" type="line"/>
      <point x="406" y="714" type="line"/>
      <point x="14" y="714" type="line"/>
      <point x="14" y="595" type="line"/>
      <point x="142" y="595" type="line"/>
      <point x="142" y="0" type="line"/>
    </contour>
  </outline>
</glyph>
<glyph name="T.serif" format="2">
  <advance width="536"/>
  <unicode hex="0054"/>
  <anchor x="268" y="0" name="bottom"/>
  <anchor x="268" y="357" name="center"/>
  <anchor x="268" y="714" name="top"/>
  <anchor x="555" y="714" name="topright"/>
  <outline>
    <contour>
      <point x="120" y="0" type="line"/>
      <point x="416" y="0" type="line"/>
      <point x="416" y="10" type="line"/>
      <point x="388" y="10" type="line" smooth="yes"/>
      <point x="346" y="10"/>
      <point x="336" y="25"/>
      <point x="336" y="81" type="curve" smooth="yes"/>
      <point x="336" y="704" type="line"/>
      <point x="380" y="704" type="line" smooth="yes"/>
      <point x="479" y="704"/>
      <point x="510" y="675"/>
      <point x="516" y="581" type="curve" smooth="yes"/>
      <point x="519" y="531" type="line"/>
      <point x="529" y="531" type="line"/>
      <point x="522" y="714" type="line"/>
      <point x="14" y="714" type="line"/>
      <point x="7" y="531" type="line"/>
      <point x="17" y="531" type="line"/>
      <point x="20" y="581" type="line" smooth="yes"/>
      <point x="26" y="675"/>
      <point x="57" y="704"/>
      <point x="156" y="704" type="curve" smooth="yes"/>
      <point x="201" y="704" type="line"/>
      <point x="201" y="81" type="line" smooth="yes"/>
      <point x="201" y="25"/>
      <point x="191" y="10"/>
      <point x="149" y="10" type="curve" smooth="yes"/>
      <point x="120" y="10" type="line"/>
    </contour>
  </outline>
</glyph>
<glyph name="U" format="2">
  <advance width="549"/>
  <unicode hex="0055"/>
  <anchor x="274" y="0" name="bottom"/>
  <anchor x="275" y="714" name="top"/>
  <anchor x="530" y="714" name="topright"/>
  <outline>
    <contour>
      <point x="492" y="235" type="curve" smooth="yes"/>
      <point x="492" y="714" type="line"/>
      <point x="355" y="714" type="line"/>
      <point x="355" y="238" type="line" smooth="yes"/>
      <point x="355" y="145"/>
      <point x="329" y="111"/>
      <point x="275" y="111" type="curve" smooth="yes"/>
      <point x="223" y="111"/>
      <point x="196" y="146"/>
      <point x="196" y="237" type="curve" smooth="yes"/>
      <point x="196" y="714" type="line"/>
      <point x="58" y="714" type="line"/>
      <point x="58" y="232" type="line" smooth="yes"/>
      <point x="58" y="69"/>
      <point x="135" y="-10"/>
      <point x="274" y="-10" type="curve" smooth="yes"/>
      <point x="416" y="-10"/>
      <point x="492" y="71"/>
    </contour>
  </outline>
</glyph>
<glyph name="U.serif" format="2">
  <advance width="612"/>
  <unicode hex="0055"/>
  <anchor x="306" y="0" name="bottom"/>
  <anchor x="341" y="714" name="top"/>
  <anchor x="621" y="714" name="topright"/>
  <outline>
    <contour>
      <point x="313" y="-10" type="curve" smooth="yes"/>
      <point x="451" y="-10"/>
      <point x="506" y="58"/>
      <point x="506" y="211" type="curve" smooth="yes"/>
      <point x="506" y="635" type="line" smooth="yes"/>
      <point x="506" y="696"/>
      <point x="524" y="704"/>
      <point x="552" y="704" type="curve" smooth="yes"/>
      <point x="599" y="704" type="line"/>
      <point x="599" y="714" type="line"/>
      <point x="392" y="714" type="line"/>
      <point x="392" y="704" type="line"/>
      <point x="443" y="704" type="line" smooth="yes"/>
      <point x="478" y="704"/>
      <point x="496" y="696"/>
      <point x="496" y="638" type="curve" smooth="yes"/>
      <point x="496" y="207" type="line" smooth="yes"/>
      <point x="496" y="75"/>
      <point x="450" y="8"/>
      <point x="344" y="8" type="curve" smooth="yes"/>
      <point x="268" y="8"/>
      <point x="223" y="48"/>
      <point x="223" y="169" type="curve" smooth="yes"/>
      <point x="223" y="635" type="line" smooth="yes"/>
      <point x="223" y="696"/>
      <point x="242" y="704"/>
      <point x="276" y="704" type="curve" smooth="yes"/>
      <point x="300" y="704" type="line"/>
      <point x="300" y="714" type="line"/>
      <point x="13" y="714" type="line"/>
      <point x="13" y="704" type="line"/>
      <point x="36" y="704" type="line" smooth="yes"/>
      <point x="70" y="704"/>
      <point x="90" y="696"/>
      <point x="90" y="639" type="curve" smooth="yes"/>
      <point x="90" y="217" type="line" smooth="yes"/>
      <point x="90" y="54"/>
      <point x="182" y="-10"/>
    </contour>
  </outline>
</glyph>
<glyph name="V" format="2">
  <advance width="504"/>
  <unicode hex="0056"/>
  <anchor x="250" y="0" name="bottom"/>
  <anchor x="254" y="714" name="top"/>
  <anchor x="485" y="714" name="topright"/>
  <outline>
    <contour>
      <point x="504" y="714" type="line"/>
      <point x="362" y="714" type="line"/>
      <point x="279" y="311" type="line" smooth="yes"/>
      <point x="270" y="265"/>
      <point x="257" y="191"/>
      <point x="252" y="148" type="curve"/>
      <point x="247" y="191"/>
      <point x="234" y="266"/>
      <point x="225" y="311" type="curve" smooth="yes"/>
      <point x="143" y="714" type="line"/>
      <point x="0" y="714" type="line"/>
      <point x="172" y="0" type="line"/>
      <point x="331" y="0" type="line"/>
    </contour>
  </outline>
</glyph>
<glyph name="V.serif" format="2">
  <advance width="571"/>
  <unicode hex="0056"/>
  <anchor x="285" y="0" name="bottom"/>
  <anchor x="325" y="714" name="top"/>
  <anchor x="591" y="714" name="topright"/>
  <outline>
    <contour>
      <point x="61" y="658" type="curve" smooth="yes"/>
      <point x="238" y="0" type="line"/>
      <point x="330" y="0" type="line"/>
      <point x="490" y="656" type="line" smooth="yes"/>
      <point x="499" y="694"/>
      <point x="512" y="704"/>
      <point x="550" y="704" type="curve" smooth="yes"/>
      <point x="571" y="704" type="line"/>
      <point x="571" y="714" type="line"/>
      <point x="396" y="714" type="line"/>
      <point x="396" y="704" type="line"/>
      <point x="424" y="704" type="line" smooth="yes"/>
      <point x="467" y="704"/>
      <point x="478" y="697"/>
      <point x="478" y="676" type="curve" smooth="yes"/>
      <point x="478" y="654"/>
      <point x="473" y="628"/>
      <point x="460" y="574" type="curve" smooth="yes"/>
      <point x="381" y="250" type="line" smooth="yes"/>
      <point x="359" y="162"/>
      <point x="349" y="124"/>
      <point x="336" y="66" type="curve"/>
      <point x="327" y="107"/>
      <point x="302" y="223"/>
      <point x="291" y="268" type="curve" smooth="yes"/>
      <point x="206" y="613" type="line" smooth="yes"/>
      <point x="199" y="641"/>
      <point x="195" y="663"/>
      <point x="195" y="678" type="curve" smooth="yes"/>
      <point x="195" y="697"/>
      <point x="201" y="704"/>
      <point x="232" y="704" type="curve" smooth="yes"/>
      <point x="268" y="704" type="line"/>
      <point x="268" y="714" type="line"/>
      <point x="0" y="714" type="line"/>
      <point x="0" y="704" type="line"/>
      <point x="11" y="704" type="line" smooth="yes"/>
      <point x="40" y="704"/>
      <point x="51" y="695"/>
    </contour>
  </outline>
</glyph>
<glyph name="W" format="2">
  <advance width="757"/>
  <unicode hex="0057"/>
  <anchor x="378" y="0" name="bottom"/>
  <anchor x="378" y="714" name="top"/>
  <anchor x="738" y="714" name="topright"/>
  <outline>
    <contour>
      <point x="755" y="714" type="line"/>
      <point x="617" y="714" type="line"/>
      <point x="555" y="353" type="line" smooth="yes"/>
      <point x="545" y="292"/>
      <point x="534" y="218"/>
      <point x="530" y="159" type="curve"/>
      <point x="522" y="225"/>
      <point x="510" y="300"/>
      <point x="501" y="352" type="curve" smooth="yes"/>
      <point x="435" y="714" type="line"/>
      <point x="321" y="714" type="line"/>
      <point x="252" y="351" type="line" smooth="yes"/>
      <point x="243" y="303"/>
      <point x="230" y="226"/>
      <point x="223" y="159" type="curve"/>
      <point x="217" y="217"/>
      <point x="206" y="296"/>
      <point x="196" y="353" type="curve" smooth="yes"/>
      <point x="135" y="714" type="line"/>
      <point x="1" y="714" type="line"/>
      <point x="137" y="0" type="line"/>
      <point x="293" y="0" type="line"/>
      <point x="355" y="341" type="line" smooth="yes"/>
      <point x="365" y="395"/>
      <point x="373" y="464"/>
      <point x="378" y="514" type="curve"/>
      <point x="384" y="447"/>
      <point x="393" y="387"/>
      <point x="401" y="340" type="curve" smooth="yes"/>
      <point x="462" y="0" type="line"/>
      <point x="620" y="0" type="line"/>
    </contour>
  </outline>
</glyph>
<glyph name="W.serif" format="2">
  <advance width="871"/>
  <unicode hex="0057"/>
  <anchor x="436" y="0" name="bottom"/>
  <anchor x="476" y="714" name="top"/>
  <anchor x="891" y="714" name="topright"/>
  <outline>
    <contour>
      <point x="77" y="652" type="curve" smooth="yes"/>
      <point x="222" y="0" type="line"/>
      <point x="312" y="0" type="line"/>
      <point x="432" y="538" type="line"/>
      <point x="572" y="0" type="line"/>
      <point x="639" y="0" type="line"/>
      <point x="775" y="633" type="line" smooth="yes"/>
      <point x="788" y="694"/>
      <point x="803" y="704"/>
      <point x="838" y="704" type="curve" smooth="yes"/>
      <point x="873" y="704" type="line"/>
      <point x="873" y="714" type="line"/>
      <point x="670" y="714" type="line"/>
      <point x="670" y="704" type="line"/>
      <point x="714" y="704" type="line" smooth="yes"/>
      <point x="753" y="704"/>
      <point x="766" y="693"/>
      <point x="766" y="665" type="curve" smooth="yes"/>
      <point x="766" y="652"/>
      <point x="764" y="631"/>
      <point x="758" y="604" type="curve" smooth="yes"/>
      <point x="694" y="309" type="line" smooth="yes"/>
      <point x="679" y="237"/>
      <point x="670" y="194"/>
      <point x="662" y="154" type="curve"/>
      <point x="651" y="199"/>
      <point x="639" y="247"/>
      <point x="622" y="310" type="curve" smooth="yes"/>
      <point x="512" y="709" type="line"/>
      <point x="460" y="709" type="line"/>
      <point x="364" y="282" type="line" smooth="yes"/>
      <point x="350" y="218"/>
      <point x="336" y="159"/>
      <point x="324" y="101" type="curve"/>
      <point x="315" y="155"/>
      <point x="298" y="245"/>
      <point x="286" y="307" type="curve" smooth="yes"/>
      <point x="226" y="598" type="line" smooth="yes"/>
      <point x="221" y="622"/>
      <point x="217" y="652"/>
      <point x="217" y="663" type="curve" smooth="yes"/>
      <point x="217" y="691"/>
      <point x="230" y="704"/>
      <point x="267" y="704" type="curve" smooth="yes"/>
      <point x="294" y="704" type="line"/>
      <point x="294" y="714" type="line"/>
      <point x="0" y="714" type="line"/>
      <point x="0" y="704" type="line"/>
      <point x="25" y="704" type="line" smooth="yes"/>
      <point x="52" y="704"/>
      <point x="67" y="695"/>
    </contour>
  </outline>
</glyph>
<glyph name="X" format="2">
  <advance width="467"/>
  <unicode hex="0058"/>
  <anchor x="234" y="0" name="bottom"/>
  <anchor x="231" y="714" name="top"/>
  <anchor x="447" y="714" name="topright"/>
  <outline>
    <contour>
      <point x="466" y="0" type="line"/>
      <point x="309" y="364" type="line"/>
      <point x="448" y="714" type="line"/>
      <point x="303" y="714" type="line"/>
      <point x="230" y="489" type="line"/>
      <point x="156" y="714" type="line"/>
      <point x="13" y="714" type="line"/>
      <point x="155" y="363" type="line"/>
      <point x="1" y="0" type="line"/>
      <point x="145" y="0" type="line"/>
      <point x="234" y="239" type="line"/>
      <point x="318" y="0" type="line"/>
    </contour>
  </outline>
</glyph>
<glyph name="X.serif" format="2">
  <advance width="604"/>
  <unicode hex="0058"/>
  <anchor x="292" y="0" name="bottom"/>
  <anchor x="332" y="714" name="top"/>
  <anchor x="604" y="714" name="topright"/>
  <outline>
    <contour>
      <point x="8" y="0" type="line"/>
      <point x="200" y="0" type="line"/>
      <point x="200" y="10" type="line"/>
      <point x="147" y="10" type="line" smooth="yes"/>
      <point x="119" y="10"/>
      <point x="109" y="16"/>
      <point x="109" y="31" type="curve" smooth="yes"/>
      <point x="109" y="45"/>
      <point x="118" y="64"/>
      <point x="140" y="106" type="curve" smooth="yes"/>
      <point x="258" y="321" type="line"/>
      <point x="363" y="112" type="line" smooth="yes"/>
      <point x="381" y="74"/>
      <point x="390" y="51"/>
      <point x="390" y="36" type="curve" smooth="yes"/>
      <point x="390" y="18"/>
      <point x="377" y="10"/>
      <point x="343" y="10" type="curve" smooth="yes"/>
      <point x="321" y="10" type="line"/>
      <point x="321" y="0" type="line"/>
      <point x="595" y="0" type="line"/>
      <point x="595" y="10" type="line"/>
      <point x="589" y="10" type="line" smooth="yes"/>
      <point x="565" y="10"/>
      <point x="553" y="21"/>
      <point x="533" y="62" type="curve" smooth="yes"/>
      <point x="359" y="411" type="line"/>
      <point x="494" y="658" type="line" smooth="yes"/>
      <point x="514" y="695"/>
      <point x="529" y="704"/>
      <point x="561" y="704" type="curve" smooth="yes"/>
      <point x="583" y="704" type="line"/>
      <point x="583" y="714" type="line"/>
      <point x="398" y="714" type="line"/>
      <point x="398" y="704" type="line"/>
      <point x="450" y="704" type="line" smooth="yes"/>
      <point x="476" y="704"/>
      <point x="485" y="698"/>
      <point x="485" y="683" type="curve" smooth="yes"/>
      <point x="485" y="669"/>
      <point x="476" y="648"/>
      <point x="459" y="617" type="curve" smooth="yes"/>
      <point x="353" y="422" type="line"/>
      <point x="257" y="616" type="line" smooth="yes"/>
      <point x="243" y="645"/>
      <point x="234" y="666"/>
      <point x="234" y="679" type="curve" smooth="yes"/>
      <point x="234" y="697"/>
      <point x="246" y="704"/>
      <point x="278" y="704" type="curve" smooth="yes"/>
      <point x="301" y="704" type="line"/>
      <point x="301" y="714" type="line"/>
      <point x="26" y="714" type="line"/>
      <point x="26" y="704" type="line"/>
      <point x="36" y="704" type="line" smooth="yes"/>
      <point x="61" y="704"/>
      <point x="73" y="693"/>
      <point x="94" y="652" type="curve" smooth="yes"/>
      <point x="253" y="332" type="line"/>
      <point x="101" y="56" type="line" smooth="yes"/>
      <point x="81" y="19"/>
      <point x="66" y="10"/>
      <point x="30" y="10" type="curve" smooth="yes"/>
      <point x="8" y="10" type="line"/>
    </contour>
  </outline>
</glyph>
<glyph name="Y" format="2">
  <advance width="467"/>
  <unicode hex="0059"/>
  <anchor x="234" y="0" name="bottom"/>
  <anchor x="234" y="714" name="top"/>
  <anchor x="448" y="714" name="topright"/>
  <outline>
    <contour>
      <point x="235" y="424" type="line"/>
      <point x="143" y="714" type="line"/>
      <point x="0" y="714" type="line"/>
      <point x="165" y="271" type="line"/>
      <point x="165" y="0" type="line"/>
      <point x="302" y="0" type="line"/>
      <point x="302" y="275" type="line"/>
      <point x="467" y="714" type="line"/>
      <point x="326" y="714" type="line"/>
    </contour>
  </outline>
</glyph>
<glyph name="Y.serif" format="2">
  <advance width="571"/>
  <unicode hex="0059"/>
  <anchor x="286" y="0" name="bottom"/>
  <anchor x="338" y="714" name="top"/>
  <anchor x="551" y="714" name="topright"/>
  <outline>
    <contour>
      <point x="134" y="0" type="line"/>
      <point x="441" y="0" type="line"/>
      <point x="441" y="10" type="line"/>
      <point x="404" y="10" type="line" smooth="yes"/>
      <point x="365" y="10"/>
      <point x="355" y="25"/>
      <point x="355" y="82" type="curve" smooth="yes"/>
      <point x="355" y="295" type="line"/>
      <point x="505" y="660" type="line" smooth="yes"/>
      <point x="519" y="695"/>
      <point x="532" y="704"/>
      <point x="563" y="704" type="curve" smooth="yes"/>
      <point x="572" y="704" type="line"/>
      <point x="572" y="714" type="line"/>
      <point x="403" y="714" type="line"/>
      <point x="403" y="704" type="line"/>
      <point x="457" y="704" type="line" smooth="yes"/>
      <point x="487" y="704"/>
      <point x="495" y="697"/>
      <point x="495" y="679" type="curve" smooth="yes"/>
      <point x="495" y="666"/>
      <point x="491" y="654"/>
      <point x="478" y="622" type="curve" smooth="yes"/>
      <point x="380" y="381" type="line" smooth="yes"/>
      <point x="370" y="355"/>
      <point x="358" y="327"/>
      <point x="349" y="304" type="curve"/>
      <point x="336" y="339"/>
      <point x="326" y="364"/>
      <point x="315" y="391" type="curve" smooth="yes"/>
      <point x="216" y="629" type="line" smooth="yes"/>
      <point x="207" y="651"/>
      <point x="204" y="662"/>
      <point x="204" y="674" type="curve" smooth="yes"/>
      <point x="204" y="696"/>
      <point x="217" y="704"/>
      <point x="264" y="704" type="curve" smooth="yes"/>
      <point x="277" y="704" type="line"/>
      <point x="277" y="714" type="line"/>
      <point x="0" y="714" type="line"/>
      <point x="0" y="704" type="line"/>
      <point x="6" y="704" type="line" smooth="yes"/>
      <point x="35" y="704"/>
      <point x="48" y="694"/>
      <point x="65" y="653" type="curve" smooth="yes"/>
      <point x="220" y="299" type="line"/>
      <point x="220" y="83" type="line" smooth="yes"/>
      <point x="220" y="25"/>
      <point x="208" y="10"/>
      <point x="163" y="10" type="curve" smooth="yes"/>
      <point x="134" y="10" type="line"/>
    </contour>
  </outline>
</glyph>
<glyph name="Z" format="2">
  <advance width="421"/>
  <unicode hex="005A"/>
  <anchor x="219" y="0" name="bottom"/>
  <anchor x="212" y="714" name="top"/>
  <anchor x="402" y="714" name="topright"/>
  <outline>
    <contour>
      <point x="401" y="0" type="line"/>
      <point x="401" y="119" type="line"/>
      <point x="170" y="119" type="line"/>
      <point x="395" y="616" type="line"/>
      <point x="395" y="714" type="line"/>
      <point x="26" y="714" type="line"/>
      <point x="26" y="596" type="line"/>
      <point x="247" y="596" type="line"/>
      <point x="22" y="98" type="line"/>
      <point x="22" y="0" type="line"/>
    </contour>
  </outline>
</glyph>
<glyph name="Z.serif" format="2">
  <advance width="549"/>
  <unicode hex="005A"/>
  <anchor x="270" y="0" name="bottom"/>
  <anchor x="270" y="714" name="top"/>
  <anchor x="524.007" y="714" name="topright"/>
  <outline>
    <contour>
      <point x="32" y="0" type="line"/>
      <point x="507" y="0" type="line"/>
      <point x="513" y="190" type="line"/>
      <point x="503" y="190" type="line"/>
      <point x="500" y="134" type="line" smooth="yes"/>
      <point x="493" y="44"/>
      <point x="459" y="11"/>
      <point x="365" y="11" type="curve" smooth="yes"/>
      <point x="175" y="11" type="line"/>
      <point x="495" y="701" type="line"/>
      <point x="495" y="714" type="line"/>
      <point x="56" y="714" type="line"/>
      <point x="50" y="525" type="line"/>
      <point x="61" y="525" type="line"/>
      <point x="63" y="580" type="line" smooth="yes"/>
      <point x="67" y="670"/>
      <point x="103" y="703"/>
      <point x="199" y="703" type="curve" smooth="yes"/>
      <point x="352" y="703" type="line"/>
      <point x="32" y="13" type="line"/>
    </contour>
  </outline>
</glyph>
<glyph name="bracketleft" format="2">
  <advance width="297"/>
  <unicode hex="005B"/>
  <outline>
    <contour>
      <point x="276" y="-165" type="line"/>
      <point x="276" y="-63" type="line"/>
      <point x="172" y="-63" type="line"/>
      <point x="172" y="626" type="line"/>
      <point x="276" y="626" type="line"/>
      <point x="276" y="728" type="line"/>
      <point x="50" y="728" type="line"/>
      <point x="50" y="-165" type="line"/>
    </contour>
  </outline>
</glyph>
<glyph name="bracketright" format="2">
  <advance width="297"/>
  <unicode hex="005D"/>
  <outline>
    <contour>
      <point x="22" y="-63" type="line"/>
      <point x="22" y="-165" type="line"/>
      <point x="247" y="-165" type="line"/>
      <point x="247" y="728" type="line"/>
      <point x="22" y="728" type="line"/>
      <point x="22" y="626" type="line"/>
      <point x="126" y="626" type="line"/>
      <point x="126" y="-63" type="line"/>
    </contour>
  </outline>
</glyph>
<glyph name="asciicircum" format="2">
  <advance width="492"/>
  <unicode hex="005E"/>
  <outline>
    <contour>
      <point x="8" y="277" type="line"/>
      <point x="128" y="277" type="line"/>
      <point x="246" y="540" type="line"/>
      <point x="364" y="277" type="line"/>
      <point x="484" y="277" type="line"/>
      <point x="280" y="714" type="line"/>
      <point x="211" y="714" type="line"/>
    </contour>
  </outline>
</glyph>
<glyph name="underscore" format="2">
  <advance width="464"/>
  <unicode hex="005F"/>
  <outline>
    <contour>
      <point x="466" y="-170" type="line"/>
      <point x="466" y="-72" type="line"/>
      <point x="-2" y="-72" type="line"/>
      <point x="-2" y="-170" type="line"/>
    </contour>
  </outline>
</glyph>
<glyph name="grave" format="2">
  <advance width="308"/>
  <unicode hex="0060"/>
  <outline>
    <contour>
      <point x="189" y="766" type="curve"/>
      <point x="40" y="766" type="line"/>
      <point x="40" y="757" type="line"/>
      <point x="65" y="720"/>
      <point x="141" y="637"/>
      <point x="174" y="606" type="curve"/>
      <point x="268" y="606" type="line"/>
      <point x="268" y="619" type="line"/>
      <point x="248" y="650"/>
      <point x="207" y="724"/>
    </contour>
  </outline>
</glyph>
<glyph name="grave.serif" format="2">
  <advance width="264"/>
  <unicode hex="0060"/>
  <outline>
    <contour>
      <point x="216" y="605" type="curve"/>
      <point x="224" y="605" type="line"/>
      <point x="224" y="615" type="line"/>
      <point x="200" y="661"/>
      <point x="175" y="721"/>
      <point x="157" y="766" type="curve"/>
      <point x="40" y="766" type="line"/>
      <point x="40" y="756" type="line"/>
      <point x="71" y="721"/>
      <point x="163" y="645"/>
    </contour>
  </outline>
</glyph>
<glyph name="a" format="2">
  <advance width="454"/>
  <unicode hex="0061"/>
  <anchor x="218" y="0" name="bottom"/>
  <anchor x="236" y="547" name="top"/>
  <anchor x="423" y="547" name="topright"/>
  <outline>
    <contour>
      <point x="242" y="557" type="curve" smooth="yes"/>
      <point x="177" y="557"/>
      <point x="117" y="541"/>
      <point x="69" y="511" type="curve"/>
      <point x="105" y="414" type="line"/>
      <point x="148" y="440"/>
      <point x="184" y="452"/>
      <point x="214" y="452" type="curve" smooth="yes"/>
      <point x="254" y="452"/>
      <point x="271" y="423"/>
      <point x="271" y="363" type="curve" smooth="yes"/>
      <point x="271" y="341" type="line"/>
      <point x="205" y="338" type="line" smooth="yes"/>
      <point x="91" y="333"/>
      <point x="28" y="275"/>
      <point x="28" y="161" type="curve" smooth="yes"/>
      <point x="28" y="73"/>
      <point x="63" y="-10"/>
      <point x="152" y="-10" type="curve" smooth="yes"/>
      <point x="215" y="-10"/>
      <point x="250" y="17"/>
      <point x="283" y="73" type="curve"/>
      <point x="286" y="73" type="line"/>
      <point x="307" y="0" type="line"/>
      <point x="402" y="0" type="line"/>
      <point x="402" y="362" type="line" smooth="yes"/>
      <point x="402" y="491"/>
      <point x="345" y="557"/>
    </contour>
    <contour>
      <point x="236" y="252" type="curve" smooth="yes"/>
      <point x="271" y="254" type="line"/>
      <point x="271" y="204" type="line" smooth="yes"/>
      <point x="271" y="137"/>
      <point x="244" y="94"/>
      <point x="206" y="94" type="curve" smooth="yes"/>
      <point x="175" y="94"/>
      <point x="160" y="118"/>
      <point x="160" y="167" type="curve" smooth="yes"/>
      <point x="160" y="221"/>
      <point x="185" y="249"/>
    </contour>
  </outline>
</glyph>
<glyph name="a.serif" format="2">
  <advance width="493"/>
  <unicode hex="0061"/>
  <anchor x="362" y="0" name="bottom"/>
  <anchor x="247" y="536" name="top"/>
  <anchor x="473" y="536" name="topright"/>
  <outline>
    <contour>
      <point x="163" y="-10" type="curve" smooth="yes"/>
      <point x="222" y="-10"/>
      <point x="265" y="17"/>
      <point x="284" y="85" type="curve"/>
      <point x="286" y="85" type="line"/>
      <point x="286" y="0" type="line"/>
      <point x="467" y="0" type="line"/>
      <point x="467" y="10" type="line"/>
      <point x="464" y="10" type="line" smooth="yes"/>
      <point x="426" y="10"/>
      <point x="415" y="24"/>
      <point x="415" y="83" type="curve" smooth="yes"/>
      <point x="415" y="377" type="line" smooth="yes"/>
      <point x="415" y="502"/>
      <point x="356" y="548"/>
      <point x="241" y="548" type="curve" smooth="yes"/>
      <point x="146" y="548"/>
      <point x="70" y="513"/>
      <point x="70" y="445" type="curve" smooth="yes"/>
      <point x="70" y="401"/>
      <point x="105" y="382"/>
      <point x="175" y="382" type="curve"/>
      <point x="175" y="500"/>
      <point x="190" y="538"/>
      <point x="231" y="538" type="curve" smooth="yes"/>
      <point x="271" y="538"/>
      <point x="285" y="508"/>
      <point x="285" y="414" type="curve" smooth="yes"/>
      <point x="285" y="300" type="line"/>
      <point x="218" y="297" type="line" smooth="yes"/>
      <point x="96" y="292"/>
      <point x="36" y="243"/>
      <point x="36" y="144" type="curve" smooth="yes"/>
      <point x="36" y="42"/>
      <point x="92" y="-10"/>
    </contour>
    <contour>
      <point x="214" y="19" type="curve" smooth="yes"/>
      <point x="182" y="19"/>
      <point x="168" y="48"/>
      <point x="168" y="149" type="curve" smooth="yes"/>
      <point x="168" y="243"/>
      <point x="190" y="284"/>
      <point x="251" y="288" type="curve" smooth="yes"/>
      <point x="285" y="290" type="line"/>
      <point x="285" y="168" type="line" smooth="yes"/>
      <point x="285" y="87"/>
      <point x="256" y="19"/>
    </contour>
  </outline>
</glyph>
<glyph name="b" format="2">
  <advance width="488"/>
  <unicode hex="0062"/>
  <anchor x="260" y="0" name="bottom"/>
  <anchor x="245" y="760" name="top"/>
  <anchor x="441" y="760" name="topright"/>
  <outline>
    <contour>
      <point x="184" y="570" type="curve" smooth="yes"/>
      <point x="184" y="760" type="line"/>
      <point x="53" y="760" type="line"/>
      <point x="53" y="0" type="line"/>
      <point x="158" y="0" type="line"/>
      <point x="178" y="59" type="line"/>
      <point x="185" y="59" type="line"/>
      <point x="219" y="7"/>
      <point x="250" y="-10"/>
      <point x="298" y="-10" type="curve" smooth="yes"/>
      <point x="397" y="-10"/>
      <point x="454" y="97"/>
      <point x="454" y="275" type="curve" smooth="yes"/>
      <point x="454" y="453"/>
      <point x="396" y="556"/>
      <point x="300" y="556" type="curve" smooth="yes"/>
      <point x="252" y="556"/>
      <point x="213" y="532"/>
      <point x="185" y="476" type="curve"/>
      <point x="180" y="476" type="line"/>
      <point x="183" y="518"/>
      <point x="184" y="549"/>
    </contour>
    <contour>
      <point x="255" y="444" type="curve" smooth="yes"/>
      <point x="300" y="444"/>
      <point x="321" y="388"/>
      <point x="321" y="276" type="curve" smooth="yes"/>
      <point x="321" y="156"/>
      <point x="298" y="100"/>
      <point x="256" y="100" type="curve" smooth="yes"/>
      <point x="206" y="100"/>
      <point x="184" y="150"/>
      <point x="184" y="262" type="curve" smooth="yes"/>
      <point x="184" y="289" type="line" smooth="yes"/>
      <point x="184" y="387"/>
      <point x="201" y="444"/>
    </contour>
  </outline>
</glyph>
<glyph name="b.serif" format="2">
  <advance width="532"/>
  <unicode hex="0062"/>
  <anchor x="267" y="0" name="bottom"/>
  <anchor x="267" y="760" name="top"/>
  <anchor x="508" y="760" name="topright"/>
  <outline>
    <contour>
      <point x="331" y="-10" type="curve" smooth="yes"/>
      <point x="434" y="-10"/>
      <point x="495" y="70"/>
      <point x="495" y="267" type="curve" smooth="yes"/>
      <point x="495" y="461"/>
      <point x="436" y="547"/>
      <point x="333" y="547" type="curve" smooth="yes"/>
      <point x="262" y="547"/>
      <point x="225" y="512"/>
      <point x="211" y="434" type="curve"/>
      <point x="209" y="434" type="line"/>
      <point x="210" y="498"/>
      <point x="210" y="543"/>
      <point x="210" y="581" type="curve" smooth="yes"/>
      <point x="210" y="760" type="line"/>
      <point x="13" y="760" type="line"/>
      <point x="13" y="750" type="line"/>
      <point x="17" y="750" type="line" smooth="yes"/>
      <point x="56" y="750"/>
      <point x="80" y="743"/>
      <point x="80" y="685" type="curve" smooth="yes"/>
      <point x="80" y="86" type="line" smooth="yes"/>
      <point x="80" y="25"/>
      <point x="64" y="10"/>
      <point x="19" y="10" type="curve" smooth="yes"/>
      <point x="13" y="10" type="line"/>
      <point x="13" y="0" type="line"/>
      <point x="209" y="0" type="line"/>
      <point x="209" y="104" type="line"/>
      <point x="211" y="104" type="line"/>
      <point x="229" y="29"/>
      <point x="258" y="-10"/>
    </contour>
    <contour>
      <point x="295" y="11" type="curve" smooth="yes"/>
      <point x="241" y="11"/>
      <point x="210" y="93"/>
      <point x="210" y="266" type="curve" smooth="yes"/>
      <point x="210" y="437"/>
      <point x="234" y="524"/>
      <point x="292" y="524" type="curve" smooth="yes"/>
      <point x="346" y="524"/>
      <point x="365" y="458"/>
      <point x="365" y="265" type="curve" smooth="yes"/>
      <point x="365" y="71"/>
      <point x="343" y="11"/>
    </contour>
  </outline>
</glyph>
<glyph name="c" format="2">
  <advance width="391"/>
  <unicode hex="0063"/>
  <anchor x="234" y="0" name="bottom"/>
  <anchor x="227" y="547" name="top"/>
  <anchor x="371" y="547" name="topright"/>
  <outline>
    <contour>
      <point x="235" y="-10" type="curve" smooth="yes"/>
      <point x="280" y="-10"/>
      <point x="324" y="3"/>
      <point x="359" y="31" type="curve"/>
      <point x="359" y="142" type="line"/>
      <point x="327" y="116"/>
      <point x="293" y="102"/>
      <point x="259" y="102" type="curve" smooth="yes"/>
      <point x="198" y="102"/>
      <point x="167" y="158"/>
      <point x="167" y="271" type="curve" smooth="yes"/>
      <point x="167" y="384"/>
      <point x="200" y="444"/>
      <point x="257" y="444" type="curve" smooth="yes"/>
      <point x="286" y="444"/>
      <point x="308" y="435"/>
      <point x="334" y="417" type="curve"/>
      <point x="370" y="521" type="line"/>
      <point x="332" y="545"/>
      <point x="291" y="557"/>
      <point x="237" y="557" type="curve" smooth="yes"/>
      <point x="97" y="557"/>
      <point x="34" y="437"/>
      <point x="34" y="271" type="curve" smooth="yes"/>
      <point x="34" y="80"/>
      <point x="101" y="-10"/>
    </contour>
  </outline>
</glyph>
<glyph name="c.serif" format="2">
  <advance width="433"/>
  <unicode hex="0063"/>
  <anchor x="236" y="0" name="bottom"/>
  <anchor x="236" y="536" name="top"/>
  <anchor x="413" y="536" name="topright"/>
  <outline>
    <contour>
      <point x="240" y="-10" type="curve" smooth="yes"/>
      <point x="367" y="-10"/>
      <point x="403" y="53"/>
      <point x="403" y="96" type="curve" smooth="yes"/>
      <point x="403" y="119"/>
      <point x="393" y="138"/>
      <point x="370" y="142" type="curve"/>
      <point x="360" y="40"/>
      <point x="324" y="2"/>
      <point x="270" y="2" type="curve" smooth="yes"/>
      <point x="197" y="2"/>
      <point x="168" y="67"/>
      <point x="168" y="268" type="curve" smooth="yes"/>
      <point x="168" y="482"/>
      <point x="189" y="538"/>
      <point x="240" y="538" type="curve" smooth="yes"/>
      <point x="281" y="538"/>
      <point x="296" y="502"/>
      <point x="296" y="366" type="curve"/>
      <point x="386" y="366"/>
      <point x="403" y="407"/>
      <point x="403" y="441" type="curve" smooth="yes"/>
      <point x="403" y="500"/>
      <point x="356" y="548"/>
      <point x="244" y="548" type="curve" smooth="yes"/>
      <point x="120" y="548"/>
      <point x="37" y="482"/>
      <point x="37" y="267" type="curve" smooth="yes"/>
      <point x="37" y="58"/>
      <point x="119" y="-10"/>
    </contour>
  </outline>
</glyph>
<glyph name="d" format="2">
  <advance width="488"/>
  <unicode hex="0064"/>
  <anchor x="240" y="0" name="bottom"/>
  <anchor x="244" y="274" name="center"/>
  <anchor x="224" y="760" name="top"/>
  <anchor x="456" y="760" name="topright"/>
  <outline>
    <contour>
      <point x="192" y="-10" type="curve" smooth="yes"/>
      <point x="243" y="-10"/>
      <point x="272" y="11"/>
      <point x="304" y="60" type="curve"/>
      <point x="312" y="60" type="line"/>
      <point x="330" y="0" type="line"/>
      <point x="435" y="0" type="line"/>
      <point x="435" y="760" type="line"/>
      <point x="304" y="760" type="line"/>
      <point x="304" y="570" type="line" smooth="yes"/>
      <point x="304" y="549"/>
      <point x="306" y="519"/>
      <point x="308" y="477" type="curve"/>
      <point x="303" y="477" type="line"/>
      <point x="276" y="531"/>
      <point x="236" y="557"/>
      <point x="188" y="557" type="curve" smooth="yes"/>
      <point x="91" y="557"/>
      <point x="34" y="452"/>
      <point x="34" y="274" type="curve" smooth="yes"/>
      <point x="34" y="96"/>
      <point x="90" y="-10"/>
    </contour>
    <contour>
      <point x="231" y="99" type="curve" smooth="yes"/>
      <point x="189" y="99"/>
      <point x="167" y="157"/>
      <point x="167" y="275" type="curve" smooth="yes"/>
      <point x="167" y="386"/>
      <point x="188" y="444"/>
      <point x="232" y="444" type="curve" smooth="yes"/>
      <point x="282" y="444"/>
      <point x="304" y="396"/>
      <point x="304" y="288" type="curve" smooth="yes"/>
      <point x="304" y="257" type="line" smooth="yes"/>
      <point x="304" y="148"/>
      <point x="281" y="99"/>
    </contour>
  </outline>
</glyph>
<glyph name="e" format="2">
  <advance width="446"/>
  <unicode hex="0065"/>
  <anchor x="243" y="0" name="bottom"/>
  <anchor x="228" y="547" name="top"/>
  <anchor x="429" y="547" name="topright"/>
  <outline>
    <contour>
      <point x="228" y="556" type="curve" smooth="yes"/>
      <point x="100" y="556"/>
      <point x="34" y="454"/>
      <point x="34" y="270" type="curve" smooth="yes"/>
      <point x="34" y="97"/>
      <point x="96" y="-10"/>
      <point x="244" y="-10" type="curve" smooth="yes"/>
      <point x="300" y="-10"/>
      <point x="348" y="2"/>
      <point x="392" y="28" type="curve"/>
      <point x="392" y="136" type="line"/>
      <point x="345" y="107"/>
      <point x="307" y="96"/>
      <point x="262" y="96" type="curve" smooth="yes"/>
      <point x="195" y="96"/>
      <point x="163" y="140"/>
      <point x="163" y="236" type="curve"/>
      <point x="416" y="236" type="line"/>
      <point x="416" y="309" type="line" smooth="yes"/>
      <point x="416" y="460"/>
      <point x="349" y="556"/>
    </contour>
    <contour>
      <point x="231" y="454" type="curve" smooth="yes"/>
      <point x="272" y="454"/>
      <point x="295" y="407"/>
      <point x="295" y="330" type="curve"/>
      <point x="163" y="330" type="line"/>
      <point x="165" y="418"/>
      <point x="191" y="454"/>
    </contour>
  </outline>
</glyph>
<glyph name="e.serif" format="2">
  <advance width="469"/>
  <unicode hex="0065"/>
  <anchor x="245" y="0" name="bottom"/>
  <anchor x="245" y="536" name="top"/>
  <anchor x="449" y="536" name="topright"/>
  <outline>
    <contour>
      <point x="252" y="-10" type="curve" smooth="yes"/>
      <point x="371" y="-10"/>
      <point x="420" y="52"/>
      <point x="420" y="102" type="curve" smooth="yes"/>
      <point x="420" y="122"/>
      <point x="407" y="136"/>
      <point x="389" y="141" type="curve"/>
      <point x="380" y="37"/>
      <point x="341" y="3"/>
      <point x="283" y="3" type="curve" smooth="yes"/>
      <point x="203" y="3"/>
      <point x="166" y="76"/>
      <point x="166" y="283" type="curve"/>
      <point x="435" y="283" type="line"/>
      <point x="435" y="304" type="line" smooth="yes"/>
      <point x="435" y="461"/>
      <point x="364" y="548"/>
      <point x="242" y="548" type="curve" smooth="yes"/>
      <point x="112" y="548"/>
      <point x="37" y="452"/>
      <point x="37" y="264" type="curve" smooth="yes"/>
      <point x="37" y="91"/>
      <point x="109" y="-10"/>
    </contour>
    <contour>
      <point x="308" y="293" type="curve"/>
      <point x="166" y="293" type="line"/>
      <point x="167" y="480"/>
      <point x="190" y="538"/>
      <point x="241" y="538" type="curve" smooth="yes"/>
      <point x="293" y="538"/>
      <point x="308" y="479"/>
    </contour>
  </outline>
</glyph>
<glyph name="f" format="2">
  <advance width="294"/>
  <unicode hex="0066"/>
  <anchor x="134" y="0" name="bottom"/>
  <anchor x="191" y="765" name="top"/>
  <anchor x="308" y="765" name="topright"/>
  <outline>
    <contour>
      <point x="285" y="439" type="line"/>
      <point x="285" y="547" type="line"/>
      <point x="200" y="547" type="line"/>
      <point x="200" y="573" type="line"/>
      <point x="200" y="633"/>
      <point x="210" y="655"/>
      <point x="236" y="655" type="curve"/>
      <point x="253" y="655"/>
      <point x="269" y="651"/>
      <point x="286" y="645" type="curve"/>
      <point x="314" y="743" type="line"/>
      <point x="273" y="759"/>
      <point x="246" y="765"/>
      <point x="208" y="765" type="curve" smooth="yes"/>
      <point x="109" y="765"/>
      <point x="69" y="702"/>
      <point x="69" y="564" type="curve" smooth="yes"/>
      <point x="69" y="547" type="line"/>
      <point x="8" y="509" type="line"/>
      <point x="8" y="439" type="line"/>
      <point x="69" y="439" type="line"/>
      <point x="69" y="0" type="line"/>
      <point x="200" y="0" type="line"/>
      <point x="200" y="439" type="line"/>
    </contour>
  </outline>
</glyph>
<glyph name="f.serif" format="2">
  <advance width="335"/>
  <unicode hex="0066"/>
  <anchor x="168" y="0" name="bottom"/>
  <anchor x="230" y="770" name="top"/>
  <anchor x="398" y="770" name="topright"/>
  <outline>
    <contour>
      <point x="15" y="0" type="line"/>
      <point x="316" y="0" type="line"/>
      <point x="316" y="10" type="line"/>
      <point x="274" y="10" type="line" smooth="yes"/>
      <point x="247" y="10"/>
      <point x="220" y="17"/>
      <point x="220" y="78" type="curve" smooth="yes"/>
      <point x="220" y="526" type="line"/>
      <point x="332" y="526" type="line"/>
      <point x="332" y="536" type="line"/>
      <point x="220" y="536" type="line"/>
      <point x="220" y="631" type="line" smooth="yes"/>
      <point x="220" y="727"/>
      <point x="232" y="760"/>
      <point x="265" y="760" type="curve" smooth="yes"/>
      <point x="296" y="760"/>
      <point x="303" y="726"/>
      <point x="303" y="631" type="curve"/>
      <point x="373" y="631"/>
      <point x="391" y="659"/>
      <point x="391" y="696" type="curve" smooth="yes"/>
      <point x="391" y="734"/>
      <point x="366" y="770"/>
      <point x="260" y="770" type="curve" smooth="yes"/>
      <point x="138" y="770"/>
      <point x="91" y="699"/>
      <point x="91" y="576" type="curve" smooth="yes"/>
      <point x="91" y="536" type="line"/>
      <point x="19" y="536" type="line"/>
      <point x="19" y="526" type="line"/>
      <point x="91" y="526" type="line"/>
      <point x="91" y="78" type="line" smooth="yes"/>
      <point x="91" y="17"/>
      <point x="61" y="10"/>
      <point x="37" y="10" type="curve" smooth="yes"/>
      <point x="15" y="10" type="line"/>
    </contour>
  </outline>
</glyph>
<glyph name="g" format="2">
  <advance width="488"/>
  <unicode hex="0067"/>
  <anchor x="226" y="-240" name="bottom"/>
  <anchor x="252" y="547" name="top"/>
  <anchor x="457" y="547" name="topright"/>
  <outline>
    <contour>
      <point x="192" y="557" type="curve" smooth="yes"/>
      <point x="92" y="557"/>
      <point x="34" y="452"/>
      <point x="34" y="270" type="curve" smooth="yes"/>
      <point x="34" y="93"/>
      <point x="92" y="-10"/>
      <point x="188" y="-10" type="curve" smooth="yes"/>
      <point x="241" y="-10"/>
      <point x="276" y="15"/>
      <point x="304" y="73" type="curve"/>
      <point x="309" y="73" type="line"/>
      <point x="306" y="48"/>
      <point x="304" y="15"/>
      <point x="304" y="-7" type="curve" smooth="yes"/>
      <point x="304" y="-17" type="line" smooth="yes"/>
      <point x="304" y="-98"/>
      <point x="265" y="-128"/>
      <point x="201" y="-128" type="curve" smooth="yes"/>
      <point x="156" y="-128"/>
      <point x="110" y="-116"/>
      <point x="58" y="-87" type="curve"/>
      <point x="58" y="-202" type="line"/>
      <point x="101" y="-228"/>
      <point x="147" y="-240"/>
      <point x="205" y="-240" type="curve" smooth="yes"/>
      <point x="366" y="-240"/>
      <point x="435" y="-144"/>
      <point x="435" y="28" type="curve" smooth="yes"/>
      <point x="435" y="547" type="line"/>
      <point x="322" y="547" type="line"/>
      <point x="311" y="477" type="line"/>
      <point x="303" y="477" type="line"/>
      <point x="275" y="536"/>
      <point x="242" y="557"/>
    </contour>
    <contour>
      <point x="231" y="444" type="curve" smooth="yes"/>
      <point x="282" y="444"/>
      <point x="304" y="395"/>
      <point x="304" y="279" type="curve" smooth="yes"/>
      <point x="304" y="252" type="line" smooth="yes"/>
      <point x="304" y="150"/>
      <point x="281" y="103"/>
      <point x="232" y="103" type="curve" smooth="yes"/>
      <point x="188" y="103"/>
      <point x="167" y="155"/>
      <point x="167" y="268" type="curve" smooth="yes"/>
      <point x="167" y="386"/>
      <point x="189" y="444"/>
    </contour>
  </outline>
</glyph>
<glyph name="h" format="2">
  <advance width="489"/>
  <unicode hex="0068"/>
  <anchor x="247" y="0" name="bottom"/>
  <anchor x="245" y="274" name="center"/>
  <anchor x="118" y="760" name="top"/>
  <anchor x="441" y="760" name="topright"/>
  <outline>
    <contour>
      <point x="184" y="591" type="curve" smooth="yes"/>
      <point x="184" y="760" type="line"/>
      <point x="53" y="760" type="line"/>
      <point x="53" y="0" type="line"/>
      <point x="184" y="0" type="line"/>
      <point x="184" y="263" type="line" smooth="yes"/>
      <point x="184" y="385"/>
      <point x="200" y="440"/>
      <point x="256" y="440" type="curve" smooth="yes"/>
      <point x="291" y="440"/>
      <point x="306" y="404"/>
      <point x="306" y="324" type="curve" smooth="yes"/>
      <point x="306" y="0" type="line"/>
      <point x="437" y="0" type="line"/>
      <point x="437" y="361" type="line" smooth="yes"/>
      <point x="437" y="487"/>
      <point x="388" y="557"/>
      <point x="296" y="557" type="curve" smooth="yes"/>
      <point x="242" y="557"/>
      <point x="202" y="529"/>
      <point x="182" y="477" type="curve"/>
      <point x="174" y="477" type="line"/>
      <point x="181" y="513"/>
      <point x="184" y="552"/>
    </contour>
  </outline>
</glyph>
<glyph name="h.serif" format="2">
  <advance width="547"/>
  <unicode hex="0068"/>
  <anchor x="273" y="0" name="bottom"/>
  <anchor x="273" y="268" name="center"/>
  <anchor x="273" y="760" name="top"/>
  <anchor x="493" y="760" name="topright"/>
  <outline>
    <contour>
      <point x="17" y="0" type="line"/>
      <point x="270" y="0" type="line"/>
      <point x="270" y="10" type="line"/>
      <point x="266" y="10" type="line" smooth="yes"/>
      <point x="221" y="10"/>
      <point x="210" y="24"/>
      <point x="210" y="78" type="curve" smooth="yes"/>
      <point x="210" y="347" type="line" smooth="yes"/>
      <point x="210" y="460"/>
      <point x="238" y="516"/>
      <point x="284" y="516" type="curve" smooth="yes"/>
      <point x="326" y="516"/>
      <point x="340" y="478"/>
      <point x="340" y="374" type="curve" smooth="yes"/>
      <point x="340" y="0" type="line"/>
      <point x="525" y="0" type="line"/>
      <point x="525" y="10" type="line"/>
      <point x="521" y="10" type="line" smooth="yes"/>
      <point x="480" y="10"/>
      <point x="469" y="25"/>
      <point x="469" y="81" type="curve" smooth="yes"/>
      <point x="469" y="359" type="line" smooth="yes"/>
      <point x="469" y="490"/>
      <point x="423" y="548"/>
      <point x="336" y="548" type="curve" smooth="yes"/>
      <point x="266" y="548"/>
      <point x="226" y="511"/>
      <point x="211" y="452" type="curve"/>
      <point x="209" y="452" type="line"/>
      <point x="211" y="486"/>
      <point x="211" y="507"/>
      <point x="211" y="532" type="curve" smooth="yes"/>
      <point x="211" y="760" type="line"/>
      <point x="13" y="760" type="line"/>
      <point x="13" y="750" type="line"/>
      <point x="26" y="750" type="line" smooth="yes"/>
      <point x="69" y="750"/>
      <point x="80" y="736"/>
      <point x="80" y="683" type="curve" smooth="yes"/>
      <point x="80" y="80" type="line" smooth="yes"/>
      <point x="80" y="24"/>
      <point x="68" y="10"/>
      <point x="21" y="10" type="curve" smooth="yes"/>
      <point x="17" y="10" type="line"/>
    </contour>
  </outline>
</glyph>
<glyph name="i" format="2">
  <advance width="240"/>
  <unicode hex="0069"/>
  <anchor x="122" y="0" name="bottom"/>
  <anchor x="120" y="762" name="top"/>
  <anchor x="221" y="762" name="topright"/>
  <outline>
    <contour>
      <point x="185" y="547" type="line"/>
      <point x="55" y="547" type="line"/>
      <point x="55" y="0" type="line"/>
      <point x="185" y="0" type="line"/>
    </contour>
    <contour>
      <point x="120" y="762" type="curve" smooth="yes"/>
      <point x="71" y="762"/>
      <point x="49" y="737"/>
      <point x="49" y="687" type="curve" smooth="yes"/>
      <point x="49" y="639"/>
      <point x="74" y="614"/>
      <point x="120" y="614" type="curve" smooth="yes"/>
      <point x="167" y="614"/>
      <point x="191" y="639"/>
      <point x="191" y="687" type="curve" smooth="yes"/>
      <point x="191" y="736"/>
      <point x="169" y="762"/>
    </contour>
  </outline>
</glyph>
<glyph name="i.serif" format="2">
  <advance width="290"/>
  <unicode hex="0069"/>
  <anchor x="145" y="0" name="bottom"/>
  <anchor x="141" y="763" name="top"/>
  <anchor x="257" y="763" name="topright"/>
  <outline>
    <contour>
      <point x="13" y="0" type="line"/>
      <point x="275" y="0" type="line"/>
      <point x="275" y="10" type="line"/>
      <point x="265" y="10" type="line" smooth="yes"/>
      <point x="227" y="10"/>
      <point x="209" y="23"/>
      <point x="209" y="82" type="curve" smooth="yes"/>
      <point x="209" y="536" type="line"/>
      <point x="12" y="536" type="line"/>
      <point x="12" y="526" type="line"/>
      <point x="25" y="526" type="line" smooth="yes"/>
      <point x="62" y="526"/>
      <point x="80" y="513"/>
      <point x="80" y="456" type="curve" smooth="yes"/>
      <point x="80" y="84" type="line" smooth="yes"/>
      <point x="80" y="24"/>
      <point x="63" y="10"/>
      <point x="24" y="10" type="curve" smooth="yes"/>
      <point x="13" y="10" type="line"/>
    </contour>
    <contour>
      <point x="140" y="633" type="curve" smooth="yes"/>
      <point x="175" y="633"/>
      <point x="204" y="653"/>
      <point x="204" y="698" type="curve" smooth="yes"/>
      <point x="204" y="744"/>
      <point x="175" y="763"/>
      <point x="140" y="763" type="curve" smooth="yes"/>
      <point x="105" y="763"/>
      <point x="78" y="744"/>
      <point x="78" y="698" type="curve" smooth="yes"/>
      <point x="78" y="653"/>
      <point x="105" y="633"/>
    </contour>
  </outline>
</glyph>
<glyph name="j" format="2">
  <advance width="239"/>
  <unicode hex="006A"/>
  <anchor x="41" y="-240" name="bottom"/>
  <anchor x="120" y="762" name="top"/>
  <anchor x="220" y="762" name="topright"/>
  <outline>
    <contour>
      <point x="41" y="-240" type="curve" smooth="yes"/>
      <point x="132" y="-240"/>
      <point x="185" y="-183"/>
      <point x="185" y="-59" type="curve" smooth="yes"/>
      <point x="185" y="547" type="line"/>
      <point x="54" y="547" type="line"/>
      <point x="54" y="-52" type="line" smooth="yes"/>
      <point x="54" y="-102"/>
      <point x="40" y="-126"/>
      <point x="11" y="-126" type="curve" smooth="yes"/>
      <point x="-1" y="-126"/>
      <point x="-15" y="-123"/>
      <point x="-29" y="-117" type="curve"/>
      <point x="-29" y="-229" type="line"/>
      <point x="-7" y="-237"/>
      <point x="17" y="-240"/>
    </contour>
    <contour>
      <point x="48" y="687" type="curve" smooth="yes"/>
      <point x="48" y="639"/>
      <point x="73" y="614"/>
      <point x="119" y="614" type="curve" smooth="yes"/>
      <point x="166" y="614"/>
      <point x="190" y="639"/>
      <point x="190" y="687" type="curve" smooth="yes"/>
      <point x="190" y="736"/>
      <point x="169" y="762"/>
      <point x="119" y="762" type="curve" smooth="yes"/>
      <point x="70" y="762"/>
      <point x="48" y="737"/>
    </contour>
  </outline>
</glyph>
<glyph name="j.serif" format="2">
  <advance width="290"/>
  <unicode hex="006A"/>
  <anchor x="103" y="-240" name="bottom"/>
  <anchor x="146" y="763" name="top"/>
  <anchor x="266" y="763" name="topright"/>
  <outline>
    <contour>
      <point x="-14" y="-240" type="line"/>
      <point x="3" y="-240" type="line" smooth="yes"/>
      <point x="125" y="-240"/>
      <point x="215" y="-190"/>
      <point x="215" y="-10" type="curve" smooth="yes"/>
      <point x="215" y="536" type="line"/>
      <point x="17" y="536" type="line"/>
      <point x="17" y="526" type="line"/>
      <point x="22" y="526" type="line" smooth="yes"/>
      <point x="61" y="526"/>
      <point x="84" y="517"/>
      <point x="84" y="458" type="curve" smooth="yes"/>
      <point x="84" y="-49" type="line" smooth="yes"/>
      <point x="84" y="-188"/>
      <point x="52" y="-230"/>
      <point x="-8" y="-230" type="curve" smooth="yes"/>
      <point x="-14" y="-230" type="line"/>
    </contour>
    <contour>
      <point x="146" y="633" type="curve" smooth="yes"/>
      <point x="180" y="633"/>
      <point x="210" y="653"/>
      <point x="210" y="698" type="curve" smooth="yes"/>
      <point x="210" y="744"/>
      <point x="180" y="763"/>
      <point x="146" y="763" type="curve" smooth="yes"/>
      <point x="111" y="763"/>
      <point x="82" y="744"/>
      <point x="82" y="698" type="curve" smooth="yes"/>
      <point x="82" y="653"/>
      <point x="111" y="633"/>
    </contour>
  </outline>
</glyph>
<glyph name="k" format="2">
  <advance width="466"/>
  <unicode hex="006B"/>
  <anchor x="246" y="0" name="bottom"/>
  <anchor x="118" y="760" name="top"/>
  <anchor x="341" y="860" name="topright"/>
  <outline>
    <contour>
      <point x="184" y="429" type="curve" smooth="yes"/>
      <point x="184" y="760" type="line"/>
      <point x="53" y="760" type="line"/>
      <point x="53" y="0" type="line"/>
      <point x="184" y="0" type="line"/>
      <point x="184" y="176" type="line"/>
      <point x="233" y="226" type="line"/>
      <point x="325" y="0" type="line"/>
      <point x="468" y="0" type="line"/>
      <point x="322" y="323" type="line"/>
      <point x="461" y="547" type="line"/>
      <point x="320" y="547" type="line"/>
      <point x="219" y="370" type="line" smooth="yes"/>
      <point x="208" y="350"/>
      <point x="193" y="324"/>
      <point x="182" y="296" type="curve"/>
      <point x="178" y="296" type="line"/>
      <point x="183" y="339"/>
      <point x="184" y="383"/>
    </contour>
  </outline>
</glyph>
<glyph name="k.serif" format="2">
  <advance width="523"/>
  <unicode hex="006B"/>
  <anchor x="262" y="0" name="bottom"/>
  <anchor x="262" y="760" name="top"/>
  <anchor x="378" y="890" name="topright"/>
  <outline>
    <contour>
      <point x="13" y="0" type="line"/>
      <point x="277" y="0" type="line"/>
      <point x="277" y="10" type="line"/>
      <point x="272" y="10" type="line" smooth="yes"/>
      <point x="244" y="10"/>
      <point x="211" y="18"/>
      <point x="211" y="78" type="curve" smooth="yes"/>
      <point x="211" y="219" type="line"/>
      <point x="242" y="261" type="line"/>
      <point x="316" y="92" type="line" smooth="yes"/>
      <point x="354" y="6"/>
      <point x="395" y="0"/>
      <point x="518" y="0" type="curve" smooth="yes"/>
      <point x="523" y="0" type="line"/>
      <point x="523" y="10" type="line"/>
      <point x="520" y="10" type="line" smooth="yes"/>
      <point x="502" y="10"/>
      <point x="496" y="16"/>
      <point x="466" y="74" type="curve" smooth="yes"/>
      <point x="318" y="365" type="line"/>
      <point x="381" y="451" type="line" smooth="yes"/>
      <point x="427" y="514"/>
      <point x="449" y="526"/>
      <point x="494" y="526" type="curve"/>
      <point x="494" y="536" type="line"/>
      <point x="287" y="536" type="line"/>
      <point x="287" y="526" type="line"/>
      <point x="357" y="526"/>
      <point x="385" y="518"/>
      <point x="385" y="495" type="curve" smooth="yes"/>
      <point x="385" y="482"/>
      <point x="375" y="462"/>
      <point x="347" y="422" type="curve" smooth="yes"/>
      <point x="210" y="233" type="line"/>
      <point x="211" y="268"/>
      <point x="211" y="308"/>
      <point x="211" y="339" type="curve" smooth="yes"/>
      <point x="211" y="760" type="line"/>
      <point x="13" y="760" type="line"/>
      <point x="13" y="750" type="line"/>
      <point x="19" y="750" type="line" smooth="yes"/>
      <point x="56" y="750"/>
      <point x="80" y="742"/>
      <point x="80" y="685" type="curve" smooth="yes"/>
      <point x="80" y="78" type="line" smooth="yes"/>
      <point x="80" y="18"/>
      <point x="56" y="10"/>
      <point x="19" y="10" type="curve" smooth="yes"/>
      <point x="13" y="10" type="line"/>
    </contour>
  </outline>
</glyph>
<glyph name="l" format="2">
  <advance width="238"/>
  <unicode hex="006C"/>
  <anchor x="119" y="0" name="bottom"/>
  <anchor x="119" y="274" name="center"/>
  <anchor x="119" y="760" name="top"/>
  <anchor x="206" y="760" name="topright"/>
  <outline>
    <contour>
      <point x="184" y="0" type="line"/>
      <point x="184" y="760" type="line"/>
      <point x="53" y="760" type="line"/>
      <point x="53" y="0" type="line"/>
    </contour>
  </outline>
</glyph>
<glyph name="m" format="2">
  <advance width="731"/>
  <unicode hex="006D"/>
  <anchor x="366" y="0" name="bottom"/>
  <anchor x="380" y="547" name="top"/>
  <anchor x="700" y="547" name="topright"/>
  <outline>
    <contour>
      <point x="542" y="557" type="curve" smooth="yes"/>
      <point x="485" y="557"/>
      <point x="448" y="530"/>
      <point x="424" y="479" type="curve"/>
      <point x="415" y="479" type="line"/>
      <point x="399" y="524"/>
      <point x="364" y="557"/>
      <point x="303" y="557" type="curve" smooth="yes"/>
      <point x="243" y="557"/>
      <point x="199" y="529"/>
      <point x="178" y="477" type="curve"/>
      <point x="171" y="477" type="line"/>
      <point x="156" y="547" type="line"/>
      <point x="53" y="547" type="line"/>
      <point x="53" y="0" type="line"/>
      <point x="184" y="0" type="line"/>
      <point x="184" y="261" type="line" smooth="yes"/>
      <point x="184" y="379"/>
      <point x="198" y="441"/>
      <point x="251" y="441" type="curve" smooth="yes"/>
      <point x="285" y="441"/>
      <point x="300" y="404"/>
      <point x="300" y="323" type="curve" smooth="yes"/>
      <point x="300" y="0" type="line"/>
      <point x="432" y="0" type="line"/>
      <point x="432" y="277" type="line" smooth="yes"/>
      <point x="432" y="387"/>
      <point x="447" y="441"/>
      <point x="497" y="441" type="curve" smooth="yes"/>
      <point x="531" y="441"/>
      <point x="548" y="403"/>
      <point x="548" y="322" type="curve" smooth="yes"/>
      <point x="548" y="0" type="line"/>
      <point x="679" y="0" type="line"/>
      <point x="679" y="360" type="line" smooth="yes"/>
      <point x="679" y="493"/>
      <point x="634" y="557"/>
    </contour>
  </outline>
</glyph>
<glyph name="m.serif" format="2">
  <advance width="807"/>
  <unicode hex="006D"/>
  <anchor x="404" y="0" name="bottom"/>
  <anchor x="404" y="536" name="top"/>
  <anchor x="787" y="536" name="topright"/>
  <outline>
    <contour>
      <point x="15" y="0" type="line"/>
      <point x="269" y="0" type="line"/>
      <point x="269" y="10" type="line"/>
      <point x="267" y="10" type="line" smooth="yes"/>
      <point x="222" y="10"/>
      <point x="209" y="18"/>
      <point x="209" y="78" type="curve" smooth="yes"/>
      <point x="209" y="358" type="line" smooth="yes"/>
      <point x="209" y="445"/>
      <point x="233" y="515"/>
      <point x="281" y="515" type="curve" smooth="yes"/>
      <point x="325" y="515"/>
      <point x="340" y="473"/>
      <point x="340" y="380" type="curve" smooth="yes"/>
      <point x="340" y="0" type="line"/>
      <point x="525" y="0" type="line"/>
      <point x="525" y="10" type="line"/>
      <point x="521" y="10" type="line" smooth="yes"/>
      <point x="479" y="10"/>
      <point x="469" y="18"/>
      <point x="469" y="81" type="curve" smooth="yes"/>
      <point x="469" y="371" type="line" smooth="yes"/>
      <point x="469" y="453"/>
      <point x="491" y="515"/>
      <point x="540" y="515" type="curve" smooth="yes"/>
      <point x="585" y="515"/>
      <point x="601" y="470"/>
      <point x="601" y="380" type="curve" smooth="yes"/>
      <point x="601" y="0" type="line"/>
      <point x="787" y="0" type="line"/>
      <point x="787" y="10" type="line"/>
      <point x="784" y="10" type="line" smooth="yes"/>
      <point x="742" y="10"/>
      <point x="731" y="18"/>
      <point x="731" y="80" type="curve" smooth="yes"/>
      <point x="731" y="359" type="line" smooth="yes"/>
      <point x="731" y="490"/>
      <point x="681" y="548"/>
      <point x="593" y="548" type="curve" smooth="yes"/>
      <point x="524" y="548"/>
      <point x="481" y="511"/>
      <point x="467" y="449" type="curve"/>
      <point x="465" y="449" type="line"/>
      <point x="444" y="520"/>
      <point x="404" y="548"/>
      <point x="342" y="548" type="curve" smooth="yes"/>
      <point x="267" y="548"/>
      <point x="227" y="511"/>
      <point x="210" y="450" type="curve"/>
      <point x="208" y="450" type="line"/>
      <point x="208" y="536" type="line"/>
      <point x="19" y="536" type="line"/>
      <point x="19" y="526" type="line"/>
      <point x="22" y="526" type="line" smooth="yes"/>
      <point x="65" y="526"/>
      <point x="80" y="517"/>
      <point x="80" y="456" type="curve" smooth="yes"/>
      <point x="80" y="80" type="line" smooth="yes"/>
      <point x="80" y="18"/>
      <point x="64" y="10"/>
      <point x="20" y="10" type="curve" smooth="yes"/>
      <point x="15" y="10" type="line"/>
    </contour>
  </outline>
</glyph>
<glyph name="n" format="2">
  <advance width="489"/>
  <unicode hex="006E"/>
  <anchor x="245" y="0" name="bottom"/>
  <anchor x="254" y="547" name="top"/>
  <anchor x="458" y="547" name="topright"/>
  <outline>
    <contour>
      <point x="296" y="557" type="curve" smooth="yes"/>
      <point x="242" y="557"/>
      <point x="202" y="529"/>
      <point x="178" y="477" type="curve"/>
      <point x="171" y="477" type="line"/>
      <point x="156" y="547" type="line"/>
      <point x="53" y="547" type="line"/>
      <point x="53" y="0" type="line"/>
      <point x="184" y="0" type="line"/>
      <point x="184" y="263" type="line" smooth="yes"/>
      <point x="184" y="393"/>
      <point x="201" y="441"/>
      <point x="253" y="441" type="curve" smooth="yes"/>
      <point x="294" y="441"/>
      <point x="306" y="401"/>
      <point x="306" y="324" type="curve" smooth="yes"/>
      <point x="306" y="0" type="line"/>
      <point x="437" y="0" type="line"/>
      <point x="437" y="362" type="line" smooth="yes"/>
      <point x="437" y="489"/>
      <point x="386" y="557"/>
    </contour>
  </outline>
</glyph>
<glyph name="n.serif" format="2">
  <advance width="546"/>
  <unicode hex="006E"/>
  <anchor x="273" y="0" name="bottom"/>
  <anchor x="273" y="536" name="top"/>
  <anchor x="526" y="536" name="topright"/>
  <outline>
    <contour>
      <point x="15" y="0" type="line"/>
      <point x="269" y="0" type="line"/>
      <point x="269" y="10" type="line"/>
      <point x="266" y="10" type="line" smooth="yes"/>
      <point x="221" y="10"/>
      <point x="209" y="24"/>
      <point x="209" y="78" type="curve" smooth="yes"/>
      <point x="209" y="347" type="line" smooth="yes"/>
      <point x="209" y="462"/>
      <point x="240" y="516"/>
      <point x="285" y="516" type="curve" smooth="yes"/>
      <point x="325" y="516"/>
      <point x="339" y="477"/>
      <point x="339" y="374" type="curve" smooth="yes"/>
      <point x="339" y="0" type="line"/>
      <point x="525" y="0" type="line"/>
      <point x="525" y="10" type="line"/>
      <point x="521" y="10" type="line" smooth="yes"/>
      <point x="479" y="10"/>
      <point x="468" y="24"/>
      <point x="468" y="81" type="curve" smooth="yes"/>
      <point x="468" y="358" type="line" smooth="yes"/>
      <point x="468" y="491"/>
      <point x="424" y="548"/>
      <point x="335" y="548" type="curve" smooth="yes"/>
      <point x="264" y="548"/>
      <point x="226" y="510"/>
      <point x="210" y="451" type="curve"/>
      <point x="208" y="451" type="line"/>
      <point x="208" y="536" type="line"/>
      <point x="19" y="536" type="line"/>
      <point x="19" y="526" type="line"/>
      <point x="23" y="526" type="line" smooth="yes"/>
      <point x="68" y="526"/>
      <point x="80" y="513"/>
      <point x="80" y="459" type="curve" smooth="yes"/>
      <point x="80" y="80" type="line" smooth="yes"/>
      <point x="80" y="24"/>
      <point x="68" y="10"/>
      <point x="20" y="10" type="curve" smooth="yes"/>
      <point x="15" y="10" type="line"/>
    </contour>
  </outline>
</glyph>
<glyph name="o" format="2">
  <advance width="477"/>
  <unicode hex="006F"/>
  <anchor x="238" y="0" name="bottom"/>
  <anchor x="238" y="274" name="center"/>
  <anchor x="238" y="547" name="top"/>
  <anchor x="458" y="547" name="topright"/>
  <outline>
    <contour>
      <point x="443" y="275" type="curve" smooth="yes"/>
      <point x="443" y="457"/>
      <point x="363" y="557"/>
      <point x="239" y="557" type="curve" smooth="yes"/>
      <point x="95" y="557"/>
      <point x="34" y="440"/>
      <point x="34" y="275" type="curve" smooth="yes"/>
      <point x="34" y="120"/>
      <point x="97" y="-10"/>
      <point x="237" y="-10" type="curve" smooth="yes"/>
      <point x="387" y="-10"/>
      <point x="443" y="123"/>
    </contour>
    <contour>
      <point x="167" y="273" type="curve" smooth="yes"/>
      <point x="167" y="391"/>
      <point x="188" y="447"/>
      <point x="238" y="447" type="curve" smooth="yes"/>
      <point x="289" y="447"/>
      <point x="309" y="390"/>
      <point x="309" y="275" type="curve" smooth="yes"/>
      <point x="309" y="158"/>
      <point x="289" y="100"/>
      <point x="238" y="100" type="curve" smooth="yes"/>
      <point x="188" y="100"/>
      <point x="167" y="159"/>
    </contour>
  </outline>
</glyph>
<glyph name="o.serif" format="2">
  <advance width="503"/>
  <unicode hex="006F"/>
  <anchor x="252" y="0" name="bottom"/>
  <anchor x="252" y="268" name="center"/>
  <anchor x="252" y="536" name="top"/>
  <anchor x="490" y="536" name="topright"/>
  <outline>
    <contour>
      <point x="250" y="-10" type="curve" smooth="yes"/>
      <point x="392" y="-10"/>
      <point x="465" y="80"/>
      <point x="465" y="269" type="curve" smooth="yes"/>
      <point x="465" y="456"/>
      <point x="387" y="548"/>
      <point x="253" y="548" type="curve" smooth="yes"/>
      <point x="110" y="548"/>
      <point x="37" y="456"/>
      <point x="37" y="269" type="curve" smooth="yes"/>
      <point x="37" y="81"/>
      <point x="117" y="-10"/>
    </contour>
    <contour>
      <point x="252" y="0" type="curve" smooth="yes"/>
      <point x="192" y="0"/>
      <point x="169" y="63"/>
      <point x="169" y="269" type="curve" smooth="yes"/>
      <point x="169" y="476"/>
      <point x="190" y="538"/>
      <point x="251" y="538" type="curve" smooth="yes"/>
      <point x="314" y="538"/>
      <point x="334" y="476"/>
      <point x="334" y="269" type="curve" smooth="yes"/>
      <point x="334" y="63"/>
      <point x="314" y="0"/>
    </contour>
  </outline>
</glyph>
<glyph name="p" format="2">
  <advance width="488"/>
  <unicode hex="0070"/>
  <anchor x="118" y="-240" name="bottom"/>
  <anchor x="268" y="547" name="top"/>
  <anchor x="469" y="547" name="topright"/>
  <outline>
    <contour>
      <point x="297" y="557" type="curve" smooth="yes"/>
      <point x="250" y="557"/>
      <point x="217" y="539"/>
      <point x="185" y="475" type="curve"/>
      <point x="178" y="475" type="line"/>
      <point x="158" y="547" type="line"/>
      <point x="53" y="547" type="line"/>
      <point x="53" y="-240" type="line"/>
      <point x="184" y="-240" type="line"/>
      <point x="184" y="-21" type="line" smooth="yes"/>
      <point x="184" y="-1"/>
      <point x="183" y="30"/>
      <point x="180" y="72" type="curve"/>
      <point x="185" y="72" type="line"/>
      <point x="212" y="16"/>
      <point x="252" y="-10"/>
      <point x="301" y="-10" type="curve" smooth="yes"/>
      <point x="396" y="-10"/>
      <point x="454" y="96"/>
      <point x="454" y="272" type="curve" smooth="yes"/>
      <point x="454" y="454"/>
      <point x="397" y="557"/>
    </contour>
    <contour>
      <point x="255" y="447" type="curve" smooth="yes"/>
      <point x="300" y="447"/>
      <point x="321" y="389"/>
      <point x="321" y="271" type="curve" smooth="yes"/>
      <point x="321" y="158"/>
      <point x="299" y="103"/>
      <point x="255" y="103" type="curve" smooth="yes"/>
      <point x="206" y="103"/>
      <point x="184" y="151"/>
      <point x="184" y="260" type="curve" smooth="yes"/>
      <point x="184" y="287" type="line" smooth="yes"/>
      <point x="184" y="399"/>
      <point x="205" y="447"/>
    </contour>
  </outline>
</glyph>
<glyph name="p.serif" format="2">
  <advance width="529"/>
  <unicode hex="0070"/>
  <anchor x="265" y="-229" name="bottom"/>
  <anchor x="265" y="536" name="top"/>
  <anchor x="516" y="536" name="topright"/>
  <outline>
    <contour>
      <point x="10" y="-229" type="line"/>
      <point x="287" y="-229" type="line"/>
      <point x="287" y="-219" type="line"/>
      <point x="268" y="-219" type="line" smooth="yes"/>
      <point x="223" y="-219"/>
      <point x="207" y="-204"/>
      <point x="207" y="-140" type="curve" smooth="yes"/>
      <point x="207" y="-36" type="line" smooth="yes"/>
      <point x="207" y="11"/>
      <point x="207" y="57"/>
      <point x="205" y="104" type="curve"/>
      <point x="207" y="104" type="line"/>
      <point x="225" y="29"/>
      <point x="254" y="-10"/>
      <point x="327" y="-10" type="curve" smooth="yes"/>
      <point x="431" y="-10"/>
      <point x="491" y="76"/>
      <point x="491" y="270" type="curve" smooth="yes"/>
      <point x="491" y="462"/>
      <point x="432" y="548"/>
      <point x="328" y="548" type="curve" smooth="yes"/>
      <point x="258" y="548"/>
      <point x="222" y="512"/>
      <point x="207" y="434" type="curve"/>
      <point x="205" y="434" type="line"/>
      <point x="205" y="536" type="line"/>
      <point x="19" y="536" type="line"/>
      <point x="19" y="526" type="line"/>
      <point x="24" y="526" type="line" smooth="yes"/>
      <point x="53" y="526"/>
      <point x="76" y="519"/>
      <point x="76" y="462" type="curve" smooth="yes"/>
      <point x="76" y="-140" type="line" smooth="yes"/>
      <point x="76" y="-204"/>
      <point x="61" y="-219"/>
      <point x="15" y="-219" type="curve" smooth="yes"/>
      <point x="10" y="-219" type="line"/>
    </contour>
    <contour>
      <point x="291" y="11" type="curve" smooth="yes"/>
      <point x="233" y="11"/>
      <point x="206" y="100"/>
      <point x="206" y="268" type="curve" smooth="yes"/>
      <point x="206" y="433"/>
      <point x="230" y="525"/>
      <point x="287" y="525" type="curve" smooth="yes"/>
      <point x="341" y="525"/>
      <point x="361" y="459"/>
      <point x="361" y="268" type="curve" smooth="yes"/>
      <point x="361" y="80"/>
      <point x="342" y="11"/>
    </contour>
  </outline>
</glyph>
<glyph name="q" format="2">
  <advance width="488"/>
  <unicode hex="0071"/>
  <anchor x="369" y="-240" name="bottom"/>
  <anchor x="244" y="547" name="top"/>
  <anchor x="456" y="547" name="topright"/>
  <outline>
    <contour>
      <point x="304" y="-28" type="curve" smooth="yes"/>
      <point x="304" y="-240" type="line"/>
      <point x="435" y="-240" type="line"/>
      <point x="435" y="547" type="line"/>
      <point x="322" y="547" type="line"/>
      <point x="311" y="477" type="line"/>
      <point x="303" y="477" type="line"/>
      <point x="275" y="536"/>
      <point x="242" y="557"/>
      <point x="192" y="557" type="curve" smooth="yes"/>
      <point x="92" y="557"/>
      <point x="34" y="452"/>
      <point x="34" y="270" type="curve" smooth="yes"/>
      <point x="34" y="93"/>
      <point x="92" y="-10"/>
      <point x="188" y="-10" type="curve" smooth="yes"/>
      <point x="237" y="-10"/>
      <point x="276" y="15"/>
      <point x="304" y="73" type="curve"/>
      <point x="309" y="73" type="line"/>
      <point x="306" y="26"/>
      <point x="304" y="-7"/>
    </contour>
    <contour>
      <point x="232" y="103" type="curve" smooth="yes"/>
      <point x="188" y="103"/>
      <point x="167" y="155"/>
      <point x="167" y="268" type="curve" smooth="yes"/>
      <point x="167" y="386"/>
      <point x="189" y="444"/>
      <point x="231" y="444" type="curve" smooth="yes"/>
      <point x="282" y="444"/>
      <point x="304" y="395"/>
      <point x="304" y="279" type="curve" smooth="yes"/>
      <point x="304" y="252" type="line" smooth="yes"/>
      <point x="304" y="150"/>
      <point x="281" y="103"/>
    </contour>
  </outline>
</glyph>
<glyph name="q.serif" format="2">
  <advance width="531"/>
  <unicode hex="0071"/>
  <anchor x="266" y="-229" name="bottom"/>
  <anchor x="266" y="536" name="top"/>
  <anchor x="526" y="536" name="topright"/>
  <outline>
    <contour>
      <point x="234" y="-229" type="line"/>
      <point x="520" y="-229" type="line"/>
      <point x="520" y="-219" type="line"/>
      <point x="512" y="-219" type="line" smooth="yes"/>
      <point x="467" y="-219"/>
      <point x="451" y="-204"/>
      <point x="451" y="-140" type="curve" smooth="yes"/>
      <point x="451" y="461" type="line" smooth="yes"/>
      <point x="451" y="513"/>
      <point x="465" y="526"/>
      <point x="518" y="526" type="curve" smooth="yes"/>
      <point x="521" y="526" type="line"/>
      <point x="521" y="536" type="line"/>
      <point x="322" y="536" type="line"/>
      <point x="322" y="435" type="line"/>
      <point x="320" y="435" type="line"/>
      <point x="306" y="512"/>
      <point x="270" y="548"/>
      <point x="200" y="548" type="curve" smooth="yes"/>
      <point x="99" y="548"/>
      <point x="36" y="465"/>
      <point x="36" y="267" type="curve" smooth="yes"/>
      <point x="36" y="74"/>
      <point x="96" y="-10"/>
      <point x="201" y="-10" type="curve" smooth="yes"/>
      <point x="273" y="-10"/>
      <point x="302" y="28"/>
      <point x="320" y="106" type="curve"/>
      <point x="322" y="106" type="line"/>
      <point x="321" y="55"/>
      <point x="320" y="8"/>
      <point x="320" y="-39" type="curve" smooth="yes"/>
      <point x="320" y="-140" type="line" smooth="yes"/>
      <point x="320" y="-204"/>
      <point x="305" y="-219"/>
      <point x="259" y="-219" type="curve" smooth="yes"/>
      <point x="234" y="-219" type="line"/>
    </contour>
    <contour>
      <point x="237" y="11" type="curve" smooth="yes"/>
      <point x="186" y="11"/>
      <point x="167" y="73"/>
      <point x="167" y="264" type="curve" smooth="yes"/>
      <point x="167" y="463"/>
      <point x="189" y="525"/>
      <point x="242" y="525" type="curve" smooth="yes"/>
      <point x="300" y="525"/>
      <point x="321" y="430"/>
      <point x="321" y="265" type="curve" smooth="yes"/>
      <point x="321" y="93"/>
      <point x="289" y="11"/>
    </contour>
  </outline>
</glyph>
<glyph name="r" format="2">
  <advance width="340"/>
  <unicode hex="0072"/>
  <anchor x="125" y="0" name="bottom"/>
  <anchor x="189" y="547" name="top"/>
  <anchor x="322" y="547" name="topright"/>
  <outline>
    <contour>
      <point x="289" y="557" type="curve" smooth="yes"/>
      <point x="238" y="557"/>
      <point x="200" y="509"/>
      <point x="180" y="457" type="curve"/>
      <point x="174" y="457" type="line"/>
      <point x="154" y="547" type="line"/>
      <point x="54" y="547" type="line"/>
      <point x="54" y="0" type="line"/>
      <point x="185" y="0" type="line"/>
      <point x="185" y="279" type="line" smooth="yes"/>
      <point x="185" y="364"/>
      <point x="216" y="418"/>
      <point x="275" y="418" type="curve" smooth="yes"/>
      <point x="293" y="418"/>
      <point x="308" y="416"/>
      <point x="321" y="411" type="curve"/>
      <point x="332" y="550" type="line"/>
      <point x="315" y="555"/>
      <point x="302" y="557"/>
    </contour>
  </outline>
</glyph>
<glyph name="r.serif" format="2">
  <advance width="431"/>
  <unicode hex="0072"/>
  <anchor x="153" y="0" name="bottom"/>
  <anchor x="223" y="536" name="top"/>
  <anchor x="456" y="536" name="topright"/>
  <outline>
    <contour>
      <point x="15" y="0" type="line"/>
      <point x="290" y="0" type="line"/>
      <point x="290" y="10" type="line"/>
      <point x="280" y="10" type="line" smooth="yes"/>
      <point x="224" y="10"/>
      <point x="210" y="23"/>
      <point x="210" y="78" type="curve" smooth="yes"/>
      <point x="210" y="319" type="line" smooth="yes"/>
      <point x="210" y="450"/>
      <point x="239" y="509"/>
      <point x="277" y="509" type="curve" smooth="yes"/>
      <point x="310" y="509"/>
      <point x="319" y="478"/>
      <point x="319" y="381" type="curve"/>
      <point x="386" y="381"/>
      <point x="419" y="410"/>
      <point x="419" y="463" type="curve" smooth="yes"/>
      <point x="419" y="515"/>
      <point x="386" y="547"/>
      <point x="328" y="547" type="curve" smooth="yes"/>
      <point x="264" y="547"/>
      <point x="229" y="507"/>
      <point x="211" y="439" type="curve"/>
      <point x="209" y="439" type="line"/>
      <point x="209" y="536" type="line"/>
      <point x="19" y="536" type="line"/>
      <point x="19" y="526" type="line"/>
      <point x="21" y="526" type="line" smooth="yes"/>
      <point x="68" y="526"/>
      <point x="79" y="513"/>
      <point x="79" y="461" type="curve" smooth="yes"/>
      <point x="79" y="78" type="line" smooth="yes"/>
      <point x="79" y="23"/>
      <point x="66" y="10"/>
      <point x="17" y="10" type="curve" smooth="yes"/>
      <point x="15" y="10" type="line"/>
    </contour>
  </outline>
</glyph>
<glyph name="s" format="2">
  <advance width="367"/>
  <unicode hex="0073"/>
  <anchor x="171" y="0" name="bottom"/>
  <anchor x="190" y="547" name="top"/>
  <anchor x="332" y="547" name="topright"/>
  <outline>
    <contour>
      <point x="341" y="160" type="curve" smooth="yes"/>
      <point x="341" y="244"/>
      <point x="296" y="289"/>
      <point x="231" y="328" type="curve" smooth="yes"/>
      <point x="164" y="368"/>
      <point x="154" y="380"/>
      <point x="154" y="408" type="curve" smooth="yes"/>
      <point x="154" y="435"/>
      <point x="169" y="451"/>
      <point x="199" y="451" type="curve" smooth="yes"/>
      <point x="234" y="451"/>
      <point x="269" y="435"/>
      <point x="299" y="414" type="curve"/>
      <point x="334" y="514" type="line"/>
      <point x="289" y="542"/>
      <point x="244" y="557"/>
      <point x="192" y="557" type="curve" smooth="yes"/>
      <point x="89" y="557"/>
      <point x="27" y="498"/>
      <point x="27" y="402" type="curve" smooth="yes"/>
      <point x="27" y="323"/>
      <point x="64" y="272"/>
      <point x="130" y="235" type="curve" smooth="yes"/>
      <point x="198" y="197"/>
      <point x="210" y="180"/>
      <point x="210" y="153" type="curve" smooth="yes"/>
      <point x="210" y="120"/>
      <point x="191" y="103"/>
      <point x="156" y="103" type="curve" smooth="yes"/>
      <point x="110" y="103"/>
      <point x="63" y="123"/>
      <point x="28" y="147" type="curve"/>
      <point x="28" y="21" type="line"/>
      <point x="70" y="0"/>
      <point x="117" y="-10"/>
      <point x="169" y="-10" type="curve" smooth="yes"/>
      <point x="277" y="-10"/>
      <point x="341" y="49"/>
    </contour>
  </outline>
</glyph>
